{
	"patcher" : 	{
		"fileversion" : 1,
		"appversion" : 		{
			"major" : 8,
			"minor" : 3,
			"revision" : 0,
			"architecture" : "x64",
			"modernui" : 1
		}
,
		"classnamespace" : "box",
		"rect" : [ 347.0, 212.0, 2179.0, 1130.0 ],
		"bglocked" : 0,
		"openinpresentation" : 1,
		"default_fontsize" : 12.0,
		"default_fontface" : 0,
		"default_fontname" : "Arial",
		"gridonopen" : 1,
		"gridsize" : [ 15.0, 15.0 ],
		"gridsnaponopen" : 1,
		"objectsnaponopen" : 1,
		"statusbarvisible" : 2,
		"toolbarvisible" : 1,
		"lefttoolbarpinned" : 0,
		"toptoolbarpinned" : 0,
		"righttoolbarpinned" : 0,
		"bottomtoolbarpinned" : 0,
		"toolbars_unpinned_last_save" : 0,
		"tallnewobj" : 0,
		"boxanimatetime" : 200,
		"enablehscroll" : 1,
		"enablevscroll" : 1,
		"devicewidth" : 0.0,
		"description" : "",
		"digest" : "",
		"tags" : "",
		"style" : "",
		"subpatcher_template" : "",
		"assistshowspatchername" : 0,
		"boxes" : [ 			{
				"box" : 				{
					"id" : "obj-20",
					"linecount" : 14,
					"maxclass" : "comment",
					"numinlets" : 1,
					"numoutlets" : 0,
					"patching_rect" : [ 1454.0, 85.0, 440.5, 194.0 ],
					"text" : "Copyright (C) 2022 Paul V. Miller\nVersion 0.5\n\nThis program is free software: you can redistribute it and/or modify\nit under the terms of the GNU General Public License as published by\nthe Free Software Foundation, either version 3 of the License, or\n(at your option) any later version.\n\nThis program is distributed in the hope that it will be useful,\nbut WITHOUT ANY WARRANTY; without even the implied warranty of\nMERCHANTABILITY or FITNESS FOR A PARTICULAR PURPOSE.  See the\nGNU General Public License for more details.\n\nFor further information, please visit https://www.gnu.org/licenses/."
				}

			}
, 			{
				"box" : 				{
					"id" : "obj-16",
					"maxclass" : "newobj",
					"numinlets" : 2,
					"numoutlets" : 1,
					"outlettype" : [ "signal" ],
					"patching_rect" : [ 20.5, 847.0, 30.0, 22.0 ],
					"text" : "*~ 2"
				}

			}
, 			{
				"box" : 				{
					"id" : "obj-15",
					"maxclass" : "newobj",
					"numinlets" : 2,
					"numoutlets" : 1,
					"outlettype" : [ "float" ],
					"patching_rect" : [ 496.0, 606.0, 74.0, 22.0 ],
					"text" : "snapshot~ 1"
				}

			}
, 			{
				"box" : 				{
					"id" : "obj-9",
					"maxclass" : "newobj",
					"numinlets" : 2,
					"numoutlets" : 1,
					"outlettype" : [ "float" ],
					"patching_rect" : [ 477.0, 636.0, 64.0, 22.0 ],
					"text" : "snapshot~"
				}

			}
, 			{
				"box" : 				{
					"id" : "obj-7",
					"maxclass" : "newobj",
					"numinlets" : 2,
					"numoutlets" : 1,
					"outlettype" : [ "float" ],
					"patching_rect" : [ 661.0, 662.03595244884491, 74.0, 22.0 ],
					"text" : "snapshot~ 1"
				}

			}
, 			{
				"box" : 				{
					"id" : "obj-5",
					"maxclass" : "newobj",
					"numinlets" : 2,
					"numoutlets" : 1,
					"outlettype" : [ "float" ],
					"patching_rect" : [ 1017.583333373069536, 562.0, 74.0, 22.0 ],
					"text" : "snapshot~ 1"
				}

			}
, 			{
				"box" : 				{
					"id" : "obj-4",
					"maxclass" : "newobj",
					"numinlets" : 2,
					"numoutlets" : 1,
					"outlettype" : [ "float" ],
					"patching_rect" : [ 835.583333373069536, 564.0, 74.0, 22.0 ],
					"text" : "snapshot~ 1"
				}

			}
, 			{
				"box" : 				{
					"id" : "obj-75",
					"linecount" : 52,
					"maxclass" : "comment",
					"numinlets" : 1,
					"numoutlets" : 0,
					"patching_rect" : [ 1827.0, 329.0, 351.0, 704.0 ],
					"presentation" : 1,
					"presentation_linecount" : 42,
					"presentation_rect" : [ 269.0, 458.0, 499.0, 570.0 ],
					"text" : "How to edit bach.roll\n\n1. Keep the patch locked.\n\n2. Always start with the Main Output Volume low. With this kind of synthesis, it's possible to damage your speakers or hearing. While this is unlikely (given the way I've patched things together) don't take any chances.\n\n3. You can select the diamond notehead by clicking on it. Then, the arrow keys can move it up and down.\n\n4. You can click on any of the breakpoints on the BLACK duration line. Then you can move them up and down. This will cause a glissando in the frequency of the lowest bandpass filter.\n\n5. With a breakpoint selected, hold down CTRL (max) and then move the mouse up and down to change the velocity of that breakpoint. This alters the gain of the 8 bandpass filters.\n\n6. To make a new breakpoint, hold down OPTION (mac) and click on the black line. To delete a breakpoint, select it and hit delete.\n\n7. To edit the slots (the red and blue lines, also known as \"automation\",) select the diamond note and press the number keys 1 or 2. This will open up the slot window. You can create automation in much the same way as you edited the black duration line. The slots will be saved with all the other information. To close the slot editor, just single-click on bach.roll OUTSIDE of the slot editor.\n\n8. The red slot controls harmonicity and the blue slot controls Q. This means: harmonicity is the way the bandpass filters are spaced (1 = in the harmonic series). Q is the gain on each of the 8 bandpass filters. CAUTION: a low Q value will allow more noise through, whereas a high Q value will focus each bandpass filter on a narrow part of the noise spectrum, making your sound more \"pitched\".\n\n9. You can save and recall an entire bach.roll in much the same way as we have done before in earlier patches.\n\n10. Once you settle on some shapes for the duration line and the two slots, you can add reverberation using the Gigaverb module. Hit \"bypass\" to bypass it. You probably want to keep your Time setting to about 10 seconds or less. Again, be careful to keep your gain low when experimenting with this.\n\n11. Once you like what you have, you can record your sound using the built-in recording device underneath the Main Output Volume."
				}

			}
, 			{
				"box" : 				{
					"id" : "obj-72",
					"maxclass" : "button",
					"numinlets" : 1,
					"numoutlets" : 1,
					"outlettype" : [ "bang" ],
					"parameter_enable" : 0,
					"patching_rect" : [ 300.0, 386.0, 24.0, 24.0 ]
				}

			}
, 			{
				"box" : 				{
					"bgcolor" : [ 0.301961, 0.301961, 0.301961, 1.0 ],
					"bgcolor2" : [ 0.301961, 0.301961, 0.301961, 1.0 ],
					"bgfillcolor_angle" : 270.0,
					"bgfillcolor_autogradient" : 0.0,
					"bgfillcolor_color" : [ 0.070588235294118, 0.498039215686275, 0.090196078431373, 1.0 ],
					"bgfillcolor_color1" : [ 0.301961, 0.301961, 0.301961, 1.0 ],
					"bgfillcolor_color2" : [ 0.2, 0.2, 0.2, 1.0 ],
					"bgfillcolor_proportion" : 0.5,
					"bgfillcolor_type" : "color",
					"gradient" : 1,
					"id" : "obj-70",
					"maxclass" : "message",
					"numinlets" : 2,
					"numoutlets" : 1,
					"outlettype" : [ "" ],
					"patching_rect" : [ 579.0, 86.0, 37.0, 22.0 ],
					"presentation" : 1,
					"presentation_rect" : [ 416.5, 82.875, 37.0, 22.0 ],
					"text" : "recall"
				}

			}
, 			{
				"box" : 				{
					"bgcolor" : [ 0.870588235294118, 0.129411764705882, 0.129411764705882, 1.0 ],
					"bgcolor2" : [ 0.870588235294118, 0.129411764705882, 0.129411764705882, 1.0 ],
					"bgfillcolor_angle" : 270.0,
					"bgfillcolor_autogradient" : 0.0,
					"bgfillcolor_color" : [ 0.870588235294118, 0.129411764705882, 0.129411764705882, 1.0 ],
					"bgfillcolor_color1" : [ 0.870588235294118, 0.129411764705882, 0.129411764705882, 1.0 ],
					"bgfillcolor_color2" : [ 0.2, 0.2, 0.2, 1.0 ],
					"bgfillcolor_proportion" : 0.5,
					"bgfillcolor_type" : "color",
					"gradient" : 1,
					"id" : "obj-61",
					"maxclass" : "message",
					"numinlets" : 2,
					"numoutlets" : 1,
					"outlettype" : [ "" ],
					"patching_rect" : [ 367.916666686534882, 112.0, 35.0, 22.0 ],
					"presentation" : 1,
					"presentation_rect" : [ 458.416666686534882, 82.875, 35.0, 22.0 ],
					"text" : "clear"
				}

			}
, 			{
				"box" : 				{
					"id" : "obj-56",
					"maxclass" : "newobj",
					"numinlets" : 2,
					"numoutlets" : 1,
					"outlettype" : [ "" ],
					"patching_rect" : [ 277.0, 416.0, 55.0, 22.0 ],
					"saved_object_attributes" : 					{
						"embed" : 0,
						"versionnumber" : 80100
					}
,
					"text" : "bach.reg"
				}

			}
, 			{
				"box" : 				{
					"id" : "obj-52",
					"maxclass" : "message",
					"numinlets" : 2,
					"numoutlets" : 1,
					"outlettype" : [ "" ],
					"patching_rect" : [ 489.5, 119.0, 39.0, 22.0 ],
					"text" : "dump"
				}

			}
, 			{
				"box" : 				{
					"bgcolor" : [ 0.301961, 0.301961, 0.301961, 1.0 ],
					"bgcolor2" : [ 0.301961, 0.301961, 0.301961, 1.0 ],
					"bgfillcolor_angle" : 270.0,
					"bgfillcolor_autogradient" : 0.0,
					"bgfillcolor_color" : [ 0.070588235294118, 0.498039215686275, 0.090196078431373, 1.0 ],
					"bgfillcolor_color1" : [ 0.301961, 0.301961, 0.301961, 1.0 ],
					"bgfillcolor_color2" : [ 0.2, 0.2, 0.2, 1.0 ],
					"bgfillcolor_proportion" : 0.5,
					"bgfillcolor_type" : "color",
					"gradient" : 1,
					"id" : "obj-50",
					"maxclass" : "message",
					"numinlets" : 2,
					"numoutlets" : 1,
					"outlettype" : [ "" ],
					"patching_rect" : [ 489.5, 86.0, 34.0, 22.0 ],
					"presentation" : 1,
					"presentation_rect" : [ 375.5, 82.875, 34.0, 22.0 ],
					"text" : "save"
				}

			}
, 			{
				"box" : 				{
					"id" : "obj-48",
					"linecount" : 29,
					"maxclass" : "comment",
					"numinlets" : 1,
					"numoutlets" : 0,
					"patching_rect" : [ 1454.0, 329.0, 367.0, 395.0 ],
					"presentation" : 1,
					"presentation_linecount" : 38,
					"presentation_rect" : [ 8.0, 458.0, 266.0, 516.0 ],
					"text" : "What this patch does\n\nThe object here is to create a sound using subtractive synthesis and record it to an audio file (.aif). The patch gives you all the tools to do this easily.\n\nBach.roll gives you the ability to edit four parameters: frequency of lowest bandpass filter, gain for all eight filters, harmonicity and Q.\n\nThe diamond notehead corresponds to the frequency of the lowest bandpass filter in the bank of 8. The black \"duration line\" shows how that frequency changes over time.  When the black duration line is thick, the gain for all 8 filters is high, producing a loud sound. When the black line is thin, it produces a quiet sound.\n\nThe red line (slot 1 -- more on this later) controls the harmonicity. This has to do with the way the bank of 8 bandpass filters is arranged. If the harmonicity is 1, the bandpass filters are all arranged in the harmonic series.\n\nThe blue line (slot 2) controls Q. This is the width of the bandpass filter.  A very low value will make the filter very wide, resulting in a noisy sound (and possibly an EXTREMELY loud sound). A high Q will make the bandpass filter sound more like a pitch.\n\nYou can use the Zoom slider to zoom in and out of back.roll, the speaker button to turn signal processing (sound) on, the transport controls to start and stop your sound, and the memory buttons to save, clear and recall an entire bach.roll."
				}

			}
, 			{
				"box" : 				{
					"id" : "obj-46",
					"maxclass" : "comment",
					"numinlets" : 1,
					"numoutlets" : 0,
					"patching_rect" : [ 860.583333373069536, 910.0, 90.0, 20.0 ],
					"presentation" : 1,
					"presentation_rect" : [ 777.833309173583984, 458.0, 90.0, 20.0 ],
					"text" : "Reverb module"
				}

			}
, 			{
				"box" : 				{
					"id" : "obj-44",
					"maxclass" : "comment",
					"numinlets" : 1,
					"numoutlets" : 0,
					"patching_rect" : [ 771.085765570401918, 1086.0, 112.0, 20.0 ],
					"presentation" : 1,
					"presentation_rect" : [ 778.002432197332382, 672.0, 112.0, 20.0 ],
					"text" : "Record a sound file"
				}

			}
, 			{
				"box" : 				{
					"id" : "obj-42",
					"maxclass" : "comment",
					"numinlets" : 1,
					"numoutlets" : 0,
					"patching_rect" : [ 37.0, 959.0, 60.0, 20.0 ],
					"presentation" : 1,
					"presentation_rect" : [ 554.333309173583984, 310.499986052513123, 60.0, 20.0 ],
					"text" : "Spectrum"
				}

			}
, 			{
				"box" : 				{
					"id" : "obj-40",
					"maxclass" : "comment",
					"numinlets" : 1,
					"numoutlets" : 0,
					"patching_rect" : [ 74.0, 847.0, 42.0, 20.0 ],
					"presentation" : 1,
					"presentation_rect" : [ 8.0, 310.499986052513123, 42.0, 20.0 ],
					"text" : "Signal"
				}

			}
, 			{
				"box" : 				{
					"id" : "obj-34",
					"maxclass" : "comment",
					"numinlets" : 1,
					"numoutlets" : 0,
					"patching_rect" : [ 717.085765570401918, 1325.668050527572632, 78.0, 20.0 ],
					"presentation" : 1,
					"presentation_rect" : [ 1041.724735409021378, 700.0, 78.0, 20.0 ],
					"text" : "Elapsed time"
				}

			}
, 			{
				"box" : 				{
					"id" : "obj-30",
					"maxclass" : "button",
					"numinlets" : 1,
					"numoutlets" : 1,
					"outlettype" : [ "bang" ],
					"parameter_enable" : 0,
					"patching_rect" : [ 771.085765570401918, 1155.023984372615814, 24.0, 24.0 ]
				}

			}
, 			{
				"box" : 				{
					"bgcolor" : [ 0.870588235294118, 0.129411764705882, 0.129411764705882, 1.0 ],
					"bgcolor2" : [ 0.870588235294118, 0.129411764705882, 0.129411764705882, 1.0 ],
					"bgfillcolor_angle" : 270.0,
					"bgfillcolor_autogradient" : 0.0,
					"bgfillcolor_color" : [ 0.870588235294118, 0.129411764705882, 0.129411764705882, 1.0 ],
					"bgfillcolor_color1" : [ 0.870588235294118, 0.129411764705882, 0.129411764705882, 1.0 ],
					"bgfillcolor_color2" : [ 0.2, 0.2, 0.2, 1.0 ],
					"bgfillcolor_proportion" : 0.5,
					"bgfillcolor_type" : "color",
					"gradient" : 1,
					"id" : "obj-28",
					"maxclass" : "message",
					"numinlets" : 2,
					"numoutlets" : 1,
					"outlettype" : [ "" ],
					"patching_rect" : [ 771.085765570401918, 1125.837379962205887, 111.0, 22.0 ],
					"presentation" : 1,
					"presentation_rect" : [ 872.724735409021378, 700.0, 111.0, 22.0 ],
					"text" : "start/stop recording"
				}

			}
, 			{
				"box" : 				{
					"bgcolor" : [ 0.301961, 0.301961, 0.301961, 1.0 ],
					"bgcolor2" : [ 0.301961, 0.301961, 0.301961, 1.0 ],
					"bgfillcolor_angle" : 270.0,
					"bgfillcolor_autogradient" : 0.0,
					"bgfillcolor_color" : [ 0.301960784313725, 0.058823529411765, 0.831372549019608, 1.0 ],
					"bgfillcolor_color1" : [ 0.301961, 0.301961, 0.301961, 1.0 ],
					"bgfillcolor_color2" : [ 0.2, 0.2, 0.2, 1.0 ],
					"bgfillcolor_proportion" : 0.5,
					"bgfillcolor_type" : "color",
					"gradient" : 1,
					"id" : "obj-21",
					"maxclass" : "message",
					"numinlets" : 2,
					"numoutlets" : 1,
					"outlettype" : [ "" ],
					"patching_rect" : [ 669.194339334964525, 1125.837379962205887, 89.0, 22.0 ],
					"presentation" : 1,
					"presentation_rect" : [ 777.833309173583984, 700.0, 89.0, 22.0 ],
					"text" : "select filename"
				}

			}
, 			{
				"box" : 				{
					"id" : "obj-19",
					"maxclass" : "newobj",
					"numinlets" : 2,
					"numoutlets" : 1,
					"outlettype" : [ "signal" ],
					"patching_rect" : [ 669.194339334964525, 1297.468050479888916, 66.0, 22.0 ],
					"text" : "round~ 0.1"
				}

			}
, 			{
				"box" : 				{
					"id" : "obj-18",
					"maxclass" : "newobj",
					"numinlets" : 2,
					"numoutlets" : 1,
					"outlettype" : [ "signal" ],
					"patching_rect" : [ 669.194339334964525, 1271.06805008649826, 52.0, 22.0 ],
					"text" : "/~ 1000."
				}

			}
, 			{
				"box" : 				{
					"fontface" : 0,
					"fontname" : "Arial",
					"fontsize" : 12.0,
					"id" : "obj-17",
					"maxclass" : "number~",
					"mode" : 2,
					"numinlets" : 2,
					"numoutlets" : 2,
					"outlettype" : [ "signal", "float" ],
					"patching_rect" : [ 669.194339334964525, 1324.668050527572632, 47.0, 22.0 ],
					"presentation" : 1,
					"presentation_rect" : [ 987.833309173583984, 700.0, 47.0, 22.0 ],
					"sig" : 0.0
				}

			}
, 			{
				"box" : 				{
					"id" : "obj-14",
					"maxclass" : "toggle",
					"numinlets" : 1,
					"numoutlets" : 1,
					"outlettype" : [ "int" ],
					"parameter_enable" : 0,
					"patching_rect" : [ 771.085765570401918, 1183.768033266067505, 24.0, 24.0 ]
				}

			}
, 			{
				"box" : 				{
					"id" : "obj-6",
					"maxclass" : "message",
					"numinlets" : 2,
					"numoutlets" : 1,
					"outlettype" : [ "" ],
					"patching_rect" : [ 668.394329667091142, 1183.768033266067505, 35.0, 22.0 ],
					"text" : "open"
				}

			}
, 			{
				"box" : 				{
					"id" : "obj-3",
					"maxclass" : "newobj",
					"numinlets" : 2,
					"numoutlets" : 1,
					"outlettype" : [ "signal" ],
					"patching_rect" : [ 668.394329667091142, 1239.268033266067505, 69.0, 22.0 ],
					"text" : "sfrecord~ 2"
				}

			}
, 			{
				"box" : 				{
					"id" : "obj-1",
					"maxclass" : "newobj",
					"numinlets" : 1,
					"numoutlets" : 1,
					"outlettype" : [ "bang" ],
					"patching_rect" : [ 174.0, 606.0, 58.0, 22.0 ],
					"text" : "loadbang"
				}

			}
, 			{
				"box" : 				{
					"id" : "obj-199",
					"linecount" : 2,
					"maxclass" : "comment",
					"numinlets" : 1,
					"numoutlets" : 0,
					"patching_rect" : [ 29.0, 174.0, 153.0, 33.0 ],
					"text" : "To select the note, click on it while patch is locked."
				}

			}
, 			{
				"box" : 				{
					"id" : "obj-197",
					"maxclass" : "message",
					"numinlets" : 2,
					"numoutlets" : 1,
					"outlettype" : [ "" ],
					"patching_rect" : [ 930.0, 747.0, 143.0, 22.0 ],
					"text" : "QAll 0."
				}

			}
, 			{
				"box" : 				{
					"id" : "obj-196",
					"maxclass" : "message",
					"numinlets" : 2,
					"numoutlets" : 1,
					"outlettype" : [ "" ],
					"patching_rect" : [ 655.0, 747.0, 143.0, 22.0 ],
					"text" : "gainAll 0.01"
				}

			}
, 			{
				"box" : 				{
					"id" : "obj-194",
					"maxclass" : "comment",
					"numinlets" : 1,
					"numoutlets" : 0,
					"patching_rect" : [ 300.0, 529.0, 150.0, 20.0 ],
					"text" : "Try an audio file for fun"
				}

			}
, 			{
				"box" : 				{
					"id" : "obj-192",
					"linecount" : 3,
					"maxclass" : "comment",
					"numinlets" : 1,
					"numoutlets" : 0,
					"patching_rect" : [ 321.0, 56.5, 150.0, 47.0 ],
					"text" : "stop not only stops bach.roll but also slams shut the global envelope"
				}

			}
, 			{
				"box" : 				{
					"id" : "obj-190",
					"maxclass" : "message",
					"numinlets" : 2,
					"numoutlets" : 1,
					"outlettype" : [ "" ],
					"patching_rect" : [ 1264.0, 453.0, 29.5, 22.0 ],
					"text" : "0"
				}

			}
, 			{
				"box" : 				{
					"bgcolor" : [ 0.301961, 0.301961, 0.301961, 1.0 ],
					"bgcolor2" : [ 0.301961, 0.301961, 0.301961, 1.0 ],
					"bgfillcolor_angle" : 270.0,
					"bgfillcolor_autogradient" : 0.0,
					"bgfillcolor_color" : [ 0.301960784313725, 0.058823529411765, 0.831372549019608, 1.0 ],
					"bgfillcolor_color1" : [ 0.301961, 0.301961, 0.301961, 1.0 ],
					"bgfillcolor_color2" : [ 0.2, 0.2, 0.2, 1.0 ],
					"bgfillcolor_proportion" : 0.5,
					"bgfillcolor_type" : "color",
					"gradient" : 1,
					"id" : "obj-183",
					"maxclass" : "message",
					"numinlets" : 2,
					"numoutlets" : 1,
					"outlettype" : [ "" ],
					"patching_rect" : [ 321.0, 112.0, 31.0, 22.0 ],
					"presentation" : 1,
					"presentation_rect" : [ 307.0, 82.875, 31.0, 22.0 ],
					"text" : "stop"
				}

			}
, 			{
				"box" : 				{
					"id" : "obj-181",
					"linecount" : 9,
					"maxclass" : "comment",
					"numinlets" : 1,
					"numoutlets" : 0,
					"patching_rect" : [ 1279.0, 511.0, 150.0, 127.0 ],
					"text" : "Syntax for line~:\n\ngo to 1 in 5 milliseconds\n\nstay at 1 for however many ms are sent into the inlet\n\ngo to 0 in 5 ms"
				}

			}
, 			{
				"box" : 				{
					"id" : "obj-174",
					"maxclass" : "comment",
					"numinlets" : 1,
					"numoutlets" : 0,
					"patching_rect" : [ 29.0, 62.5, 39.0, 20.0 ],
					"presentation" : 1,
					"presentation_rect" : [ 8.0, 57.5, 39.0, 20.0 ],
					"text" : "Zoom"
				}

			}
, 			{
				"box" : 				{
					"id" : "obj-172",
					"maxclass" : "spectroscope~",
					"numinlets" : 2,
					"numoutlets" : 1,
					"outlettype" : [ "" ],
					"patching_rect" : [ 20.5, 989.25, 475.0, 182.0 ],
					"presentation" : 1,
					"presentation_rect" : [ 554.333309173583984, 332.499986052513123, 556.0, 120.0 ]
				}

			}
, 			{
				"box" : 				{
					"id" : "obj-169",
					"maxclass" : "slider",
					"min" : 6.0,
					"numinlets" : 1,
					"numoutlets" : 1,
					"outlettype" : [ "" ],
					"parameter_enable" : 0,
					"patching_rect" : [ 29.0, 86.0, 218.0, 30.0 ],
					"presentation" : 1,
					"presentation_rect" : [ 8.0, 80.75, 218.0, 30.0 ],
					"size" : 200.0
				}

			}
, 			{
				"box" : 				{
					"id" : "obj-165",
					"maxclass" : "message",
					"numinlets" : 2,
					"numoutlets" : 1,
					"outlettype" : [ "" ],
					"patching_rect" : [ 29.0, 129.0, 55.0, 22.0 ],
					"text" : "zoom $1"
				}

			}
, 			{
				"box" : 				{
					"basictuning" : 440,
					"data" : 					{
						"clips" : [ 							{
								"absolutepath" : "cherokee.aif",
								"filename" : "cherokee.aif",
								"filekind" : "audiofile",
								"id" : "u081011252",
								"loop" : 1,
								"content_state" : 								{
									"loop" : 1
								}

							}
 ]
					}
,
					"followglobaltempo" : 0,
					"formantcorrection" : 0,
					"id" : "obj-163",
					"maxclass" : "playlist~",
					"mode" : "basic",
					"numinlets" : 1,
					"numoutlets" : 5,
					"originallength" : [ 0.0, "ticks" ],
					"originaltempo" : 120.0,
					"outlettype" : [ "signal", "signal", "signal", "", "dictionary" ],
					"parameter_enable" : 0,
					"patching_rect" : [ 297.0, 554.0, 150.0, 30.0 ],
					"pitchcorrection" : 0,
					"quality" : "basic",
					"timestretch" : [ 0 ]
				}

			}
, 			{
				"box" : 				{
					"bgmode" : 0,
					"border" : 0,
					"clickthrough" : 0,
					"enablehscroll" : 0,
					"enablevscroll" : 0,
					"extract" : 1,
					"id" : "obj-160",
					"lockeddragscroll" : 0,
					"lockedsize" : 0,
					"maxclass" : "bpatcher",
					"name" : "bp.Gigaverb.maxpat",
					"numinlets" : 2,
					"numoutlets" : 2,
					"offset" : [ 0.0, 0.0 ],
					"outlettype" : [ "signal", "signal" ],
					"patching_rect" : [ 513.583333373069536, 886.0, 332.0, 116.0 ],
					"presentation" : 1,
					"presentation_rect" : [ 777.833309173583984, 482.0, 332.0, 116.0 ],
					"varname" : "bp.Gigaverb",
					"viewvisibility" : 1
				}

			}
, 			{
				"box" : 				{
					"id" : "obj-155",
					"maxclass" : "newobj",
					"numinlets" : 2,
					"numoutlets" : 1,
					"outlettype" : [ "signal" ],
					"patching_rect" : [ 498.0, 847.0, 723.5, 22.0 ],
					"text" : "*~"
				}

			}
, 			{
				"box" : 				{
					"id" : "obj-154",
					"maxclass" : "newobj",
					"numinlets" : 2,
					"numoutlets" : 2,
					"outlettype" : [ "signal", "bang" ],
					"patching_rect" : [ 1203.0, 572.0, 34.0, 22.0 ],
					"text" : "line~"
				}

			}
, 			{
				"box" : 				{
					"id" : "obj-153",
					"maxclass" : "message",
					"numinlets" : 2,
					"numoutlets" : 1,
					"outlettype" : [ "" ],
					"patching_rect" : [ 1203.0, 511.0, 72.0, 22.0 ],
					"text" : "1 5 1 $1 0 5"
				}

			}
, 			{
				"box" : 				{
					"id" : "obj-151",
					"linecount" : 2,
					"maxclass" : "comment",
					"numinlets" : 1,
					"numoutlets" : 0,
					"patching_rect" : [ 1229.333309173583984, 377.0, 150.0, 33.0 ],
					"text" : "Last outlet is global envelope"
				}

			}
, 			{
				"box" : 				{
					"id" : "obj-149",
					"maxclass" : "newobj",
					"numinlets" : 2,
					"numoutlets" : 1,
					"outlettype" : [ "float" ],
					"patching_rect" : [ 1203.0, 453.0, 33.0, 22.0 ],
					"text" : "- 10."
				}

			}
, 			{
				"box" : 				{
					"id" : "obj-147",
					"maxclass" : "ezdac~",
					"numinlets" : 2,
					"numoutlets" : 0,
					"patching_rect" : [ 513.583333373069536, 1074.0, 97.25, 97.25 ],
					"presentation" : 1,
					"presentation_rect" : [ 238.0, 80.75, 26.25, 26.25 ]
				}

			}
, 			{
				"box" : 				{
					"id" : "obj-146",
					"maxclass" : "message",
					"numinlets" : 2,
					"numoutlets" : 1,
					"outlettype" : [ "" ],
					"patching_rect" : [ 1054.0, 700.276461035013199, 48.0, 22.0 ],
					"text" : "QAll $1"
				}

			}
, 			{
				"box" : 				{
					"id" : "obj-142",
					"maxclass" : "newobj",
					"numinlets" : 3,
					"numoutlets" : 2,
					"outlettype" : [ "signal", "bang" ],
					"patching_rect" : [ 1017.0, 493.0, 45.0, 22.0 ],
					"text" : "curve~"
				}

			}
, 			{
				"box" : 				{
					"id" : "obj-140",
					"maxclass" : "scope~",
					"numinlets" : 2,
					"numoutlets" : 0,
					"patching_rect" : [ 20.5, 886.0, 475.0, 66.0 ],
					"presentation" : 1,
					"presentation_rect" : [ 8.0, 332.499986052513123, 522.5, 119.5 ]
				}

			}
, 			{
				"box" : 				{
					"id" : "obj-138",
					"maxclass" : "message",
					"numinlets" : 2,
					"numoutlets" : 1,
					"outlettype" : [ "" ],
					"patching_rect" : [ 661.0, 705.03595244884491, 61.0, 22.0 ],
					"text" : "gainAll $1"
				}

			}
, 			{
				"box" : 				{
					"id" : "obj-133",
					"lastchannelcount" : 0,
					"maxclass" : "live.gain~",
					"numinlets" : 2,
					"numoutlets" : 5,
					"orientation" : 1,
					"outlettype" : [ "signal", "signal", "", "float", "list" ],
					"parameter_enable" : 1,
					"patching_rect" : [ 513.583333373069536, 1009.0, 332.0, 47.0 ],
					"presentation" : 1,
					"presentation_rect" : [ 777.833309173583984, 608.0, 332.0, 47.0 ],
					"saved_attribute_attributes" : 					{
						"valueof" : 						{
							"parameter_longname" : "Main Output Volume",
							"parameter_mmax" : 6.0,
							"parameter_mmin" : -70.0,
							"parameter_shortname" : "Main Output Volume",
							"parameter_type" : 0,
							"parameter_unitstyle" : 4
						}

					}
,
					"varname" : "Main"
				}

			}
, 			{
				"box" : 				{
					"id" : "obj-126",
					"maxclass" : "comment",
					"numinlets" : 1,
					"numoutlets" : 0,
					"patching_rect" : [ 198.952380992117241, 636.0, 150.0, 20.0 ],
					"text" : "Open all 8 mixing gates"
				}

			}
, 			{
				"box" : 				{
					"id" : "obj-127",
					"maxclass" : "message",
					"numinlets" : 2,
					"numoutlets" : 1,
					"outlettype" : [ "" ],
					"patching_rect" : [ 174.0, 658.0, 245.0, 22.0 ],
					"text" : "0 0 1 1 0 1 2 0 1 3 0 1 4 0 1 5 0 1 6 0 1 7 0 1"
				}

			}
, 			{
				"box" : 				{
					"id" : "obj-131",
					"maxclass" : "matrixctrl",
					"numinlets" : 1,
					"numoutlets" : 2,
					"outlettype" : [ "list", "list" ],
					"parameter_enable" : 0,
					"patching_rect" : [ 174.0, 697.896715328097343, 162.0, 26.759491413831711 ],
					"rows" : 1
				}

			}
, 			{
				"box" : 				{
					"id" : "obj-123",
					"maxclass" : "newobj",
					"numinlets" : 8,
					"numoutlets" : 2,
					"outlettype" : [ "signal", "" ],
					"patching_rect" : [ 496.0, 762.0, 92.5, 22.0 ],
					"text" : "matrix~ 8 1"
				}

			}
, 			{
				"box" : 				{
					"bgcolor" : [ 0.890196078431372, 0.682352941176471, 0.682352941176471, 1.0 ],
					"fontsize" : 24.0,
					"id" : "obj-121",
					"maxclass" : "newobj",
					"numinlets" : 1,
					"numoutlets" : 1,
					"outlettype" : [ "signal" ],
					"patching_rect" : [ 380.0, 593.0, 67.0, 35.0 ],
					"text" : "pink~",
					"textcolor" : [ 0.0, 0.0, 0.0, 1.0 ]
				}

			}
, 			{
				"box" : 				{
					"id" : "obj-118",
					"maxclass" : "message",
					"numinlets" : 2,
					"numoutlets" : 1,
					"outlettype" : [ "" ],
					"patching_rect" : [ 655.0, 773.03595244884491, 195.0, 22.0 ],
					"text" : "freqRatio 8.175799 0."
				}

			}
, 			{
				"box" : 				{
					"id" : "obj-112",
					"maxclass" : "message",
					"numinlets" : 2,
					"numoutlets" : 1,
					"outlettype" : [ "" ],
					"patching_rect" : [ 831.0, 705.03595244884491, 91.0, 22.0 ],
					"text" : "freqRatio $1 $2"
				}

			}
, 			{
				"box" : 				{
					"id" : "obj-105",
					"maxclass" : "newobj",
					"numinlets" : 2,
					"numoutlets" : 1,
					"outlettype" : [ "" ],
					"patching_rect" : [ 831.0, 662.03595244884491, 61.0, 22.0 ],
					"text" : "pack 0. 0."
				}

			}
, 			{
				"box" : 				{
					"id" : "obj-83",
					"maxclass" : "newobj",
					"numinlets" : 3,
					"numoutlets" : 2,
					"outlettype" : [ "signal", "bang" ],
					"patching_rect" : [ 836.0, 493.0, 45.0, 22.0 ],
					"text" : "curve~"
				}

			}
, 			{
				"box" : 				{
					"id" : "obj-76",
					"linecount" : 3,
					"maxclass" : "comment",
					"numinlets" : 1,
					"numoutlets" : 0,
					"patching_rect" : [ 824.0, 86.0, 150.0, 47.0 ],
					"text" : "Key:\nSlot 1 (red) = Harmonicity\nSlot 2 (blue) = Q"
				}

			}
, 			{
				"box" : 				{
					"id" : "obj-68",
					"linecount" : 3,
					"maxclass" : "comment",
					"numinlets" : 1,
					"numoutlets" : 0,
					"patching_rect" : [ 669.194339334964525, 86.0, 150.0, 47.0 ],
					"text" : "Duration line = freq of lowest filter. Width of line is the gain of all bp filters"
				}

			}
, 			{
				"box" : 				{
					"id" : "obj-13",
					"maxclass" : "newobj",
					"numinlets" : 4,
					"numoutlets" : 2,
					"outlettype" : [ "", "" ],
					"patching_rect" : [ 1017.0, 447.0, 138.0, 22.0 ],
					"text" : "bach.slot2curve @out m"
				}

			}
, 			{
				"box" : 				{
					"id" : "obj-11",
					"maxclass" : "newobj",
					"numinlets" : 4,
					"numoutlets" : 2,
					"outlettype" : [ "", "" ],
					"patching_rect" : [ 836.0, 447.0, 138.0, 22.0 ],
					"text" : "bach.slot2curve @out m"
				}

			}
, 			{
				"box" : 				{
					"id" : "obj-58",
					"maxclass" : "newobj",
					"numinlets" : 2,
					"numoutlets" : 1,
					"outlettype" : [ "signal" ],
					"patching_rect" : [ 496.0, 816.0, 114.833333373069536, 22.0 ],
					"text" : "*~"
				}

			}
, 			{
				"box" : 				{
					"bgcolor" : [ 0.870588235294118, 0.129411764705882, 0.129411764705882, 1.0 ],
					"id" : "obj-57",
					"maxclass" : "newobj",
					"numinlets" : 1,
					"numoutlets" : 8,
					"outlettype" : [ "signal", "signal", "signal", "signal", "signal", "signal", "signal", "signal" ],
					"patching_rect" : [ 496.0, 724.0, 92.5, 22.0 ],
					"text" : "fffb~ 8"
				}

			}
, 			{
				"box" : 				{
					"id" : "obj-55",
					"maxclass" : "newobj",
					"numinlets" : 1,
					"numoutlets" : 1,
					"outlettype" : [ "signal" ],
					"patching_rect" : [ 594.333333333333258, 629.0, 46.0, 22.0 ],
					"text" : "dbtoa~"
				}

			}
, 			{
				"box" : 				{
					"id" : "obj-54",
					"maxclass" : "newobj",
					"numinlets" : 6,
					"numoutlets" : 1,
					"outlettype" : [ "signal" ],
					"patching_rect" : [ 594.333333333333258, 529.0, 108.0, 22.0 ],
					"text" : "scale~ 0 127 -40 0"
				}

			}
, 			{
				"box" : 				{
					"id" : "obj-53",
					"maxclass" : "newobj",
					"numinlets" : 3,
					"numoutlets" : 2,
					"outlettype" : [ "signal", "bang" ],
					"patching_rect" : [ 594.333333333333258, 493.0, 45.0, 22.0 ],
					"text" : "curve~"
				}

			}
, 			{
				"box" : 				{
					"id" : "obj-26",
					"maxclass" : "newobj",
					"numinlets" : 1,
					"numoutlets" : 1,
					"outlettype" : [ "signal" ],
					"patching_rect" : [ 496.0, 574.0, 39.0, 22.0 ],
					"text" : "mtof~"
				}

			}
, 			{
				"box" : 				{
					"id" : "obj-25",
					"maxclass" : "newobj",
					"numinlets" : 2,
					"numoutlets" : 1,
					"outlettype" : [ "signal" ],
					"patching_rect" : [ 496.0, 529.0, 46.0, 22.0 ],
					"text" : "/~ 100."
				}

			}
, 			{
				"box" : 				{
					"id" : "obj-24",
					"maxclass" : "newobj",
					"numinlets" : 3,
					"numoutlets" : 2,
					"outlettype" : [ "signal", "bang" ],
					"patching_rect" : [ 496.0, 493.0, 45.0, 22.0 ],
					"text" : "curve~"
				}

			}
, 			{
				"box" : 				{
					"id" : "obj-23",
					"maxclass" : "newobj",
					"numinlets" : 6,
					"numoutlets" : 4,
					"outlettype" : [ "", "", "", "" ],
					"patching_rect" : [ 496.0, 447.0, 312.0, 22.0 ],
					"text" : "bach.dl2curve @out m"
				}

			}
, 			{
				"box" : 				{
					"id" : "obj-22",
					"maxclass" : "newobj",
					"numinlets" : 1,
					"numoutlets" : 7,
					"outlettype" : [ "", "", "", "", "", "", "" ],
					"patching_rect" : [ 496.0, 377.0, 424.0, 22.0 ],
					"saved_object_attributes" : 					{
						"versionnumber" : 80100
					}
,
					"text" : "bach.playkeys cents velocity duration breakpoints 1 2 duration @out nnnnnnm"
				}

			}
, 			{
				"box" : 				{
					"bgcolor" : [ 0.301961, 0.301961, 0.301961, 1.0 ],
					"bgcolor2" : [ 0.301961, 0.301961, 0.301961, 1.0 ],
					"bgfillcolor_angle" : 270.0,
					"bgfillcolor_autogradient" : 0.0,
					"bgfillcolor_color" : [ 0.301960784313725, 0.058823529411765, 0.831372549019608, 1.0 ],
					"bgfillcolor_color1" : [ 0.301961, 0.301961, 0.301961, 1.0 ],
					"bgfillcolor_color2" : [ 0.2, 0.2, 0.2, 1.0 ],
					"bgfillcolor_proportion" : 0.5,
					"bgfillcolor_type" : "color",
					"gradient" : 1,
					"id" : "obj-12",
					"maxclass" : "message",
					"numinlets" : 2,
					"numoutlets" : 1,
					"outlettype" : [ "" ],
					"patching_rect" : [ 277.0, 112.0, 31.0, 22.0 ],
					"presentation" : 1,
					"presentation_rect" : [ 269.0, 82.875, 31.0, 22.0 ],
					"text" : "play"
				}

			}
, 			{
				"box" : 				{
					"bgslots" : [ 1, 2 ],
					"breakpointshavevelocity" : 1,
					"bwcompatibility" : 80104,
					"clefs" : [ "FG" ],
					"defaultnoteslots" : [ "null" ],
					"durationlinewidth" : 4.0,
					"fontface" : 0,
					"fontname" : "Arial",
					"fontsize" : 12.0,
					"id" : "obj-10",
					"loop" : [ 0.0, 1000.0 ],
					"maxclass" : "bach.roll",
					"numinlets" : 6,
					"numoutlets" : 8,
					"numvoices" : 1,
					"out" : "nnnnnnn",
					"outlettype" : [ "", "", "", "", "", "", "", "bang" ],
					"patching_rect" : [ 277.0, 163.333332538604736, 1102.333309173583984, 190.666666666666657 ],
					"pitcheditrange" : [ "null" ],
					"presentation" : 1,
					"presentation_rect" : [ 8.0, 120.333332538604736, 1102.333309173583984, 190.666666666666657 ],
					"ruler" : 2,
					"showstems" : 0,
					"showvelocity" : 4,
					"stafflines" : [ 5 ],
					"textcolor" : [ 0.0, 0.0, 0.0, 1.0 ],
					"versionnumber" : 80100,
					"voicenames" : [ "[", "]" ],
					"voicespacing" : [ 0.0, 17.0 ],
					"whole_roll_data_0000000000" : [ "roll", "[", "slotinfo", "[", 1, "[", "name", "Harmonicity", "]", "[", "type", "function", "]", "[", "key", 0, "]", "[", "range", "_x_x_x_x_bach_float64_x_x_x_x_", 0, 1071644672, "_x_x_x_x_bach_float64_x_x_x_x_", 0, 1073741824, "]", "[", "slope", "_x_x_x_x_bach_float64_x_x_x_x_", 0, 0, "]", "[", "representation", "]", "[", "grid", "]", "[", "ysnap", "]", "[", "domain", "_x_x_x_x_bach_float64_x_x_x_x_", 0, 0, "_x_x_x_x_bach_float64_x_x_x_x_", 0, 1072693248, "]", "[", "domainslope", "_x_x_x_x_bach_float64_x_x_x_x_", 0, 0, "]", "[", "temporalmode", "relative", "]", "[", "extend", 0, "]", "[", "width", "duration", "]", "[", "height", "auto", "]", "[", "copywhensplit", 0, "]", "[", "access", "readandwrite", "]", "[", "follownotehead", 0, "]", "]", "[", 2, "[", "name", "Q", "]", "[", "type", "function", "]", "[", "key", 0, "]", "[", "range", "_x_x_x_x_bach_float64_x_x_x_x_", 0, 1072693248, "_x_x_x_x_bach_float64_x_x_x_x_", 0, 1079574528, "]", "[", "slope", "_x_x_x_x_bach_float64_x_x_x_x_", 0, 0, "]", "[", "representation", "]", "[", "grid", "]", "[", "ysnap", "]", "[", "domain", "_x_x_x_x_bach_float64_x_x_x_x_", 0, 0, "_x_x_x_x_bach_float64_x_x_x_x_", 0, 1072693248, "]", "[", "domainslope", "_x_x_x_x_bach_float64_x_x_x_x_", 0, 0, "]", "[", "temporalmode", "relative", "]", "[", "extend", 0, "]", "[", "width", "auto", "]", "[", "height", "auto", "]", "[", "copywhensplit", 0, "]", "[", "access", "readandwrite", "]", "[", "follownotehead", 0, "]", "]", "[", 3, "[", "name", "Gain", "]", "[", "type", "function", "]", "[", "key", 0, "]", "[", "range", "_x_x_x_x_bach_float64_x_x_x_x_", 0, 3226337280, "_x_x_x_x_bach_float64_x_x_x_x_", 0, 0, "]", "[", "slope", "_x_x_x_x_bach_float64_x_x_x_x_", 3435973837, 1071959244, "]", "[", "representation", "]", "[", "grid", "]", "[", "ysnap", "]", "[", "domain", "_x_x_x_x_bach_float64_x_x_x_x_", 0, 0, "_x_x_x_x_bach_float64_x_x_x_x_", 0, 1072693248, "]", "[", "domainslope", "_x_x_x_x_bach_float64_x_x_x_x_", 0, 0, "]", "[", "temporalmode", "relative", "]", "[", "extend", 0, "]", "[", "width", "duration", "]", "[", "height", "auto", "]", "[", "copywhensplit", 1, "]", "[", "access", "readandwrite", "]", "[", "follownotehead", 0, "]", "]", "[", 4, "[", "name", "slot floatlist", "]", "[", "type", "floatlist", "]", "[", "key", 0, "]", "[", "range", "_x_x_x_x_bach_float64_x_x_x_x_", 0, 0, "_x_x_x_x_bach_float64_x_x_x_x_", 0, 1072693248, "]", "[", "slope", "_x_x_x_x_bach_float64_x_x_x_x_", 0, 0, "]", "[", "representation", "]", "[", "default", "_x_x_x_x_bach_float64_x_x_x_x_", 0, 0, "]", "[", "temporalmode", "none", "]", "[", "extend", 0, "]", "[", "width", "_x_x_x_x_bach_float64_x_x_x_x_", 0, 1079574528, "]", "[", "height", "auto", "]", "[", "copywhensplit", 1, "]", "[", "access", "readandwrite", "]", "[", "follownotehead", 0, "]", "]", "[", 5, "[", "name", "slot int", "]", "[", "type", "int", "]", "[", "key", 0, "]", "[", "range", "_x_x_x_x_bach_float64_x_x_x_x_", 0, 0, "_x_x_x_x_bach_float64_x_x_x_x_", 0, 1080016896, "]", "[", "slope", "_x_x_x_x_bach_float64_x_x_x_x_", 0, 0, "]", "[", "representation", "]", "[", "default", "_x_x_x_x_bach_float64_x_x_x_x_", 0, 1078984704, "]", "[", "temporalmode", "none", "]", "[", "extend", 0, "]", "[", "width", "_x_x_x_x_bach_float64_x_x_x_x_", 0, 1079574528, "]", "[", "height", "auto", "]", "[", "copywhensplit", 1, "]", "[", "access", "readandwrite", "]", "[", "follownotehead", 0, "]", "]", "[", 6, "[", "name", "slot float", "]", "[", "type", "float", "]", "[", "key", 0, "]", "[", "range", "_x_x_x_x_bach_float64_x_x_x_x_", 0, 0, "_x_x_x_x_bach_float64_x_x_x_x_", 0, 1072693248, "]", "[", "slope", "_x_x_x_x_bach_float64_x_x_x_x_", 0, 0, "]", "[", "representation", "]", "[", "default", "_x_x_x_x_bach_float64_x_x_x_x_", 0, 0, "]", "[", "temporalmode", "none", "]", "[", "extend", 0, "]", "[", "width", "_x_x_x_x_bach_float64_x_x_x_x_", 0, 1079574528, "]", "[", "height", "auto", "]", "[", "copywhensplit", 1, "]", "[", "access", "readandwrite", "]", "[", "follownotehead", 0, "]", "]", "[", 7, "[", "name", "slot text", "]", "[", "type", "text", "]", "[", "key", 0, "]", "[", "temporalmode", "none", "]", "[", "extend", 0, "]", "[", "width", "_x_x_x_x_bach_float64_x_x_x_x_", 0, 1079574528, "]", "[", "height", "auto", "]", "[", "copywhensplit", 0, "]", "[", "access", "readandwrite", "]", "[", "follownotehead", 0, "]", "]", "[", 8, "[", "name", "slot filelist", "]", "[", "type", "filelist", "]", "[", "key", 0, "]", "[", "temporalmode", "none", "]", "[", "extend", 0, "]", "[", "width", "_x_x_x_x_bach_float64_x_x_x_x_", 0, 1080213504, "]", "[", "height", "auto", "]", "[", "copywhensplit", 1, "]", "[", "access", "readandwrite", "]", "[", "follownotehead", 0, "]", "]", "[", 9, "[", "name", "slot spat", "]", "[", "type", "spat", "]", "[", "key", 0, "]", "[", "range", "_x_x_x_x_bach_float64_x_x_x_x_", 0, 0, "_x_x_x_x_bach_float64_x_x_x_x_", 0, 1076101120, "]", "[", "slope", "_x_x_x_x_bach_float64_x_x_x_x_", 0, 0, "]", "[", "representation", "]", "[", "temporalmode", "relative", "]", "[", "extend", 0, "]", "[", "width", "auto", "]", "[", "height", "auto", "]", "[", "copywhensplit", 0, "]", "[", "access", "readandwrite", "]", "[", "follownotehead", 0, "]", "]", "[", 10, "[", "name", "slot llll", "]", "[", "type", "llll", "]", "[", "key", 0, "]", "[", "temporalmode", "none", "]", "[", "extend", 0, "]", "[", "width", "_x_x_x_x_bach_float64_x_x_x_x_", 0, 1079574528, "]", "[", "height", "auto", "]", "[", "copywhensplit", 0, "]", "[", "access", "readandwrite", "]", "[", "follownotehead", 0, "]", "]", "[", 11, "[", "name", "slot 11", "]", "[", "type", "none", "]", "[", "key", 0, "]", "[", "temporalmode", "none", "]", "[", "extend", 0, "]", "[", "width", "_x_x_x_x_bach_float64_x_x_x_x_", 0, 1079574528, "]", "[", "height", "auto", "]", "[", "copywhensplit", 1, "]", "[", "access", "readandwrite", "]", "[", "follownotehead", 0, "]", "]", "[", 12, "[", "name", "slot 12", "]", "[", "type", "none", "]", "[", "key", 0, "]", "[", "temporalmode", "none", "]", "[", "extend", 0, "]", "[", "width", "_x_x_x_x_bach_float64_x_x_x_x_", 0, 1079574528, "]", "[", "height", "auto", "]", "[", "copywhensplit", 1, "]", "[", "access", "readandwrite", "]", "[", "follownotehead", 0, "]", "]", "[", 13, "[", "name", "slot 13", "]", "[", "type", "none", "]", "[", "key", 0, "]", "[", "temporalmode", "none", "]", "[", "extend", 0, "]", "[", "width", "_x_x_x_x_bach_float64_x_x_x_x_", 0, 1079574528, "]", "[", "height", "auto", "]", "[", "copywhensplit", 1, "]", "[", "access", "readandwrite", "]", "[", "follownotehead", 0, "]", "]", "[", 14, "[", "name", "slot 14", "]", "[", "type", "none", "]", "[", "key", 0, "]", "[", "temporalmode", "none", "]", "[", "extend", 0, "]", "[", "width", "_x_x_x_x_bach_float64_x_x_x_x_", 0, 1079574528, "]", "[", "height", "auto", "]", "[", "copywhensplit", 1, "]", "[", "access", "readandwrite", "]", "[", "follownotehead", 0, "]", "]", "[", 15, "[", "name", "slot 15", "]", "[", "type", "none", "]", "[", "key", 0, "]", "[", "temporalmode", "none", "]", "[", "extend", 0, "]", "[", "width", "_x_x_x_x_bach_float64_x_x_x_x_", 0, 1079574528, "]", "[", "height", "auto", "]", "[", "copywhensplit", 1, "]", "[", "access", "readandwrite", "]", "[", "follownotehead", 0, "]", "]", "[", 16, "[", "name", "slot 16", "]", "[", "type", "none", "]", "[", "key", 0, "]", "[", "temporalmode", "none", "]", "[", "extend", 0, "]", "[", "width", "_x_x_x_x_bach_float64_x_x_x_x_", 0, 1079574528, "]", "[", "height", "auto", "]", "[", "copywhensplit", 1, "]", "[", "access", "readandwrite", "]", "[", "follownotehead", 0, "]", "]", "[", 17, "[", "name", "slot 17", "]", "[", "type", "none", "]", "[", "key", 0, "]", "[", "temporalmode", "none", "]", "[", "extend", 0, "]", "[", "width", "_x_x_x_x_bach_float64_x_x_x_x_", 0, 1079574528, "]", "[", "height", "auto", "]", "[", "copywhensplit", 1, "]", "[", "access", "readandwrite", "]", "[", "follownotehead", 0, "]", "]", "[", 18, "[", "name", "slot 18", "]", "[", "type", "none", "]", "[", "key", 0, "]", "[", "temporalmode", "none", "]", "[", "extend", 0, "]", "[", "width", "_x_x_x_x_bach_float64_x_x_x_x_", 0, 1079574528, "]", "[", "height", "auto", "]", "[", "copywhensplit", 1, "]", "[", "access", "readandwrite", "]", "[", "follownotehead", 0, "]", "]", "[", 19, "[", "name", "slot 19", "]", "[", "type", "none", "]", "[", "key", 0, "]", "[", "temporalmode", "none", "]", "[", "extend", 0, "]", "[", "width", "_x_x_x_x_bach_float64_x_x_x_x_", 0, 1079574528, "]", "[", "height", "auto", "]", "[", "copywhensplit", 1, "]", "[", "access", "readandwrite", "]", "[", "follownotehead", 0, "]", "]", "[", 20, "[", "name", "dynamics", "]", "[", "type", "dynamics", "]", "[", "key", "d", "]", "[", "temporalmode", "none", "]", "[", "extend", 0, "]", "[", "width", "_x_x_x_x_bach_float64_x_x_x_x_", 0, 1079738368, "]", "[", "height", "auto", "]", "[", "copywhensplit", 0, "]", "[", "access", "readandwrite", "]", "[", "follownotehead", 0, "]", "]", "[", 21, "[", "name", "lyrics", "]", "[", "type", "text", "]", "[", "key", "l", "]", "[", "temporalmode", "none", "]", "[", "extend", 0, "]", "[", "width", "_x_x_x_x_bach_float64_x_x_x_x_", 0, 1079574528, "]", "[", "height", "auto", "]", "[", "copywhensplit", 0, "]", "[", "access", "readandwrite", "]", "[", "follownotehead", 0, "]", "]", "[", 22, "[", "name", "articulations", "]", "[", "type", "articulations", "]", "[", "key", "a", "]", "[", "temporalmode", "none", "]", "[", "extend", 0, "]", "[", "width", "_x_x_x_x_bach_float64_x_x_x_x_", 0, 1079738368, "]", "[", "height", "auto", "]", "[", "copywhensplit", 1, "]", "[", "access", "readandwrite", "]", "[", "follownotehead", 0, "]", "]", "[", 23, "[", "name", "notehead", "]", "[", "type", "notehead", "]", "[", "key", "h", "]", "[", "temporalmode", "none", "]", "[", "extend", 0, "]", "[", "width", "_x_x_x_x_bach_float64_x_x_x_x_", 0, 1079738368, "]", "[", "height", "auto", "]", "[", "copywhensplit", 1, "]", "[", "access", "readandwrite", "]", "[", "follownotehead", 0, "]", "]", "[", 24, "[", "name", "annotation", "]", "[", "type", "text", "]", "[", "key", "t", "]", "[", "temporalmode", "none", "]", "[", "extend", 0, "]", "[", "width", "_x_x_x_x_bach_float64_x_x_x_x_", 0, 1079574528, "]", "[", "height", "auto", "]", "[", "copywhensplit", 1, "]", "[", "access", "readandwrite", "]", "[", "follownotehead", 0, "]", "]", "[", 25, "[", "name", "slot 25", "]", "[", "type", "none", "]", "[", "key", 0, "]", "[", "temporalmode", "none", "]", "[", "extend", 0, "]", "[", "width", "_x_x_x_x_bach_float64_x_x_x_x_", 0, 1079574528, "]", "[", "height", "auto", "]", "[", "copywhensplit", 1, "]", "[", "access", "readandwrite", "]", "[", "follownotehead", 0, "]", "]", "[", 26, "[", "name", "slot 26", "]", "[", "type", "none", "]", "[", "key", 0, "]", "[", "temporalmode", "none", "]", "[", "extend", 0, "]", "[", "width", "_x_x_x_x_bach_float64_x_x_x_x_", 0, 1079574528, "]", "[", "height", "auto", "]", "[", "copywhensplit", 1, "]", "[", "access", "readandwrite", "]", "[", "follownotehead", 0, "]", "]", "[", 27, "[", "name", "slot 27", "]", "[", "type", "none", "]", "[", "key", 0, "]", "[", "temporalmode", "none", "]", "[", "extend", 0, "]", "[", "width", "_x_x_x_x_bach_float64_x_x_x_x_", 0, 1079574528, "]", "[", "height", "auto", "]", "[", "copywhensplit", 1, "]", "[", "access", "readandwrite", "]", "[", "follownotehead", 0, "]", "]", "[", 28, "[", "name", "slot 28", "]", "[", "type", "none", "]", "[", "key", 0, "]", "[", "temporalmode", "none", "]", "[", "extend", 0, "]", "[", "width", "_x_x_x_x_bach_float64_x_x_x_x_", 0, 1079574528, "]", "[", "height", "auto", "]", "[", "copywhensplit", 1, "]", "[", "access", "readandwrite", "]", "[", "follownotehead", 0, "]", "]", "[", 29, "[", "name", "slot 29", "]", "[", "type", "none", "]", "[", "key", 0, "]", "[", "temporalmode", "none", "]", "[", "extend", 0, "]", "[", "width", "_x_x_x_x_bach_float64_x_x_x_x_", 0, 1079574528, "]", "[", "height", "auto", "]", "[", "copywhensplit", 1, "]", "[", "access", "readandwrite", "]", "[", "follownotehead", 0, "]", "]", "[", 30, "[", "name", "slot 30", "]", "[", "type", "none", "]", "[", "key", 0, "]", "[", "temporalmode", "none", "]", "[", "extend", 0, "]", "[", "width", "_x_x_x_x_bach_float64_x_x_x_x_", 0, 1079574528, "]", "[", "height", "auto", "]", "[", "copywhensplit", 1, "]", "[", "access", "readandwrite", "]", "[", "follownotehead", 0, "]", "]", "]", "[", "commands", "[", 1, "[", "note", "note", "]", "[", "chord", "chord", "]", "[", "rest", "rest", "]", "[", "key", 0, "]", "]", "[", 2, "[", "note", "note", "]", "[", "chord", "chord", "]", "[", "rest", "rest", "]", "[", "key", 0, "]", "]", "[", 3, "[", "note", "note", "]", "[", "chord", "chord", "]", "[", "rest", "rest", "]", "[", "key", 0, "]", "]", "[", 4, "[", "note", "note", "]", "[", "chord", "chord", "]", "[", "rest", "rest", "]", "[", "key", 0, "]", "]", "[", 5, "[", "note", "note", "]", "[", "chord", "chord", "]", "[", "rest", "rest", "]", "[", "key", 0, "]", "]", "]", "[", "groups", "]", "[", "markers", "]", "[", "midichannels", 1, "]", "[", "articulationinfo", "]", "[", "noteheadinfo", "]", "[", "[", "_x_x_x_x_bach_float64_x_x_x_x_", 0, 1076756480, "[", "_x_x_x_x_bach_float64_x_x_x_x_", 0, 1085328384, "_x_x_x_x_bach_float64_x_x_x_x_", 3681400538, 1088325158, 1, "[", "breakpoints", "[", "_x_x_x_x_bach_float64_x_x_x_x_", 0, 0, "_x_x_x_x_bach_float64_x_x_x_x_", 0, 0, "_x_x_x_x_bach_float64_x_x_x_x_", 0, 0, 1, "]", "[", "_x_x_x_x_bach_float64_x_x_x_x_", 1817901346, 1067324198, "_x_x_x_x_bach_float64_x_x_x_x_", 0, 1083871232, "_x_x_x_x_bach_float64_x_x_x_x_", 0, 0, 127, "]", "[", "_x_x_x_x_bach_float64_x_x_x_x_", 26790374, 1068129508, "_x_x_x_x_bach_float64_x_x_x_x_", 0, 1081262080, "_x_x_x_x_bach_float64_x_x_x_x_", 0, 0, 57, "]", "[", "_x_x_x_x_bach_float64_x_x_x_x_", 1611354530, 1069641674, "_x_x_x_x_bach_float64_x_x_x_x_", 0, 1084868608, "_x_x_x_x_bach_float64_x_x_x_x_", 0, 0, 124, "]", "[", "_x_x_x_x_bach_float64_x_x_x_x_", 762173118, 1070269657, "_x_x_x_x_bach_float64_x_x_x_x_", 0, 1082081280, "_x_x_x_x_bach_float64_x_x_x_x_", 858993454, 3218551603, 124, "]", "[", "_x_x_x_x_bach_float64_x_x_x_x_", 52322273, 1071193967, "_x_x_x_x_bach_float64_x_x_x_x_", 0, 1084612608, "_x_x_x_x_bach_float64_x_x_x_x_", 858993454, 3217503027, 93, "]", "[", "_x_x_x_x_bach_float64_x_x_x_x_", 3186626114, 1072350015, "_x_x_x_x_bach_float64_x_x_x_x_", 0, 1081262080, "_x_x_x_x_bach_float64_x_x_x_x_", 858993454, 3217503027, 127, "]", "[", "_x_x_x_x_bach_float64_x_x_x_x_", 4251587412, 1072489652, "_x_x_x_x_bach_float64_x_x_x_x_", 0, 1083768832, "_x_x_x_x_bach_float64_x_x_x_x_", 1963413621, 1072236368, 81, "]", "[", "_x_x_x_x_bach_float64_x_x_x_x_", 2366721966, 1072517072, "_x_x_x_x_bach_float64_x_x_x_x_", 0, 3228745728, "_x_x_x_x_bach_float64_x_x_x_x_", 3558687189, 1067720001, 2, "]", "[", "_x_x_x_x_bach_float64_x_x_x_x_", 3568127909, 1072557591, "_x_x_x_x_bach_float64_x_x_x_x_", 0, 1083768832, "_x_x_x_x_bach_float64_x_x_x_x_", 3558687189, 1067720001, 90, "]", "[", "_x_x_x_x_bach_float64_x_x_x_x_", 3333757419, 1072600737, "_x_x_x_x_bach_float64_x_x_x_x_", 0, 1081262080, "_x_x_x_x_bach_float64_x_x_x_x_", 3558687189, 1067720001, 1, "]", "[", "_x_x_x_x_bach_float64_x_x_x_x_", 0, 1072693248, "_x_x_x_x_bach_float64_x_x_x_x_", 0, 1085328384, "_x_x_x_x_bach_float64_x_x_x_x_", 981706813, 1071285160, 89, "]", "]", "[", "slots", "[", 1, "[", "_x_x_x_x_bach_float64_x_x_x_x_", 0, 0, "_x_x_x_x_bach_float64_x_x_x_x_", 0, 1071644672, "_x_x_x_x_bach_float64_x_x_x_x_", 0, 0, "]", "[", "_x_x_x_x_bach_float64_x_x_x_x_", 4037257819, 1068229252, "_x_x_x_x_bach_float64_x_x_x_x_", 769514974, 1073165107, "_x_x_x_x_bach_float64_x_x_x_x_", 0, 0, "]", "[", "_x_x_x_x_bach_float64_x_x_x_x_", 3721688572, 1068924382, "_x_x_x_x_bach_float64_x_x_x_x_", 2398023406, 1072273817, "_x_x_x_x_bach_float64_x_x_x_x_", 0, 0, "]", "[", "_x_x_x_x_bach_float64_x_x_x_x_", 2050243203, 1070800624, "_x_x_x_x_bach_float64_x_x_x_x_", 2576980416, 1073453465, "_x_x_x_x_bach_float64_x_x_x_x_", 0, 0, "]", "[", "_x_x_x_x_bach_float64_x_x_x_x_", 134655805, 1071078278, "_x_x_x_x_bach_float64_x_x_x_x_", 1022611326, 1072755663, "_x_x_x_x_bach_float64_x_x_x_x_", 0, 0, "]", "[", "_x_x_x_x_bach_float64_x_x_x_x_", 2240972686, 1071136122, "_x_x_x_x_bach_float64_x_x_x_x_", 1636178017, 1073579544, "_x_x_x_x_bach_float64_x_x_x_x_", 0, 0, "]", "[", "_x_x_x_x_bach_float64_x_x_x_x_", 2454210615, 1071198594, "_x_x_x_x_bach_float64_x_x_x_x_", 2249744774, 1072830561, "_x_x_x_x_bach_float64_x_x_x_x_", 0, 0, "]", "[", "_x_x_x_x_bach_float64_x_x_x_x_", 3034099318, 1071228673, "_x_x_x_x_bach_float64_x_x_x_x_", 1881604720, 1073489666, "_x_x_x_x_bach_float64_x_x_x_x_", 0, 0, "]", "[", "_x_x_x_x_bach_float64_x_x_x_x_", 3105178628, 1071249497, "_x_x_x_x_bach_float64_x_x_x_x_", 2781502629, 1072548444, "_x_x_x_x_bach_float64_x_x_x_x_", 0, 0, "]", "[", "_x_x_x_x_bach_float64_x_x_x_x_", 2667448544, 1071261066, "_x_x_x_x_bach_float64_x_x_x_x_", 654471206, 1072890480, "_x_x_x_x_bach_float64_x_x_x_x_", 0, 0, "]", "[", "_x_x_x_x_bach_float64_x_x_x_x_", 2229718462, 1071272635, "_x_x_x_x_bach_float64_x_x_x_x_", 2495171476, 1072740683, "_x_x_x_x_bach_float64_x_x_x_x_", 0, 0, "]", "[", "_x_x_x_x_bach_float64_x_x_x_x_", 1354258295, 1071295773, "_x_x_x_x_bach_float64_x_x_x_x_", 286331152, 1073549585, "_x_x_x_x_bach_float64_x_x_x_x_", 0, 0, "]", "[", "_x_x_x_x_bach_float64_x_x_x_x_", 3389495866, 1071332793, "_x_x_x_x_bach_float64_x_x_x_x_", 1268037963, 1073190073, "_x_x_x_x_bach_float64_x_x_x_x_", 0, 0, "]", "[", "_x_x_x_x_bach_float64_x_x_x_x_", 2076305617, 1071367500, "_x_x_x_x_bach_float64_x_x_x_x_", 1636178017, 1073579544, "_x_x_x_x_bach_float64_x_x_x_x_", 0, 0, "]", "[", "_x_x_x_x_bach_float64_x_x_x_x_", 538623216, 1071476248, "_x_x_x_x_bach_float64_x_x_x_x_", 2658789277, 1072069095, "_x_x_x_x_bach_float64_x_x_x_x_", 0, 0, "]", "[", "_x_x_x_x_bach_float64_x_x_x_x_", 4100288966, 1071541033, "_x_x_x_x_bach_float64_x_x_x_x_", 2617884828, 1073220032, "_x_x_x_x_bach_float64_x_x_x_x_", 0, 0, "]", "[", "_x_x_x_x_bach_float64_x_x_x_x_", 480636502, 1071712696, "_x_x_x_x_bach_float64_x_x_x_x_", 1539029946, 1072588390, "_x_x_x_x_bach_float64_x_x_x_x_", 0, 0, "]", "[", "_x_x_x_x_bach_float64_x_x_x_x_", 217104335, 1071780543, "_x_x_x_x_bach_float64_x_x_x_x_", 769514974, 1073427251, "_x_x_x_x_bach_float64_x_x_x_x_", 0, 0, "]", "[", "_x_x_x_x_bach_float64_x_x_x_x_", 2768645880, 1071979706, "_x_x_x_x_bach_float64_x_x_x_x_", 680036487, 1072116531, "_x_x_x_x_bach_float64_x_x_x_x_", 0, 0, "]", "[", "_x_x_x_x_bach_float64_x_x_x_x_", 1920163996, 1072340827, "_x_x_x_x_bach_float64_x_x_x_x_", 2487501892, 1072929177, "_x_x_x_x_bach_float64_x_x_x_x_", 0, 0, "]", "[", "_x_x_x_x_bach_float64_x_x_x_x_", 3562290329, 1072417428, "_x_x_x_x_bach_float64_x_x_x_x_", 4116010324, 1072693247, "_x_x_x_x_bach_float64_x_x_x_x_", 0, 0, "]", "[", "_x_x_x_x_bach_float64_x_x_x_x_", 631445852, 1072601272, "_x_x_x_x_bach_float64_x_x_x_x_", 4116010324, 1072693247, "_x_x_x_x_bach_float64_x_x_x_x_", 0, 0, "]", "[", "_x_x_x_x_bach_float64_x_x_x_x_", 2053454054, 1072627535, "_x_x_x_x_bach_float64_x_x_x_x_", 2487501892, 1073453465, "_x_x_x_x_bach_float64_x_x_x_x_", 0, 0, "]", "[", "_x_x_x_x_bach_float64_x_x_x_x_", 1320742935, 1072673496, "_x_x_x_x_bach_float64_x_x_x_x_", 4205488810, 1073086463, "_x_x_x_x_bach_float64_x_x_x_x_", 0, 0, "]", "]", "[", 2, "[", "_x_x_x_x_bach_float64_x_x_x_x_", 1595225401, 1063577594, "_x_x_x_x_bach_float64_x_x_x_x_", 858993460, 1078997811, "_x_x_x_x_bach_float64_x_x_x_x_", 0, 0, "]", "[", "_x_x_x_x_bach_float64_x_x_x_x_", 2969547472, 1069060901, "_x_x_x_x_bach_float64_x_x_x_x_", 1, 1079214080, "_x_x_x_x_bach_float64_x_x_x_x_", 0, 0, "]", "[", "_x_x_x_x_bach_float64_x_x_x_x_", 1875148660, 1069291448, "_x_x_x_x_bach_float64_x_x_x_x_", 858993459, 1078326067, "_x_x_x_x_bach_float64_x_x_x_x_", 0, 0, "]", "[", "_x_x_x_x_bach_float64_x_x_x_x_", 1160172291, 1069584492, "_x_x_x_x_bach_float64_x_x_x_x_", 981706810, 1078346664, "_x_x_x_x_bach_float64_x_x_x_x_", 0, 0, "]", "[", "_x_x_x_x_bach_float64_x_x_x_x_", 284712124, 1069607630, "_x_x_x_x_bach_float64_x_x_x_x_", 1104420161, 1079129117, "_x_x_x_x_bach_float64_x_x_x_x_", 0, 0, "]", "[", "_x_x_x_x_bach_float64_x_x_x_x_", 935680137, 1069658533, "_x_x_x_x_bach_float64_x_x_x_x_", 1349846864, 1079530759, "_x_x_x_x_bach_float64_x_x_x_x_", 0, 0, "]", "[", "_x_x_x_x_bach_float64_x_x_x_x_", 2462108316, 1069686298, "_x_x_x_x_bach_float64_x_x_x_x_", 368140052, 1078964575, "_x_x_x_x_bach_float64_x_x_x_x_", 0, 0, "]", "[", "_x_x_x_x_bach_float64_x_x_x_x_", 1219997377, 1069741829, "_x_x_x_x_bach_float64_x_x_x_x_", 2454267026, 1078593828, "_x_x_x_x_bach_float64_x_x_x_x_", 0, 0, "]", "[", "_x_x_x_x_bach_float64_x_x_x_x_", 96118232, 1069822941, "_x_x_x_x_bach_float64_x_x_x_x_", 0, 1079574528, "_x_x_x_x_bach_float64_x_x_x_x_", 0, 0, "]", "[", "_x_x_x_x_bach_float64_x_x_x_x_", 2664092021, 1069885283, "_x_x_x_x_bach_float64_x_x_x_x_", 2699693729, 1079036430, "_x_x_x_x_bach_float64_x_x_x_x_", 0, 0, "]", "[", "_x_x_x_x_bach_float64_x_x_x_x_", 404362296, 1069922304, "_x_x_x_x_bach_float64_x_x_x_x_", 981706810, 1079468968, "_x_x_x_x_bach_float64_x_x_x_x_", 0, 0, "]", "[", "_x_x_x_x_bach_float64_x_x_x_x_", 2072949095, 1069991717, "_x_x_x_x_bach_float64_x_x_x_x_", 3067833781, 1077975917, "_x_x_x_x_bach_float64_x_x_x_x_", 0, 0, "]", "[", "_x_x_x_x_bach_float64_x_x_x_x_", 4108186665, 1070028737, "_x_x_x_x_bach_float64_x_x_x_x_", 1472560215, 1079190908, "_x_x_x_x_bach_float64_x_x_x_x_", 0, 0, "]", "[", "_x_x_x_x_bach_float64_x_x_x_x_", 1990615560, 1070107406, "_x_x_x_x_bach_float64_x_x_x_x_", 2086126971, 1078532037, "_x_x_x_x_bach_float64_x_x_x_x_", 0, 0, "]", "[", "_x_x_x_x_bach_float64_x_x_x_x_", 2132774181, 1070149054, "_x_x_x_x_bach_float64_x_x_x_x_", 1472560215, 1079190908, "_x_x_x_x_bach_float64_x_x_x_x_", 0, 0, "]", "[", "_x_x_x_x_bach_float64_x_x_x_x_", 4200535350, 1070601447, "_x_x_x_x_bach_float64_x_x_x_x_", 730038393, 1078350627, "_x_x_x_x_bach_float64_x_x_x_x_", 0, 0, "]", "[", "_x_x_x_x_bach_float64_x_x_x_x_", 234393583, 1070826231, "_x_x_x_x_bach_float64_x_x_x_x_", 858993460, 1078997811, "_x_x_x_x_bach_float64_x_x_x_x_", 0, 0, "]", "[", "_x_x_x_x_bach_float64_x_x_x_x_", 3713199053, 1071246978, "_x_x_x_x_bach_float64_x_x_x_x_", 3435973838, 1078037708, "_x_x_x_x_bach_float64_x_x_x_x_", 0, 0, "]", "[", "_x_x_x_x_bach_float64_x_x_x_x_", 4067318854, 1071489052, "_x_x_x_x_bach_float64_x_x_x_x_", 858993461, 1079493427, "_x_x_x_x_bach_float64_x_x_x_x_", 0, 0, "]", "[", "_x_x_x_x_bach_float64_x_x_x_x_", 1065731972, 1071883864, "_x_x_x_x_bach_float64_x_x_x_x_", 858993460, 1078997811, "_x_x_x_x_bach_float64_x_x_x_x_", 0, 0, "]", "[", "_x_x_x_x_bach_float64_x_x_x_x_", 3208882141, 1072080382, "_x_x_x_x_bach_float64_x_x_x_x_", 2484705690, 1079331225, "_x_x_x_x_bach_float64_x_x_x_x_", 0, 0, "]", "[", "_x_x_x_x_bach_float64_x_x_x_x_", 3854765187, 1072270791, "_x_x_x_x_bach_float64_x_x_x_x_", 2484705690, 1079331225, "_x_x_x_x_bach_float64_x_x_x_x_", 0, 0, "]", "[", "_x_x_x_x_bach_float64_x_x_x_x_", 3858219543, 1072324784, "_x_x_x_x_bach_float64_x_x_x_x_", 1717986919, 1079457382, "_x_x_x_x_bach_float64_x_x_x_x_", 0, 0, "]", "[", "_x_x_x_x_bach_float64_x_x_x_x_", 4280530102, 1072410862, "_x_x_x_x_bach_float64_x_x_x_x_", 2392431001, 1078704537, "_x_x_x_x_bach_float64_x_x_x_x_", 0, 0, "]", "[", "_x_x_x_x_bach_float64_x_x_x_x_", 2123923576, 1072431107, "_x_x_x_x_bach_float64_x_x_x_x_", 979789407, 1076651622, "_x_x_x_x_bach_float64_x_x_x_x_", 0, 0, "]", "[", "_x_x_x_x_bach_float64_x_x_x_x_", 3953978084, 1072485621, "_x_x_x_x_bach_float64_x_x_x_x_", 3677565730, 1074869042, "_x_x_x_x_bach_float64_x_x_x_x_", 0, 0, "]", "[", "_x_x_x_x_bach_float64_x_x_x_x_", 411327722, 1072550934, "_x_x_x_x_bach_float64_x_x_x_x_", 3251424461, 1078758604, "_x_x_x_x_bach_float64_x_x_x_x_", 0, 0, "]", "[", "_x_x_x_x_bach_float64_x_x_x_x_", 1100624804, 1072623158, "_x_x_x_x_bach_float64_x_x_x_x_", 489894704, 1077310259, "_x_x_x_x_bach_float64_x_x_x_x_", 0, 0, "]", "[", "_x_x_x_x_bach_float64_x_x_x_x_", 0, 1072693248, "_x_x_x_x_bach_float64_x_x_x_x_", 0, 1079574528, "_x_x_x_x_bach_float64_x_x_x_x_", 0, 0, "]", "]", "[", 3, "[", "_x_x_x_x_bach_float64_x_x_x_x_", 1190517046, 1066446666, "_x_x_x_x_bach_float64_x_x_x_x_", 1112639375, 3226335994, "_x_x_x_x_bach_float64_x_x_x_x_", 0, 0, "]", "[", "_x_x_x_x_bach_float64_x_x_x_x_", 3171901644, 1069199229, "_x_x_x_x_bach_float64_x_x_x_x_", 212212692, 3224719428, "_x_x_x_x_bach_float64_x_x_x_x_", 0, 0, "]", "[", "_x_x_x_x_bach_float64_x_x_x_x_", 1645813931, 1069903632, "_x_x_x_x_bach_float64_x_x_x_x_", 771476217, 3226276832, "_x_x_x_x_bach_float64_x_x_x_x_", 0, 0, "]", "[", "_x_x_x_x_bach_float64_x_x_x_x_", 3650806518, 1070295561, "_x_x_x_x_bach_float64_x_x_x_x_", 1053407237, 3225604489, "_x_x_x_x_bach_float64_x_x_x_x_", 0, 0, "]", "[", "_x_x_x_x_bach_float64_x_x_x_x_", 209099312, 1070808940, "_x_x_x_x_bach_float64_x_x_x_x_", 1477706880, 3226331109, "_x_x_x_x_bach_float64_x_x_x_x_", 0, 0, "]", "[", "_x_x_x_x_bach_float64_x_x_x_x_", 1733500739, 1070872340, "_x_x_x_x_bach_float64_x_x_x_x_", 1919991912, 3226057817, "_x_x_x_x_bach_float64_x_x_x_x_", 0, 0, "]", "[", "_x_x_x_x_bach_float64_x_x_x_x_", 2261307870, 1071722481, "_x_x_x_x_bach_float64_x_x_x_x_", 2883991936, 3222806585, "_x_x_x_x_bach_float64_x_x_x_x_", 0, 0, "]", "[", "_x_x_x_x_bach_float64_x_x_x_x_", 1827932686, 1071915564, "_x_x_x_x_bach_float64_x_x_x_x_", 490709947, 3226336708, "_x_x_x_x_bach_float64_x_x_x_x_", 0, 0, "]", "[", "_x_x_x_x_bach_float64_x_x_x_x_", 2767193300, 1072068301, "_x_x_x_x_bach_float64_x_x_x_x_", 182902209, 3226317301, "_x_x_x_x_bach_float64_x_x_x_x_", 0, 0, "]", "[", "_x_x_x_x_bach_float64_x_x_x_x_", 4009985172, 1072428530, "_x_x_x_x_bach_float64_x_x_x_x_", 4186111208, 3225127967, "_x_x_x_x_bach_float64_x_x_x_x_", 0, 0, "]", "[", "_x_x_x_x_bach_float64_x_x_x_x_", 1976325746, 1072506340, "_x_x_x_x_bach_float64_x_x_x_x_", 1367054230, 3226327049, "_x_x_x_x_bach_float64_x_x_x_x_", 0, 0, "]", "]", "[", 23, "whiterhombus", "]", "]", 0, "]", 0, "]", 0, "]" ],
					"whole_roll_data_count" : [ 1 ],
					"zoom" : 24.0
				}

			}
, 			{
				"box" : 				{
					"id" : "obj-8",
					"linecount" : 4,
					"maxclass" : "comment",
					"numinlets" : 1,
					"numoutlets" : 0,
					"patching_rect" : [ 29.0, 215.0, 150.0, 60.0 ],
					"text" : "To change velocity: select a breakpoiint, hit CTRL-CLICK to change velocity"
				}

			}
, 			{
				"box" : 				{
					"fontsize" : 24.0,
					"id" : "obj-2",
					"maxclass" : "comment",
					"numinlets" : 1,
					"numoutlets" : 0,
					"patching_rect" : [ 8.0, 13.0, 239.0, 33.0 ],
					"presentation" : 1,
					"presentation_rect" : [ 8.0, 13.0, 239.0, 33.0 ],
					"text" : "Subtractive Synthesis"
				}

			}
 ],
		"lines" : [ 			{
				"patchline" : 				{
					"destination" : [ "obj-127", 0 ],
					"source" : [ "obj-1", 0 ]
				}

			}
, 			{
				"patchline" : 				{
					"destination" : [ "obj-22", 0 ],
					"source" : [ "obj-10", 6 ]
				}

			}
, 			{
				"patchline" : 				{
					"destination" : [ "obj-56", 0 ],
					"source" : [ "obj-10", 0 ]
				}

			}
, 			{
				"patchline" : 				{
					"destination" : [ "obj-112", 0 ],
					"source" : [ "obj-105", 0 ]
				}

			}
, 			{
				"patchline" : 				{
					"destination" : [ "obj-83", 0 ],
					"source" : [ "obj-11", 0 ]
				}

			}
, 			{
				"patchline" : 				{
					"destination" : [ "obj-118", 1 ],
					"order" : 0,
					"source" : [ "obj-112", 0 ]
				}

			}
, 			{
				"patchline" : 				{
					"destination" : [ "obj-57", 0 ],
					"order" : 1,
					"source" : [ "obj-112", 0 ]
				}

			}
, 			{
				"patchline" : 				{
					"destination" : [ "obj-10", 0 ],
					"source" : [ "obj-12", 0 ]
				}

			}
, 			{
				"patchline" : 				{
					"destination" : [ "obj-57", 0 ],
					"source" : [ "obj-121", 0 ]
				}

			}
, 			{
				"patchline" : 				{
					"destination" : [ "obj-58", 0 ],
					"source" : [ "obj-123", 0 ]
				}

			}
, 			{
				"patchline" : 				{
					"destination" : [ "obj-131", 0 ],
					"source" : [ "obj-127", 0 ]
				}

			}
, 			{
				"patchline" : 				{
					"destination" : [ "obj-142", 0 ],
					"source" : [ "obj-13", 0 ]
				}

			}
, 			{
				"patchline" : 				{
					"destination" : [ "obj-123", 0 ],
					"source" : [ "obj-131", 0 ]
				}

			}
, 			{
				"patchline" : 				{
					"destination" : [ "obj-147", 1 ],
					"order" : 1,
					"source" : [ "obj-133", 1 ]
				}

			}
, 			{
				"patchline" : 				{
					"destination" : [ "obj-147", 0 ],
					"order" : 1,
					"source" : [ "obj-133", 0 ]
				}

			}
, 			{
				"patchline" : 				{
					"destination" : [ "obj-3", 1 ],
					"midpoints" : [ 601.333333373069536, 1068.0, 763.037881225347292, 1068.0, 763.037881225347292, 1224.0, 727.894329667091142, 1224.0 ],
					"order" : 0,
					"source" : [ "obj-133", 1 ]
				}

			}
, 			{
				"patchline" : 				{
					"destination" : [ "obj-3", 0 ],
					"midpoints" : [ 523.083333373069536, 1068.0, 654.583333373069536, 1068.0, 654.583333373069536, 1224.0, 677.894329667091142, 1224.0 ],
					"order" : 0,
					"source" : [ "obj-133", 0 ]
				}

			}
, 			{
				"patchline" : 				{
					"destination" : [ "obj-196", 1 ],
					"order" : 0,
					"source" : [ "obj-138", 0 ]
				}

			}
, 			{
				"patchline" : 				{
					"destination" : [ "obj-57", 0 ],
					"order" : 1,
					"source" : [ "obj-138", 0 ]
				}

			}
, 			{
				"patchline" : 				{
					"destination" : [ "obj-3", 0 ],
					"source" : [ "obj-14", 0 ]
				}

			}
, 			{
				"patchline" : 				{
					"destination" : [ "obj-5", 0 ],
					"source" : [ "obj-142", 0 ]
				}

			}
, 			{
				"patchline" : 				{
					"destination" : [ "obj-197", 1 ],
					"order" : 0,
					"source" : [ "obj-146", 0 ]
				}

			}
, 			{
				"patchline" : 				{
					"destination" : [ "obj-57", 0 ],
					"order" : 1,
					"source" : [ "obj-146", 0 ]
				}

			}
, 			{
				"patchline" : 				{
					"destination" : [ "obj-153", 0 ],
					"source" : [ "obj-149", 0 ]
				}

			}
, 			{
				"patchline" : 				{
					"destination" : [ "obj-105", 0 ],
					"source" : [ "obj-15", 0 ]
				}

			}
, 			{
				"patchline" : 				{
					"destination" : [ "obj-154", 0 ],
					"source" : [ "obj-153", 0 ]
				}

			}
, 			{
				"patchline" : 				{
					"destination" : [ "obj-155", 1 ],
					"source" : [ "obj-154", 0 ]
				}

			}
, 			{
				"patchline" : 				{
					"destination" : [ "obj-16", 0 ],
					"order" : 2,
					"source" : [ "obj-155", 0 ]
				}

			}
, 			{
				"patchline" : 				{
					"destination" : [ "obj-160", 1 ],
					"order" : 0,
					"source" : [ "obj-155", 0 ]
				}

			}
, 			{
				"patchline" : 				{
					"destination" : [ "obj-160", 0 ],
					"order" : 3,
					"source" : [ "obj-155", 0 ]
				}

			}
, 			{
				"patchline" : 				{
					"destination" : [ "obj-172", 0 ],
					"midpoints" : [ 507.5, 870.0, 6.0, 870.0, 6.0, 961.0, 30.0, 961.0 ],
					"order" : 1,
					"source" : [ "obj-155", 0 ]
				}

			}
, 			{
				"patchline" : 				{
					"destination" : [ "obj-140", 0 ],
					"source" : [ "obj-16", 0 ]
				}

			}
, 			{
				"patchline" : 				{
					"destination" : [ "obj-133", 1 ],
					"source" : [ "obj-160", 1 ]
				}

			}
, 			{
				"patchline" : 				{
					"destination" : [ "obj-133", 0 ],
					"source" : [ "obj-160", 0 ]
				}

			}
, 			{
				"patchline" : 				{
					"destination" : [ "obj-10", 0 ],
					"source" : [ "obj-165", 0 ]
				}

			}
, 			{
				"patchline" : 				{
					"destination" : [ "obj-165", 0 ],
					"source" : [ "obj-169", 0 ]
				}

			}
, 			{
				"patchline" : 				{
					"destination" : [ "obj-19", 0 ],
					"source" : [ "obj-18", 0 ]
				}

			}
, 			{
				"patchline" : 				{
					"destination" : [ "obj-10", 0 ],
					"order" : 1,
					"source" : [ "obj-183", 0 ]
				}

			}
, 			{
				"patchline" : 				{
					"destination" : [ "obj-190", 0 ],
					"midpoints" : [ 330.5, 152.0, 1409.0, 152.0, 1409.0, 429.0, 1273.0, 429.0, 1273.5, 452.0 ],
					"order" : 0,
					"source" : [ "obj-183", 0 ]
				}

			}
, 			{
				"patchline" : 				{
					"destination" : [ "obj-17", 0 ],
					"source" : [ "obj-19", 0 ]
				}

			}
, 			{
				"patchline" : 				{
					"destination" : [ "obj-153", 0 ],
					"source" : [ "obj-190", 0 ]
				}

			}
, 			{
				"patchline" : 				{
					"destination" : [ "obj-6", 0 ],
					"source" : [ "obj-21", 0 ]
				}

			}
, 			{
				"patchline" : 				{
					"destination" : [ "obj-11", 1 ],
					"source" : [ "obj-22", 4 ]
				}

			}
, 			{
				"patchline" : 				{
					"destination" : [ "obj-11", 0 ],
					"order" : 1,
					"source" : [ "obj-22", 2 ]
				}

			}
, 			{
				"patchline" : 				{
					"destination" : [ "obj-13", 1 ],
					"source" : [ "obj-22", 5 ]
				}

			}
, 			{
				"patchline" : 				{
					"destination" : [ "obj-13", 0 ],
					"order" : 0,
					"source" : [ "obj-22", 2 ]
				}

			}
, 			{
				"patchline" : 				{
					"destination" : [ "obj-149", 0 ],
					"source" : [ "obj-22", 6 ]
				}

			}
, 			{
				"patchline" : 				{
					"destination" : [ "obj-23", 3 ],
					"source" : [ "obj-22", 3 ]
				}

			}
, 			{
				"patchline" : 				{
					"destination" : [ "obj-23", 2 ],
					"order" : 2,
					"source" : [ "obj-22", 2 ]
				}

			}
, 			{
				"patchline" : 				{
					"destination" : [ "obj-23", 1 ],
					"source" : [ "obj-22", 1 ]
				}

			}
, 			{
				"patchline" : 				{
					"destination" : [ "obj-23", 0 ],
					"source" : [ "obj-22", 0 ]
				}

			}
, 			{
				"patchline" : 				{
					"destination" : [ "obj-24", 0 ],
					"source" : [ "obj-23", 0 ]
				}

			}
, 			{
				"patchline" : 				{
					"destination" : [ "obj-53", 0 ],
					"source" : [ "obj-23", 1 ]
				}

			}
, 			{
				"patchline" : 				{
					"destination" : [ "obj-25", 0 ],
					"source" : [ "obj-24", 0 ]
				}

			}
, 			{
				"patchline" : 				{
					"destination" : [ "obj-26", 0 ],
					"source" : [ "obj-25", 0 ]
				}

			}
, 			{
				"patchline" : 				{
					"destination" : [ "obj-15", 0 ],
					"source" : [ "obj-26", 0 ]
				}

			}
, 			{
				"patchline" : 				{
					"destination" : [ "obj-30", 0 ],
					"source" : [ "obj-28", 0 ]
				}

			}
, 			{
				"patchline" : 				{
					"destination" : [ "obj-18", 0 ],
					"source" : [ "obj-3", 0 ]
				}

			}
, 			{
				"patchline" : 				{
					"destination" : [ "obj-14", 0 ],
					"source" : [ "obj-30", 0 ]
				}

			}
, 			{
				"patchline" : 				{
					"destination" : [ "obj-105", 1 ],
					"source" : [ "obj-4", 0 ]
				}

			}
, 			{
				"patchline" : 				{
					"destination" : [ "obj-146", 0 ],
					"source" : [ "obj-5", 0 ]
				}

			}
, 			{
				"patchline" : 				{
					"destination" : [ "obj-52", 0 ],
					"source" : [ "obj-50", 0 ]
				}

			}
, 			{
				"patchline" : 				{
					"destination" : [ "obj-10", 0 ],
					"source" : [ "obj-52", 0 ]
				}

			}
, 			{
				"patchline" : 				{
					"destination" : [ "obj-54", 0 ],
					"source" : [ "obj-53", 0 ]
				}

			}
, 			{
				"patchline" : 				{
					"destination" : [ "obj-55", 0 ],
					"source" : [ "obj-54", 0 ]
				}

			}
, 			{
				"patchline" : 				{
					"destination" : [ "obj-58", 1 ],
					"order" : 1,
					"source" : [ "obj-55", 0 ]
				}

			}
, 			{
				"patchline" : 				{
					"destination" : [ "obj-7", 0 ],
					"order" : 0,
					"source" : [ "obj-55", 0 ]
				}

			}
, 			{
				"patchline" : 				{
					"destination" : [ "obj-10", 0 ],
					"midpoints" : [ 286.5, 466.0, 254.0, 466.0, 254.0, 142.0, 286.5, 142.0 ],
					"source" : [ "obj-56", 0 ]
				}

			}
, 			{
				"patchline" : 				{
					"destination" : [ "obj-123", 7 ],
					"source" : [ "obj-57", 7 ]
				}

			}
, 			{
				"patchline" : 				{
					"destination" : [ "obj-123", 6 ],
					"source" : [ "obj-57", 6 ]
				}

			}
, 			{
				"patchline" : 				{
					"destination" : [ "obj-123", 5 ],
					"source" : [ "obj-57", 5 ]
				}

			}
, 			{
				"patchline" : 				{
					"destination" : [ "obj-123", 4 ],
					"source" : [ "obj-57", 4 ]
				}

			}
, 			{
				"patchline" : 				{
					"destination" : [ "obj-123", 3 ],
					"source" : [ "obj-57", 3 ]
				}

			}
, 			{
				"patchline" : 				{
					"destination" : [ "obj-123", 2 ],
					"source" : [ "obj-57", 2 ]
				}

			}
, 			{
				"patchline" : 				{
					"destination" : [ "obj-123", 1 ],
					"source" : [ "obj-57", 1 ]
				}

			}
, 			{
				"patchline" : 				{
					"destination" : [ "obj-123", 0 ],
					"source" : [ "obj-57", 0 ]
				}

			}
, 			{
				"patchline" : 				{
					"destination" : [ "obj-155", 0 ],
					"source" : [ "obj-58", 0 ]
				}

			}
, 			{
				"patchline" : 				{
					"destination" : [ "obj-3", 0 ],
					"source" : [ "obj-6", 0 ]
				}

			}
, 			{
				"patchline" : 				{
					"destination" : [ "obj-10", 0 ],
					"source" : [ "obj-61", 0 ]
				}

			}
, 			{
				"patchline" : 				{
					"destination" : [ "obj-138", 0 ],
					"source" : [ "obj-7", 0 ]
				}

			}
, 			{
				"patchline" : 				{
					"destination" : [ "obj-72", 0 ],
					"midpoints" : [ 588.5, 150.0, 264.0, 150.0, 264.0, 369.0, 309.5, 369.0 ],
					"source" : [ "obj-70", 0 ]
				}

			}
, 			{
				"patchline" : 				{
					"destination" : [ "obj-56", 0 ],
					"source" : [ "obj-72", 0 ]
				}

			}
, 			{
				"patchline" : 				{
					"destination" : [ "obj-4", 0 ],
					"source" : [ "obj-83", 0 ]
				}

			}
 ],
		"parameters" : 		{
			"obj-133" : [ "Main Output Volume", "Main Output Volume", 0 ],
			"obj-160::obj-23" : [ "bypass", "bypass", 0 ],
			"obj-160::obj-28" : [ "Size", "Size", 0 ],
			"obj-160::obj-3" : [ "Regen", "Regen", 0 ],
			"obj-160::obj-60" : [ "Damp", "Damp", 0 ],
			"obj-160::obj-62" : [ "Dry", "Dry", 0 ],
			"obj-160::obj-63" : [ "Early", "Early", 0 ],
			"obj-160::obj-64" : [ "Tail", "Tail", 0 ],
			"obj-160::obj-65" : [ "Spread", "Spread", 0 ],
			"obj-160::obj-66" : [ "Time", "Time", 0 ],
			"parameterbanks" : 			{

			}
,
			"inherited_shortname" : 1
		}
,
		"dependency_cache" : [ 			{
				"name" : "bach.+.maxpat",
				"bootpath" : "~/Documents/Max 8/Packages/bach/patchers",
				"patcherrelativepath" : "../../Documents/Max 8/Packages/bach/patchers",
				"type" : "JSON",
				"implicit" : 1
			}
, 			{
				"name" : "bach.args.mxo",
				"type" : "iLaX"
			}
, 			{
				"name" : "bach.collect.mxo",
				"type" : "iLaX"
			}
, 			{
				"name" : "bach.dl2curve.maxpat",
				"bootpath" : "~/Documents/Max 8/Packages/bach/patchers",
				"patcherrelativepath" : "../../Documents/Max 8/Packages/bach/patchers",
				"type" : "JSON",
				"implicit" : 1
			}
, 			{
				"name" : "bach.eq.mxo",
				"type" : "iLaX"
			}
, 			{
				"name" : "bach.expr.mxo",
				"type" : "iLaX"
			}
, 			{
				"name" : "bach.filternull.maxpat",
				"bootpath" : "~/Documents/Max 8/Packages/bach/patchers",
				"patcherrelativepath" : "../../Documents/Max 8/Packages/bach/patchers",
				"type" : "JSON",
				"implicit" : 1
			}
, 			{
				"name" : "bach.flat.mxo",
				"type" : "iLaX"
			}
, 			{
				"name" : "bach.gt.mxo",
				"type" : "iLaX"
			}
, 			{
				"name" : "bach.iter.mxo",
				"type" : "iLaX"
			}
, 			{
				"name" : "bach.join.mxo",
				"type" : "iLaX"
			}
, 			{
				"name" : "bach.keys.mxo",
				"type" : "iLaX"
			}
, 			{
				"name" : "bach.lace.mxo",
				"type" : "iLaX"
			}
, 			{
				"name" : "bach.length.mxo",
				"type" : "iLaX"
			}
, 			{
				"name" : "bach.pick.mxo",
				"type" : "iLaX"
			}
, 			{
				"name" : "bach.playkeys.mxo",
				"type" : "iLaX"
			}
, 			{
				"name" : "bach.portal.mxo",
				"type" : "iLaX"
			}
, 			{
				"name" : "bach.reg.mxo",
				"type" : "iLaX"
			}
, 			{
				"name" : "bach.roll.mxo",
				"type" : "iLaX"
			}
, 			{
				"name" : "bach.slice.mxo",
				"type" : "iLaX"
			}
, 			{
				"name" : "bach.slot2curve.maxpat",
				"bootpath" : "~/Documents/Max 8/Packages/bach/patchers",
				"patcherrelativepath" : "../../Documents/Max 8/Packages/bach/patchers",
				"type" : "JSON",
				"implicit" : 1
			}
, 			{
				"name" : "bach.times.maxpat",
				"bootpath" : "~/Documents/Max 8/Packages/bach/patchers",
				"patcherrelativepath" : "../../Documents/Max 8/Packages/bach/patchers",
				"type" : "JSON",
				"implicit" : 1
			}
, 			{
				"name" : "bach.trans.mxo",
				"type" : "iLaX"
			}
, 			{
				"name" : "bach.x2dx.maxpat",
				"bootpath" : "~/Documents/Max 8/Packages/bach/patchers",
				"patcherrelativepath" : "../../Documents/Max 8/Packages/bach/patchers",
				"type" : "JSON",
				"implicit" : 1
			}
, 			{
				"name" : "bp.Gigaverb.maxpat",
				"bootpath" : "C74:/packages/BEAP/clippings/BEAP/Effects",
				"type" : "JSON",
				"implicit" : 1
			}
, 			{
				"name" : "cherokee.aif",
				"bootpath" : "C74:/media/msp",
				"type" : "AIFF",
				"implicit" : 1
			}
 ],
		"autosave" : 0
	}

}
