{
	"patcher" : 	{
		"fileversion" : 1,
		"appversion" : 		{
			"major" : 8,
			"minor" : 3,
			"revision" : 0,
			"architecture" : "x64",
			"modernui" : 1
		}
,
		"classnamespace" : "box",
		"rect" : [ 313.0, 193.0, 1639.0, 1081.0 ],
		"bglocked" : 0,
		"openinpresentation" : 1,
		"default_fontsize" : 12.0,
		"default_fontface" : 0,
		"default_fontname" : "Arial",
		"gridonopen" : 1,
		"gridsize" : [ 15.0, 15.0 ],
		"gridsnaponopen" : 1,
		"objectsnaponopen" : 1,
		"statusbarvisible" : 2,
		"toolbarvisible" : 1,
		"lefttoolbarpinned" : 0,
		"toptoolbarpinned" : 0,
		"righttoolbarpinned" : 0,
		"bottomtoolbarpinned" : 0,
		"toolbars_unpinned_last_save" : 0,
		"tallnewobj" : 0,
		"boxanimatetime" : 200,
		"enablehscroll" : 1,
		"enablevscroll" : 1,
		"devicewidth" : 0.0,
		"description" : "",
		"digest" : "",
		"tags" : "",
		"style" : "",
		"subpatcher_template" : "",
		"assistshowspatchername" : 0,
		"boxes" : [ 			{
				"box" : 				{
					"fontsize" : 24.0,
					"id" : "obj-60",
					"linecount" : 2,
					"maxclass" : "comment",
					"numinlets" : 1,
					"numoutlets" : 0,
					"patching_rect" : [ 814.0, 78.0, 210.0, 60.0 ],
					"text" : "Redo slots to use decibels?"
				}

			}
, 			{
				"box" : 				{
					"channels" : 8,
					"id" : "obj-4",
					"lastchannelcount" : 8,
					"maxclass" : "mc.live.gain~",
					"numinlets" : 1,
					"numoutlets" : 4,
					"orientation" : 1,
					"outlettype" : [ "multichannelsignal", "", "float", "list" ],
					"parameter_enable" : 1,
					"patching_rect" : [ 910.095241592043749, 673.833331227302551, 404.0, 83.0 ],
					"saved_attribute_attributes" : 					{
						"valueof" : 						{
							"parameter_longname" : "mc.live.gain~[1]",
							"parameter_mmax" : 6.0,
							"parameter_mmin" : -70.0,
							"parameter_shortname" : "mc.live.gain~",
							"parameter_type" : 0,
							"parameter_unitstyle" : 4
						}

					}
,
					"varname" : "mc.live.gain~[1]"
				}

			}
, 			{
				"box" : 				{
					"id" : "obj-5",
					"linecount" : 4,
					"maxclass" : "message",
					"numinlets" : 2,
					"numoutlets" : 1,
					"outlettype" : [ "" ],
					"patching_rect" : [ 642.119051115853381, 556.833331227302551, 142.0, 62.0 ],
					"text" : "applyvalues 1. 0.096825 1. 0.439683 0.077778 0.173016 0.992063 0.896825"
				}

			}
, 			{
				"box" : 				{
					"id" : "obj-1",
					"linecount" : 14,
					"maxclass" : "comment",
					"numinlets" : 1,
					"numoutlets" : 0,
					"patching_rect" : [ 1625.333333492279053, 15.0, 440.5, 194.0 ],
					"text" : "Copyright (C) 2022 Paul V. Miller\nVersion 0.5\n\nThis program is free software: you can redistribute it and/or modify\nit under the terms of the GNU General Public License as published by\nthe Free Software Foundation, either version 3 of the License, or\n(at your option) any later version.\n\nThis program is distributed in the hope that it will be useful,\nbut WITHOUT ANY WARRANTY; without even the implied warranty of\nMERCHANTABILITY or FITNESS FOR A PARTICULAR PURPOSE.  See the\nGNU General Public License for more details.\n\nFor further information, please visit https://www.gnu.org/licenses/."
				}

			}
, 			{
				"box" : 				{
					"id" : "obj-61",
					"maxclass" : "comment",
					"numinlets" : 1,
					"numoutlets" : 0,
					"patching_rect" : [ 857.0, 753.0, 96.0, 20.0 ],
					"text" : "global amplitude"
				}

			}
, 			{
				"box" : 				{
					"id" : "obj-59",
					"linecount" : 4,
					"maxclass" : "comment",
					"numinlets" : 1,
					"numoutlets" : 0,
					"patching_rect" : [ 749.0, 483.333336472511292, 150.0, 60.0 ],
					"text" : "via applyvalues message, controls amplitudes of the 8 sine tones in the mc wrapper"
				}

			}
, 			{
				"box" : 				{
					"id" : "obj-55",
					"maxclass" : "comment",
					"numinlets" : 1,
					"numoutlets" : 0,
					"patching_rect" : [ 1500.000004053115845, 533.333336472511292, 93.0, 20.0 ],
					"text" : "global envelope"
				}

			}
, 			{
				"box" : 				{
					"id" : "obj-75",
					"linecount" : 45,
					"maxclass" : "comment",
					"numinlets" : 1,
					"numoutlets" : 0,
					"patching_rect" : [ 1998.333333492279053, 252.833336472511292, 367.0, 610.0 ],
					"presentation" : 1,
					"presentation_linecount" : 39,
					"presentation_rect" : [ 271.0, 475.0, 500.0, 529.0 ],
					"text" : "How to edit bach.roll\n\n1. Keep the patch locked.\n\n2. Always start with the Main Output Volume low. With this kind of synthesis, it's possible to damage your speakers or hearing. While this is unlikely (given the way I've patched things together) don't take any chances.\n\n3. You can select the notehead by clicking on it. Then, the arrow keys can move it up and down.\n\n4. You can click on any of the breakpoints on the BLACK duration line. Then you can move them up and down. This will cause a glissando in the frequency of the lowest sine wave.\n\n5. With a breakpoint selected, hold down CTRL (max) and then move the mouse up and down to change the velocity of that breakpoint. This alters the overall volume of the sound.\n\n6. To make a new breakpoint, hold down OPTION (mac) and click on the black line. To delete a breakpoint, select it and hit delete.\n\n7. To edit the slots (the red and blue lines, also known as \"automation\",) select the notehead and press the number keys 1 through 9. This will open up the slot windows. You can create automation in much the same way as you edited the black duration line. The slots will be saved with all the other information. To close the slot editor, just single-click on bach.roll OUTSIDE of the slot editor.\n\n8. The first slot controls harmonicity. Harmonicity is the way the sine waves are spaced (1 = in the harmonic series).\n\n9. You can save and recall an entire bach.roll in much the same way as we have done before in earlier patches.\n\n10. Once you settle on some shapes for the duration line and the two slots, you can add reverberation using the Gigaverb module. Hit \"bypass\" to bypass it. You probably want to keep your Time setting to about 10 seconds or less. Again, be careful to keep your gain low when experimenting with this.\n\n11. Once you like what you have, you can record your sound using the built-in recording device underneath the Main Output Volume."
				}

			}
, 			{
				"box" : 				{
					"id" : "obj-48",
					"linecount" : 31,
					"maxclass" : "comment",
					"numinlets" : 1,
					"numoutlets" : 0,
					"patching_rect" : [ 1625.333333492279053, 252.833336472511292, 367.0, 422.0 ],
					"presentation" : 1,
					"presentation_linecount" : 40,
					"presentation_rect" : [ 13.0, 475.0, 251.0, 543.0 ],
					"text" : "What this patch does\n\nThe object here is to create a sound using additive synthesis and record it to an audio file (.aif). The patch gives you all the tools to do this easily.\n\nBach.roll gives you the ability to edit eight sine tones, the envelopes of each sine wave, the harmonicity of the sine waves and the amplitude of the entire mix.\n\nThe black notehead corresponds to the frequency of the lowest sine wave in the mix. The black \"duration line\" shows you how that frequency changes over time. The thickness of the black duration line shows you the volume of the entire mix (volume of all 8 sine tones). When the line is thick, you get a loud soundl when it is thin, you get a quiet sound.\n\nThe thin colored lines control other elements of the patch. Slot 1 controls the harmonicity. Click on the notehead to select it, and hit \"1\" -- this will open the slot window for slot 1. \n\nThe other slots (slots 2 thru 9) control the amplitude of each of the eight component sine waves. Slot 2 corresponds to the fundemantal (note that you can actually make the whole MIX loud but you can let the lowest sine wave quiet).You can see the action of the envelopes in the spectral analysis.\n\nYou can use the Zoom slider to zoom in and out of bach.roll, the speaker button to turn on signal processing (sound), the transport controls to start and stop your sound, and the memory buttons to save, clear and recall an entire bach.roll."
				}

			}
, 			{
				"box" : 				{
					"id" : "obj-72",
					"maxclass" : "button",
					"numinlets" : 1,
					"numoutlets" : 1,
					"outlettype" : [ "bang" ],
					"parameter_enable" : 0,
					"patching_rect" : [ 179.345238254183414, 375.333326101303101, 24.0, 24.0 ]
				}

			}
, 			{
				"box" : 				{
					"id" : "obj-56",
					"maxclass" : "newobj",
					"numinlets" : 2,
					"numoutlets" : 1,
					"outlettype" : [ "" ],
					"patching_rect" : [ 163.845238254183414, 414.999992847442627, 55.0, 22.0 ],
					"saved_object_attributes" : 					{
						"embed" : 0,
						"versionnumber" : 80100
					}
,
					"text" : "bach.reg"
				}

			}
, 			{
				"box" : 				{
					"id" : "obj-31",
					"maxclass" : "message",
					"numinlets" : 2,
					"numoutlets" : 1,
					"outlettype" : [ "" ],
					"patching_rect" : [ 506.261897490137926, 152.000002503395081, 39.0, 22.0 ],
					"text" : "dump"
				}

			}
, 			{
				"box" : 				{
					"id" : "obj-46",
					"maxclass" : "comment",
					"numinlets" : 1,
					"numoutlets" : 0,
					"patching_rect" : [ 571.595241592043749, 904.000000834465027, 90.0, 20.0 ],
					"presentation" : 1,
					"presentation_rect" : [ 776.0, 475.0, 90.0, 20.0 ],
					"text" : "Reverb module"
				}

			}
, 			{
				"box" : 				{
					"id" : "obj-42",
					"maxclass" : "comment",
					"numinlets" : 1,
					"numoutlets" : 0,
					"patching_rect" : [ 202.83333683013916, 1057.333336472511292, 60.0, 20.0 ],
					"presentation" : 1,
					"presentation_rect" : [ 486.0, 323.499986052513123, 60.0, 20.0 ],
					"text" : "Spectrum"
				}

			}
, 			{
				"box" : 				{
					"id" : "obj-29",
					"maxclass" : "comment",
					"numinlets" : 1,
					"numoutlets" : 0,
					"patching_rect" : [ 168.33333683013916, 918.333336472511292, 42.0, 20.0 ],
					"presentation" : 1,
					"presentation_rect" : [ 13.0, 323.499986052513123, 42.0, 20.0 ],
					"text" : "Signal"
				}

			}
, 			{
				"box" : 				{
					"id" : "obj-14",
					"maxclass" : "comment",
					"numinlets" : 1,
					"numoutlets" : 0,
					"patching_rect" : [ 1048.194341599941026, 978.079288134972558, 112.0, 20.0 ],
					"presentation" : 1,
					"presentation_rect" : [ 776.0, 691.0, 112.0, 20.0 ],
					"text" : "Record a sound file"
				}

			}
, 			{
				"box" : 				{
					"id" : "obj-15",
					"maxclass" : "comment",
					"numinlets" : 1,
					"numoutlets" : 0,
					"patching_rect" : [ 1096.085767835378419, 1210.747338662545189, 78.0, 20.0 ],
					"presentation" : 1,
					"presentation_rect" : [ 1039.722303211688995, 719.0, 78.0, 20.0 ],
					"text" : "Elapsed time"
				}

			}
, 			{
				"box" : 				{
					"id" : "obj-30",
					"maxclass" : "button",
					"numinlets" : 1,
					"numoutlets" : 1,
					"outlettype" : [ "bang" ],
					"parameter_enable" : 0,
					"patching_rect" : [ 1150.085767835378419, 1040.103272507588372, 24.0, 24.0 ]
				}

			}
, 			{
				"box" : 				{
					"bgcolor" : [ 0.870588235294118, 0.129411764705882, 0.129411764705882, 1.0 ],
					"bgcolor2" : [ 0.870588235294118, 0.129411764705882, 0.129411764705882, 1.0 ],
					"bgfillcolor_angle" : 270.0,
					"bgfillcolor_autogradient" : 0.0,
					"bgfillcolor_color" : [ 0.870588235294118, 0.129411764705882, 0.129411764705882, 1.0 ],
					"bgfillcolor_color1" : [ 0.870588235294118, 0.129411764705882, 0.129411764705882, 1.0 ],
					"bgfillcolor_color2" : [ 0.2, 0.2, 0.2, 1.0 ],
					"bgfillcolor_proportion" : 0.5,
					"bgfillcolor_type" : "color",
					"gradient" : 1,
					"id" : "obj-28",
					"maxclass" : "message",
					"numinlets" : 2,
					"numoutlets" : 1,
					"outlettype" : [ "" ],
					"patching_rect" : [ 1150.085767835378419, 1010.916668097178444, 111.0, 22.0 ],
					"presentation" : 1,
					"presentation_rect" : [ 870.722303211688995, 719.0, 111.0, 22.0 ],
					"text" : "start/stop recording"
				}

			}
, 			{
				"box" : 				{
					"bgcolor" : [ 0.301961, 0.301961, 0.301961, 1.0 ],
					"bgcolor2" : [ 0.301961, 0.301961, 0.301961, 1.0 ],
					"bgfillcolor_angle" : 270.0,
					"bgfillcolor_autogradient" : 0.0,
					"bgfillcolor_color" : [ 0.301960784313725, 0.058823529411765, 0.831372549019608, 1.0 ],
					"bgfillcolor_color1" : [ 0.301961, 0.301961, 0.301961, 1.0 ],
					"bgfillcolor_color2" : [ 0.2, 0.2, 0.2, 1.0 ],
					"bgfillcolor_proportion" : 0.5,
					"bgfillcolor_type" : "color",
					"gradient" : 1,
					"id" : "obj-16",
					"maxclass" : "message",
					"numinlets" : 2,
					"numoutlets" : 1,
					"outlettype" : [ "" ],
					"patching_rect" : [ 1048.194341599941026, 1010.916668097178444, 89.0, 22.0 ],
					"presentation" : 1,
					"presentation_rect" : [ 775.830876976251602, 719.0, 89.0, 22.0 ],
					"text" : "select filename"
				}

			}
, 			{
				"box" : 				{
					"id" : "obj-19",
					"maxclass" : "newobj",
					"numinlets" : 2,
					"numoutlets" : 1,
					"outlettype" : [ "signal" ],
					"patching_rect" : [ 1048.194341599941026, 1182.547338614861474, 66.0, 22.0 ],
					"text" : "round~ 0.1"
				}

			}
, 			{
				"box" : 				{
					"id" : "obj-17",
					"maxclass" : "newobj",
					"numinlets" : 2,
					"numoutlets" : 1,
					"outlettype" : [ "signal" ],
					"patching_rect" : [ 1048.194341599941026, 1156.147338221470818, 52.0, 22.0 ],
					"text" : "/~ 1000."
				}

			}
, 			{
				"box" : 				{
					"fontface" : 0,
					"fontname" : "Arial",
					"fontsize" : 12.0,
					"id" : "obj-20",
					"maxclass" : "number~",
					"mode" : 2,
					"numinlets" : 2,
					"numoutlets" : 2,
					"outlettype" : [ "signal", "float" ],
					"patching_rect" : [ 1048.194341599941026, 1209.747338662545189, 47.0, 22.0 ],
					"presentation" : 1,
					"presentation_rect" : [ 985.830876976251602, 719.0, 47.0, 22.0 ],
					"sig" : 0.0
				}

			}
, 			{
				"box" : 				{
					"id" : "obj-22",
					"maxclass" : "toggle",
					"numinlets" : 1,
					"numoutlets" : 1,
					"outlettype" : [ "int" ],
					"parameter_enable" : 0,
					"patching_rect" : [ 1150.085767835378419, 1068.847321401040062, 24.0, 24.0 ]
				}

			}
, 			{
				"box" : 				{
					"id" : "obj-24",
					"maxclass" : "message",
					"numinlets" : 2,
					"numoutlets" : 1,
					"outlettype" : [ "" ],
					"patching_rect" : [ 1047.394331932067644, 1068.847321401040062, 35.0, 22.0 ],
					"text" : "open"
				}

			}
, 			{
				"box" : 				{
					"id" : "obj-3",
					"maxclass" : "newobj",
					"numinlets" : 2,
					"numoutlets" : 1,
					"outlettype" : [ "signal" ],
					"patching_rect" : [ 1047.394331932067644, 1124.347321401040062, 118.0, 22.0 ],
					"text" : "sfrecord~ 2"
				}

			}
, 			{
				"box" : 				{
					"id" : "obj-49",
					"maxclass" : "newobj",
					"numinlets" : 9,
					"numoutlets" : 1,
					"outlettype" : [ "" ],
					"patcher" : 					{
						"fileversion" : 1,
						"appversion" : 						{
							"major" : 8,
							"minor" : 3,
							"revision" : 0,
							"architecture" : "x64",
							"modernui" : 1
						}
,
						"classnamespace" : "box",
						"rect" : [ 1297.0, 565.0, 1023.0, 638.0 ],
						"bglocked" : 0,
						"openinpresentation" : 0,
						"default_fontsize" : 12.0,
						"default_fontface" : 0,
						"default_fontname" : "Arial",
						"gridonopen" : 1,
						"gridsize" : [ 15.0, 15.0 ],
						"gridsnaponopen" : 1,
						"objectsnaponopen" : 1,
						"statusbarvisible" : 2,
						"toolbarvisible" : 1,
						"lefttoolbarpinned" : 0,
						"toptoolbarpinned" : 0,
						"righttoolbarpinned" : 0,
						"bottomtoolbarpinned" : 0,
						"toolbars_unpinned_last_save" : 0,
						"tallnewobj" : 0,
						"boxanimatetime" : 200,
						"enablehscroll" : 1,
						"enablevscroll" : 1,
						"devicewidth" : 0.0,
						"description" : "",
						"digest" : "",
						"tags" : "",
						"style" : "",
						"subpatcher_template" : "",
						"assistshowspatchername" : 0,
						"boxes" : [ 							{
								"box" : 								{
									"id" : "obj-9",
									"linecount" : 2,
									"maxclass" : "comment",
									"numinlets" : 1,
									"numoutlets" : 0,
									"patching_rect" : [ 85.0, 424.5, 150.0, 33.0 ],
									"text" : "outputs floats with applyvalues symbol"
								}

							}
, 							{
								"box" : 								{
									"id" : "obj-14",
									"maxclass" : "newobj",
									"numinlets" : 2,
									"numoutlets" : 1,
									"outlettype" : [ "float" ],
									"patching_rect" : [ 698.16666666666697, 270.0, 74.0, 22.0 ],
									"text" : "snapshot~ 1"
								}

							}
, 							{
								"box" : 								{
									"id" : "obj-15",
									"maxclass" : "newobj",
									"numinlets" : 2,
									"numoutlets" : 2,
									"outlettype" : [ "signal", "bang" ],
									"patching_rect" : [ 698.16666666666697, 236.0, 34.0, 22.0 ],
									"text" : "line~"
								}

							}
, 							{
								"box" : 								{
									"id" : "obj-16",
									"maxclass" : "newobj",
									"numinlets" : 4,
									"numoutlets" : 2,
									"outlettype" : [ "", "" ],
									"patching_rect" : [ 698.16666666666697, 204.0, 127.0, 22.0 ],
									"text" : "bach.slot2line @out m"
								}

							}
, 							{
								"box" : 								{
									"id" : "obj-17",
									"maxclass" : "newobj",
									"numinlets" : 2,
									"numoutlets" : 1,
									"outlettype" : [ "float" ],
									"patching_rect" : [ 605.0, 166.0, 74.0, 22.0 ],
									"text" : "snapshot~ 1"
								}

							}
, 							{
								"box" : 								{
									"id" : "obj-19",
									"maxclass" : "newobj",
									"numinlets" : 2,
									"numoutlets" : 2,
									"outlettype" : [ "signal", "bang" ],
									"patching_rect" : [ 605.0, 132.0, 34.0, 22.0 ],
									"text" : "line~"
								}

							}
, 							{
								"box" : 								{
									"id" : "obj-20",
									"maxclass" : "newobj",
									"numinlets" : 4,
									"numoutlets" : 2,
									"outlettype" : [ "", "" ],
									"patching_rect" : [ 605.0, 100.0, 127.0, 22.0 ],
									"text" : "bach.slot2line @out m"
								}

							}
, 							{
								"box" : 								{
									"id" : "obj-22",
									"maxclass" : "newobj",
									"numinlets" : 2,
									"numoutlets" : 1,
									"outlettype" : [ "float" ],
									"patching_rect" : [ 516.0, 270.0, 74.0, 22.0 ],
									"text" : "snapshot~ 1"
								}

							}
, 							{
								"box" : 								{
									"id" : "obj-24",
									"maxclass" : "newobj",
									"numinlets" : 2,
									"numoutlets" : 2,
									"outlettype" : [ "signal", "bang" ],
									"patching_rect" : [ 516.0, 236.0, 34.0, 22.0 ],
									"text" : "line~"
								}

							}
, 							{
								"box" : 								{
									"id" : "obj-28",
									"maxclass" : "newobj",
									"numinlets" : 4,
									"numoutlets" : 2,
									"outlettype" : [ "", "" ],
									"patching_rect" : [ 516.0, 204.0, 127.0, 22.0 ],
									"text" : "bach.slot2line @out m"
								}

							}
, 							{
								"box" : 								{
									"id" : "obj-29",
									"maxclass" : "newobj",
									"numinlets" : 2,
									"numoutlets" : 1,
									"outlettype" : [ "float" ],
									"patching_rect" : [ 423.0, 166.0, 74.0, 22.0 ],
									"text" : "snapshot~ 1"
								}

							}
, 							{
								"box" : 								{
									"id" : "obj-30",
									"maxclass" : "newobj",
									"numinlets" : 2,
									"numoutlets" : 2,
									"outlettype" : [ "signal", "bang" ],
									"patching_rect" : [ 423.0, 132.0, 34.0, 22.0 ],
									"text" : "line~"
								}

							}
, 							{
								"box" : 								{
									"id" : "obj-31",
									"maxclass" : "newobj",
									"numinlets" : 4,
									"numoutlets" : 2,
									"outlettype" : [ "", "" ],
									"patching_rect" : [ 423.0, 100.0, 127.0, 22.0 ],
									"text" : "bach.slot2line @out m"
								}

							}
, 							{
								"box" : 								{
									"id" : "obj-87",
									"maxclass" : "newobj",
									"numinlets" : 2,
									"numoutlets" : 1,
									"outlettype" : [ "float" ],
									"patching_rect" : [ 327.785714285714448, 270.0, 74.0, 22.0 ],
									"text" : "snapshot~ 1"
								}

							}
, 							{
								"box" : 								{
									"id" : "obj-88",
									"maxclass" : "newobj",
									"numinlets" : 2,
									"numoutlets" : 2,
									"outlettype" : [ "signal", "bang" ],
									"patching_rect" : [ 327.785714285714448, 236.0, 34.0, 22.0 ],
									"text" : "line~"
								}

							}
, 							{
								"box" : 								{
									"id" : "obj-92",
									"maxclass" : "newobj",
									"numinlets" : 4,
									"numoutlets" : 2,
									"outlettype" : [ "", "" ],
									"patching_rect" : [ 327.785714285714448, 204.0, 127.0, 22.0 ],
									"text" : "bach.slot2line @out m"
								}

							}
, 							{
								"box" : 								{
									"id" : "obj-83",
									"maxclass" : "newobj",
									"numinlets" : 2,
									"numoutlets" : 1,
									"outlettype" : [ "float" ],
									"patching_rect" : [ 234.0, 166.0, 74.0, 22.0 ],
									"text" : "snapshot~ 1"
								}

							}
, 							{
								"box" : 								{
									"id" : "obj-84",
									"maxclass" : "newobj",
									"numinlets" : 2,
									"numoutlets" : 2,
									"outlettype" : [ "signal", "bang" ],
									"patching_rect" : [ 234.0, 132.0, 34.0, 22.0 ],
									"text" : "line~"
								}

							}
, 							{
								"box" : 								{
									"id" : "obj-85",
									"maxclass" : "newobj",
									"numinlets" : 4,
									"numoutlets" : 2,
									"outlettype" : [ "", "" ],
									"patching_rect" : [ 234.0, 100.0, 127.0, 22.0 ],
									"text" : "bach.slot2line @out m"
								}

							}
, 							{
								"box" : 								{
									"id" : "obj-80",
									"maxclass" : "newobj",
									"numinlets" : 2,
									"numoutlets" : 1,
									"outlettype" : [ "float" ],
									"patching_rect" : [ 145.0, 270.0, 74.0, 22.0 ],
									"text" : "snapshot~ 1"
								}

							}
, 							{
								"box" : 								{
									"id" : "obj-81",
									"maxclass" : "newobj",
									"numinlets" : 2,
									"numoutlets" : 2,
									"outlettype" : [ "signal", "bang" ],
									"patching_rect" : [ 145.0, 236.0, 34.0, 22.0 ],
									"text" : "line~"
								}

							}
, 							{
								"box" : 								{
									"id" : "obj-82",
									"maxclass" : "newobj",
									"numinlets" : 4,
									"numoutlets" : 2,
									"outlettype" : [ "", "" ],
									"patching_rect" : [ 145.0, 204.0, 127.0, 22.0 ],
									"text" : "bach.slot2line @out m"
								}

							}
, 							{
								"box" : 								{
									"id" : "obj-61",
									"maxclass" : "newobj",
									"numinlets" : 2,
									"numoutlets" : 1,
									"outlettype" : [ "float" ],
									"patching_rect" : [ 50.0, 179.0, 74.0, 22.0 ],
									"text" : "snapshot~ 1"
								}

							}
, 							{
								"box" : 								{
									"id" : "obj-62",
									"maxclass" : "newobj",
									"numinlets" : 2,
									"numoutlets" : 2,
									"outlettype" : [ "signal", "bang" ],
									"patching_rect" : [ 49.999979666666945, 145.0, 34.0, 22.0 ],
									"text" : "line~"
								}

							}
, 							{
								"box" : 								{
									"id" : "obj-70",
									"maxclass" : "newobj",
									"numinlets" : 4,
									"numoutlets" : 2,
									"outlettype" : [ "", "" ],
									"patching_rect" : [ 49.999979666666945, 118.0, 127.0, 22.0 ],
									"text" : "bach.slot2line @out m"
								}

							}
, 							{
								"box" : 								{
									"id" : "obj-60",
									"maxclass" : "newobj",
									"numinlets" : 8,
									"numoutlets" : 1,
									"outlettype" : [ "" ],
									"patching_rect" : [ 50.0, 308.0, 667.16666666666697, 22.0 ],
									"text" : "pack 0. 0. 0. 0. 0. 0. 0. 0."
								}

							}
, 							{
								"box" : 								{
									"id" : "obj-89",
									"maxclass" : "newobj",
									"numinlets" : 1,
									"numoutlets" : 1,
									"outlettype" : [ "" ],
									"patching_rect" : [ 50.0, 340.49999475479126, 119.0, 22.0 ],
									"text" : "prepend applyvalues"
								}

							}
, 							{
								"box" : 								{
									"comment" : "",
									"id" : "obj-1",
									"index" : 1,
									"maxclass" : "inlet",
									"numinlets" : 0,
									"numoutlets" : 1,
									"outlettype" : [ "" ],
									"patching_rect" : [ 40.78568566666695, 40.0, 30.0, 30.0 ]
								}

							}
, 							{
								"box" : 								{
									"comment" : "",
									"id" : "obj-3",
									"index" : 2,
									"maxclass" : "inlet",
									"numinlets" : 0,
									"numoutlets" : 1,
									"outlettype" : [ "" ],
									"patching_rect" : [ 87.999979666666945, 40.0, 30.0, 30.0 ]
								}

							}
, 							{
								"box" : 								{
									"comment" : "",
									"id" : "obj-4",
									"index" : 3,
									"maxclass" : "inlet",
									"numinlets" : 0,
									"numoutlets" : 1,
									"outlettype" : [ "" ],
									"patching_rect" : [ 180.999979666666945, 40.0, 30.0, 30.0 ]
								}

							}
, 							{
								"box" : 								{
									"comment" : "",
									"id" : "obj-5",
									"index" : 4,
									"maxclass" : "inlet",
									"numinlets" : 0,
									"numoutlets" : 1,
									"outlettype" : [ "" ],
									"patching_rect" : [ 269.999979666666945, 40.0, 30.0, 30.0 ]
								}

							}
, 							{
								"box" : 								{
									"comment" : "",
									"id" : "obj-7",
									"index" : 5,
									"maxclass" : "inlet",
									"numinlets" : 0,
									"numoutlets" : 1,
									"outlettype" : [ "" ],
									"patching_rect" : [ 363.78568566666695, 40.0, 30.0, 30.0 ]
								}

							}
, 							{
								"box" : 								{
									"comment" : "",
									"id" : "obj-8",
									"index" : 6,
									"maxclass" : "inlet",
									"numinlets" : 0,
									"numoutlets" : 1,
									"outlettype" : [ "" ],
									"patching_rect" : [ 458.999979666666945, 40.0, 30.0, 30.0 ]
								}

							}
, 							{
								"box" : 								{
									"comment" : "",
									"id" : "obj-10",
									"index" : 7,
									"maxclass" : "inlet",
									"numinlets" : 0,
									"numoutlets" : 1,
									"outlettype" : [ "" ],
									"patching_rect" : [ 552.000040666667019, 40.0, 30.0, 30.0 ]
								}

							}
, 							{
								"box" : 								{
									"comment" : "",
									"id" : "obj-42",
									"index" : 8,
									"maxclass" : "inlet",
									"numinlets" : 0,
									"numoutlets" : 1,
									"outlettype" : [ "" ],
									"patching_rect" : [ 641.000040666667019, 40.0, 30.0, 30.0 ]
								}

							}
, 							{
								"box" : 								{
									"comment" : "",
									"id" : "obj-46",
									"index" : 9,
									"maxclass" : "inlet",
									"numinlets" : 0,
									"numoutlets" : 1,
									"outlettype" : [ "" ],
									"patching_rect" : [ 734.16666666666697, 40.0, 30.0, 30.0 ]
								}

							}
, 							{
								"box" : 								{
									"comment" : "",
									"id" : "obj-48",
									"index" : 1,
									"maxclass" : "outlet",
									"numinlets" : 1,
									"numoutlets" : 0,
									"patching_rect" : [ 49.999979666666945, 422.5, 30.0, 30.0 ]
								}

							}
 ],
						"lines" : [ 							{
								"patchline" : 								{
									"destination" : [ "obj-16", 0 ],
									"order" : 0,
									"source" : [ "obj-1", 0 ]
								}

							}
, 							{
								"patchline" : 								{
									"destination" : [ "obj-20", 0 ],
									"order" : 1,
									"source" : [ "obj-1", 0 ]
								}

							}
, 							{
								"patchline" : 								{
									"destination" : [ "obj-28", 0 ],
									"order" : 2,
									"source" : [ "obj-1", 0 ]
								}

							}
, 							{
								"patchline" : 								{
									"destination" : [ "obj-31", 0 ],
									"order" : 3,
									"source" : [ "obj-1", 0 ]
								}

							}
, 							{
								"patchline" : 								{
									"destination" : [ "obj-70", 0 ],
									"order" : 7,
									"source" : [ "obj-1", 0 ]
								}

							}
, 							{
								"patchline" : 								{
									"destination" : [ "obj-82", 0 ],
									"order" : 6,
									"source" : [ "obj-1", 0 ]
								}

							}
, 							{
								"patchline" : 								{
									"destination" : [ "obj-85", 0 ],
									"order" : 5,
									"source" : [ "obj-1", 0 ]
								}

							}
, 							{
								"patchline" : 								{
									"destination" : [ "obj-92", 0 ],
									"order" : 4,
									"source" : [ "obj-1", 0 ]
								}

							}
, 							{
								"patchline" : 								{
									"destination" : [ "obj-28", 1 ],
									"source" : [ "obj-10", 0 ]
								}

							}
, 							{
								"patchline" : 								{
									"destination" : [ "obj-60", 7 ],
									"source" : [ "obj-14", 0 ]
								}

							}
, 							{
								"patchline" : 								{
									"destination" : [ "obj-14", 0 ],
									"source" : [ "obj-15", 0 ]
								}

							}
, 							{
								"patchline" : 								{
									"destination" : [ "obj-15", 0 ],
									"source" : [ "obj-16", 0 ]
								}

							}
, 							{
								"patchline" : 								{
									"destination" : [ "obj-60", 6 ],
									"source" : [ "obj-17", 0 ]
								}

							}
, 							{
								"patchline" : 								{
									"destination" : [ "obj-17", 0 ],
									"source" : [ "obj-19", 0 ]
								}

							}
, 							{
								"patchline" : 								{
									"destination" : [ "obj-19", 0 ],
									"source" : [ "obj-20", 0 ]
								}

							}
, 							{
								"patchline" : 								{
									"destination" : [ "obj-60", 5 ],
									"source" : [ "obj-22", 0 ]
								}

							}
, 							{
								"patchline" : 								{
									"destination" : [ "obj-22", 0 ],
									"source" : [ "obj-24", 0 ]
								}

							}
, 							{
								"patchline" : 								{
									"destination" : [ "obj-24", 0 ],
									"source" : [ "obj-28", 0 ]
								}

							}
, 							{
								"patchline" : 								{
									"destination" : [ "obj-60", 4 ],
									"source" : [ "obj-29", 0 ]
								}

							}
, 							{
								"patchline" : 								{
									"destination" : [ "obj-70", 1 ],
									"source" : [ "obj-3", 0 ]
								}

							}
, 							{
								"patchline" : 								{
									"destination" : [ "obj-29", 0 ],
									"source" : [ "obj-30", 0 ]
								}

							}
, 							{
								"patchline" : 								{
									"destination" : [ "obj-30", 0 ],
									"source" : [ "obj-31", 0 ]
								}

							}
, 							{
								"patchline" : 								{
									"destination" : [ "obj-82", 1 ],
									"source" : [ "obj-4", 0 ]
								}

							}
, 							{
								"patchline" : 								{
									"destination" : [ "obj-20", 1 ],
									"source" : [ "obj-42", 0 ]
								}

							}
, 							{
								"patchline" : 								{
									"destination" : [ "obj-16", 1 ],
									"source" : [ "obj-46", 0 ]
								}

							}
, 							{
								"patchline" : 								{
									"destination" : [ "obj-85", 1 ],
									"source" : [ "obj-5", 0 ]
								}

							}
, 							{
								"patchline" : 								{
									"destination" : [ "obj-89", 0 ],
									"source" : [ "obj-60", 0 ]
								}

							}
, 							{
								"patchline" : 								{
									"destination" : [ "obj-60", 0 ],
									"source" : [ "obj-61", 0 ]
								}

							}
, 							{
								"patchline" : 								{
									"destination" : [ "obj-61", 0 ],
									"source" : [ "obj-62", 0 ]
								}

							}
, 							{
								"patchline" : 								{
									"destination" : [ "obj-92", 1 ],
									"source" : [ "obj-7", 0 ]
								}

							}
, 							{
								"patchline" : 								{
									"destination" : [ "obj-62", 0 ],
									"source" : [ "obj-70", 0 ]
								}

							}
, 							{
								"patchline" : 								{
									"destination" : [ "obj-31", 1 ],
									"source" : [ "obj-8", 0 ]
								}

							}
, 							{
								"patchline" : 								{
									"destination" : [ "obj-60", 1 ],
									"source" : [ "obj-80", 0 ]
								}

							}
, 							{
								"patchline" : 								{
									"destination" : [ "obj-80", 0 ],
									"source" : [ "obj-81", 0 ]
								}

							}
, 							{
								"patchline" : 								{
									"destination" : [ "obj-81", 0 ],
									"source" : [ "obj-82", 0 ]
								}

							}
, 							{
								"patchline" : 								{
									"destination" : [ "obj-60", 2 ],
									"source" : [ "obj-83", 0 ]
								}

							}
, 							{
								"patchline" : 								{
									"destination" : [ "obj-83", 0 ],
									"source" : [ "obj-84", 0 ]
								}

							}
, 							{
								"patchline" : 								{
									"destination" : [ "obj-84", 0 ],
									"source" : [ "obj-85", 0 ]
								}

							}
, 							{
								"patchline" : 								{
									"destination" : [ "obj-60", 3 ],
									"source" : [ "obj-87", 0 ]
								}

							}
, 							{
								"patchline" : 								{
									"destination" : [ "obj-87", 0 ],
									"source" : [ "obj-88", 0 ]
								}

							}
, 							{
								"patchline" : 								{
									"destination" : [ "obj-48", 0 ],
									"source" : [ "obj-89", 0 ]
								}

							}
, 							{
								"patchline" : 								{
									"destination" : [ "obj-88", 0 ],
									"source" : [ "obj-92", 0 ]
								}

							}
 ]
					}
,
					"patching_rect" : [ 738.474362471164568, 455.333336472511292, 662.730769230769511, 22.0 ],
					"saved_object_attributes" : 					{
						"description" : "",
						"digest" : "",
						"globalpatchername" : "",
						"tags" : ""
					}
,
					"text" : "p manage-envelopes"
				}

			}
, 			{
				"box" : 				{
					"calccount" : 64,
					"id" : "obj-52",
					"maxclass" : "scope~",
					"numinlets" : 2,
					"numoutlets" : 0,
					"patching_rect" : [ 175.33333683013916, 951.333336472511292, 385.0, 100.0 ],
					"presentation" : 1,
					"presentation_rect" : [ 13.0, 350.0, 460.5, 120.0 ]
				}

			}
, 			{
				"box" : 				{
					"id" : "obj-51",
					"maxclass" : "message",
					"numinlets" : 2,
					"numoutlets" : 1,
					"outlettype" : [ "" ],
					"patching_rect" : [ 1517.333335161209106, 444.333336472511292, 29.5, 22.0 ],
					"text" : "0"
				}

			}
, 			{
				"box" : 				{
					"id" : "obj-47",
					"maxclass" : "message",
					"numinlets" : 2,
					"numoutlets" : 1,
					"outlettype" : [ "" ],
					"patching_rect" : [ 163.845238254183414, 128.000001788139343, 55.0, 22.0 ],
					"text" : "zoom $1"
				}

			}
, 			{
				"box" : 				{
					"bgcolor" : [ 0.301961, 0.301961, 0.301961, 1.0 ],
					"bgcolor2" : [ 0.301961, 0.301961, 0.301961, 1.0 ],
					"bgfillcolor_angle" : 270.0,
					"bgfillcolor_autogradient" : 0.0,
					"bgfillcolor_color" : [ 0.070588235294118, 0.498039215686275, 0.090196078431373, 1.0 ],
					"bgfillcolor_color1" : [ 0.301961, 0.301961, 0.301961, 1.0 ],
					"bgfillcolor_color2" : [ 0.2, 0.2, 0.2, 1.0 ],
					"bgfillcolor_proportion" : 0.5,
					"bgfillcolor_type" : "color",
					"gradient" : 1,
					"id" : "obj-43",
					"maxclass" : "message",
					"numinlets" : 2,
					"numoutlets" : 1,
					"outlettype" : [ "" ],
					"patching_rect" : [ 595.761897490137926, 121.000002503395081, 37.0, 22.0 ],
					"presentation" : 1,
					"presentation_rect" : [ 427.5, 85.75, 37.0, 22.0 ],
					"text" : "recall"
				}

			}
, 			{
				"box" : 				{
					"bgcolor" : [ 0.870588235294118, 0.129411764705882, 0.129411764705882, 1.0 ],
					"bgcolor2" : [ 0.870588235294118, 0.129411764705882, 0.129411764705882, 1.0 ],
					"bgfillcolor_angle" : 270.0,
					"bgfillcolor_autogradient" : 0.0,
					"bgfillcolor_color" : [ 0.870588235294118, 0.129411764705882, 0.129411764705882, 1.0 ],
					"bgfillcolor_color1" : [ 0.870588235294118, 0.129411764705882, 0.129411764705882, 1.0 ],
					"bgfillcolor_color2" : [ 0.2, 0.2, 0.2, 1.0 ],
					"bgfillcolor_proportion" : 0.5,
					"bgfillcolor_type" : "color",
					"gradient" : 1,
					"id" : "obj-44",
					"maxclass" : "message",
					"numinlets" : 2,
					"numoutlets" : 1,
					"outlettype" : [ "" ],
					"patching_rect" : [ 655.678564176672808, 121.000002503395081, 35.0, 22.0 ],
					"presentation" : 1,
					"presentation_rect" : [ 469.416666686534882, 85.75, 35.0, 22.0 ],
					"text" : "clear"
				}

			}
, 			{
				"box" : 				{
					"bgcolor" : [ 0.301961, 0.301961, 0.301961, 1.0 ],
					"bgcolor2" : [ 0.301961, 0.301961, 0.301961, 1.0 ],
					"bgfillcolor_angle" : 270.0,
					"bgfillcolor_autogradient" : 0.0,
					"bgfillcolor_color" : [ 0.070588235294118, 0.498039215686275, 0.090196078431373, 1.0 ],
					"bgfillcolor_color1" : [ 0.301961, 0.301961, 0.301961, 1.0 ],
					"bgfillcolor_color2" : [ 0.2, 0.2, 0.2, 1.0 ],
					"bgfillcolor_proportion" : 0.5,
					"bgfillcolor_type" : "color",
					"gradient" : 1,
					"id" : "obj-50",
					"maxclass" : "message",
					"numinlets" : 2,
					"numoutlets" : 1,
					"outlettype" : [ "" ],
					"patching_rect" : [ 506.261897490137926, 121.000002503395081, 34.0, 22.0 ],
					"presentation" : 1,
					"presentation_rect" : [ 386.5, 85.75, 34.0, 22.0 ],
					"text" : "save"
				}

			}
, 			{
				"box" : 				{
					"bgcolor" : [ 0.301961, 0.301961, 0.301961, 1.0 ],
					"bgcolor2" : [ 0.301961, 0.301961, 0.301961, 1.0 ],
					"bgfillcolor_angle" : 270.0,
					"bgfillcolor_autogradient" : 0.0,
					"bgfillcolor_color" : [ 0.301960784313725, 0.058823529411765, 0.831372549019608, 1.0 ],
					"bgfillcolor_color1" : [ 0.301961, 0.301961, 0.301961, 1.0 ],
					"bgfillcolor_color2" : [ 0.2, 0.2, 0.2, 1.0 ],
					"bgfillcolor_proportion" : 0.5,
					"bgfillcolor_type" : "color",
					"gradient" : 1,
					"id" : "obj-183",
					"maxclass" : "message",
					"numinlets" : 2,
					"numoutlets" : 1,
					"outlettype" : [ "" ],
					"patching_rect" : [ 418.000005722045898, 139.333335757255554, 31.0, 22.0 ],
					"presentation" : 1,
					"presentation_rect" : [ 318.0, 85.75, 31.0, 22.0 ],
					"text" : "stop"
				}

			}
, 			{
				"box" : 				{
					"id" : "obj-174",
					"maxclass" : "comment",
					"numinlets" : 1,
					"numoutlets" : 0,
					"patching_rect" : [ 163.845238254183414, 65.500001788139343, 39.0, 20.0 ],
					"presentation" : 1,
					"presentation_rect" : [ 13.0, 58.5, 39.0, 20.0 ],
					"text" : "Zoom"
				}

			}
, 			{
				"box" : 				{
					"id" : "obj-169",
					"maxclass" : "slider",
					"min" : 6.0,
					"numinlets" : 1,
					"numoutlets" : 1,
					"outlettype" : [ "" ],
					"parameter_enable" : 0,
					"patching_rect" : [ 163.845238254183414, 89.000001788139343, 218.0, 30.0 ],
					"presentation" : 1,
					"presentation_rect" : [ 13.0, 81.75, 218.0, 30.0 ],
					"size" : 200.0
				}

			}
, 			{
				"box" : 				{
					"bgcolor" : [ 0.301961, 0.301961, 0.301961, 1.0 ],
					"bgcolor2" : [ 0.301961, 0.301961, 0.301961, 1.0 ],
					"bgfillcolor_angle" : 270.0,
					"bgfillcolor_autogradient" : 0.0,
					"bgfillcolor_color" : [ 0.301960784313725, 0.058823529411765, 0.831372549019608, 1.0 ],
					"bgfillcolor_color1" : [ 0.301961, 0.301961, 0.301961, 1.0 ],
					"bgfillcolor_color2" : [ 0.2, 0.2, 0.2, 1.0 ],
					"bgfillcolor_proportion" : 0.5,
					"bgfillcolor_type" : "color",
					"gradient" : 1,
					"id" : "obj-45",
					"maxclass" : "message",
					"numinlets" : 2,
					"numoutlets" : 1,
					"outlettype" : [ "" ],
					"patching_rect" : [ 377.666672348976135, 139.333335757255554, 31.0, 22.0 ],
					"presentation" : 1,
					"presentation_rect" : [ 280.0, 85.75, 31.0, 22.0 ],
					"text" : "play"
				}

			}
, 			{
				"box" : 				{
					"channels" : 8,
					"id" : "obj-41",
					"lastchannelcount" : 8,
					"maxclass" : "mc.live.gain~",
					"numinlets" : 1,
					"numoutlets" : 4,
					"orientation" : 1,
					"outlettype" : [ "multichannelsignal", "", "float", "list" ],
					"parameter_enable" : 1,
					"patching_rect" : [ 810.095241592043749, 769.833331227302551, 404.0, 83.0 ],
					"saved_attribute_attributes" : 					{
						"valueof" : 						{
							"parameter_longname" : "mc.live.gain~",
							"parameter_mmax" : 6.0,
							"parameter_mmin" : -70.0,
							"parameter_shortname" : "mc.live.gain~",
							"parameter_type" : 0,
							"parameter_unitstyle" : 4
						}

					}
,
					"varname" : "mc.live.gain~"
				}

			}
, 			{
				"box" : 				{
					"id" : "obj-40",
					"maxclass" : "newobj",
					"numinlets" : 2,
					"numoutlets" : 1,
					"outlettype" : [ "multichannelsignal" ],
					"patching_rect" : [ 281.33333683013916, 876.333336472511292, 60.0, 22.0 ],
					"text" : "mc.*~ 0.2"
				}

			}
, 			{
				"box" : 				{
					"id" : "obj-39",
					"maxclass" : "newobj",
					"numinlets" : 2,
					"numoutlets" : 1,
					"outlettype" : [ "multichannelsignal" ],
					"patching_rect" : [ 282.33333683013916, 810.333336472511292, 92.0, 22.0 ],
					"text" : "mc.mixdown~ 2"
				}

			}
, 			{
				"box" : 				{
					"id" : "obj-38",
					"maxclass" : "ezdac~",
					"numinlets" : 2,
					"numoutlets" : 0,
					"patching_rect" : [ 590.333336830138251, 1151.916666309039101, 93.83333333333394, 93.83333333333394 ],
					"presentation" : 1,
					"presentation_rect" : [ 243.5, 81.75, 30.0, 30.0 ]
				}

			}
, 			{
				"box" : 				{
					"id" : "obj-35",
					"lastchannelcount" : 0,
					"maxclass" : "live.gain~",
					"numinlets" : 2,
					"numoutlets" : 5,
					"orientation" : 1,
					"outlettype" : [ "signal", "signal", "", "float", "list" ],
					"parameter_enable" : 1,
					"patching_rect" : [ 586.83333683013916, 1074.833336472511292, 332.0, 47.0 ],
					"presentation" : 1,
					"presentation_rect" : [ 776.0, 629.5, 332.0, 47.0 ],
					"saved_attribute_attributes" : 					{
						"valueof" : 						{
							"parameter_longname" : "Main Output Gain",
							"parameter_mmax" : 6.0,
							"parameter_mmin" : -70.0,
							"parameter_shortname" : "Main Output Gain",
							"parameter_type" : 0,
							"parameter_unitstyle" : 4
						}

					}
,
					"varname" : "live.gain~[1]"
				}

			}
, 			{
				"box" : 				{
					"id" : "obj-33",
					"maxclass" : "newobj",
					"numinlets" : 1,
					"numoutlets" : 2,
					"outlettype" : [ "signal", "signal" ],
					"patching_rect" : [ 282.33333683013916, 909.333336472511292, 84.0, 22.0 ],
					"text" : "mc.unpack~ 2"
				}

			}
, 			{
				"box" : 				{
					"bgmode" : 0,
					"border" : 0,
					"clickthrough" : 0,
					"enablehscroll" : 0,
					"enablevscroll" : 0,
					"extract" : 1,
					"id" : "obj-11",
					"lockeddragscroll" : 0,
					"lockedsize" : 0,
					"maxclass" : "bpatcher",
					"name" : "bp.Gigaverb.maxpat",
					"numinlets" : 2,
					"numoutlets" : 2,
					"offset" : [ 0.0, 0.0 ],
					"outlettype" : [ "signal", "signal" ],
					"patching_rect" : [ 586.83333683013916, 943.333336472511292, 332.0, 116.0 ],
					"presentation" : 1,
					"presentation_rect" : [ 776.0, 500.0, 332.0, 116.0 ],
					"varname" : "bp.Gigaverb[1]",
					"viewvisibility" : 1
				}

			}
, 			{
				"box" : 				{
					"id" : "obj-13",
					"maxclass" : "spectroscope~",
					"numinlets" : 2,
					"numoutlets" : 1,
					"outlettype" : [ "" ],
					"patching_rect" : [ 175.33333683013916, 1091.680654893319115, 385.0, 99.0 ],
					"presentation" : 1,
					"presentation_rect" : [ 486.0, 350.0, 622.0, 120.0 ]
				}

			}
, 			{
				"box" : 				{
					"id" : "obj-107",
					"maxclass" : "newobj",
					"numinlets" : 1,
					"numoutlets" : 1,
					"outlettype" : [ "" ],
					"patching_rect" : [ 279.66667016347219, 644.333336472511292, 105.0, 22.0 ],
					"text" : "prepend harmonic"
				}

			}
, 			{
				"box" : 				{
					"id" : "obj-106",
					"maxclass" : "newobj",
					"numinlets" : 2,
					"numoutlets" : 1,
					"outlettype" : [ "" ],
					"patching_rect" : [ 279.66667016347219, 603.333336472511292, 61.0, 22.0 ],
					"text" : "pack 0. 0."
				}

			}
, 			{
				"box" : 				{
					"id" : "obj-105",
					"maxclass" : "newobj",
					"numinlets" : 2,
					"numoutlets" : 1,
					"outlettype" : [ "float" ],
					"patching_rect" : [ 279.33333683013916, 568.333336472511292, 74.0, 22.0 ],
					"text" : "snapshot~ 1"
				}

			}
, 			{
				"box" : 				{
					"id" : "obj-32",
					"maxclass" : "newobj",
					"numinlets" : 2,
					"numoutlets" : 1,
					"outlettype" : [ "float" ],
					"patching_rect" : [ 553.095241592043749, 533.333336472511292, 74.0, 22.0 ],
					"text" : "snapshot~ 1"
				}

			}
, 			{
				"box" : 				{
					"id" : "obj-25",
					"maxclass" : "newobj",
					"numinlets" : 2,
					"numoutlets" : 2,
					"outlettype" : [ "signal", "bang" ],
					"patching_rect" : [ 553.095241592043749, 499.333336472511292, 34.0, 22.0 ],
					"text" : "line~"
				}

			}
, 			{
				"box" : 				{
					"id" : "obj-23",
					"maxclass" : "newobj",
					"numinlets" : 4,
					"numoutlets" : 2,
					"outlettype" : [ "", "" ],
					"patching_rect" : [ 553.095241592043749, 467.333336472511292, 127.0, 22.0 ],
					"text" : "bach.slot2line @out m"
				}

			}
, 			{
				"box" : 				{
					"id" : "obj-21",
					"linecount" : 7,
					"maxclass" : "comment",
					"numinlets" : 1,
					"numoutlets" : 0,
					"patching_rect" : [ 20.333333492279053, 520.333336472511292, 150.0, 100.0 ],
					"text" : "The black duration line's thickness will be the GLOBAL volume.\nSlot 1 is the harmonicity; Slots 2-9 are the amplitudes of the eight sine waves."
				}

			}
, 			{
				"box" : 				{
					"fontsize" : 24.0,
					"id" : "obj-2",
					"maxclass" : "comment",
					"numinlets" : 1,
					"numoutlets" : 0,
					"patching_rect" : [ 17.00000011920929, 21.666666746139526, 205.0, 33.0 ],
					"presentation" : 1,
					"presentation_rect" : [ 13.0, 19.0, 205.0, 33.0 ],
					"text" : "Additive Synthesis"
				}

			}
, 			{
				"box" : 				{
					"id" : "obj-90",
					"maxclass" : "newobj",
					"numinlets" : 2,
					"numoutlets" : 1,
					"outlettype" : [ "multichannelsignal" ],
					"patching_rect" : [ 280.119051115853381, 739.833331227302551, 474.047619047618809, 22.0 ],
					"text" : "mc.*~"
				}

			}
, 			{
				"box" : 				{
					"id" : "obj-6",
					"maxclass" : "newobj",
					"numinlets" : 2,
					"numoutlets" : 1,
					"outlettype" : [ "float" ],
					"patching_rect" : [ 1474.166670163472645, 444.333336472511292, 33.0, 22.0 ],
					"text" : "- 10."
				}

			}
, 			{
				"box" : 				{
					"id" : "obj-9",
					"maxclass" : "newobj",
					"numinlets" : 2,
					"numoutlets" : 1,
					"outlettype" : [ "signal" ],
					"patching_rect" : [ 278.66667016347219, 506.333336472511292, 46.0, 22.0 ],
					"text" : "/~ 100."
				}

			}
, 			{
				"box" : 				{
					"id" : "obj-26",
					"maxclass" : "newobj",
					"numinlets" : 1,
					"numoutlets" : 1,
					"outlettype" : [ "signal" ],
					"patching_rect" : [ 349.33333683013916, 596.833331227302551, 46.0, 22.0 ],
					"text" : "dbtoa~"
				}

			}
, 			{
				"box" : 				{
					"id" : "obj-27",
					"maxclass" : "newobj",
					"numinlets" : 6,
					"numoutlets" : 1,
					"outlettype" : [ "signal" ],
					"patching_rect" : [ 349.33333683013916, 520.333336472511292, 108.0, 22.0 ],
					"text" : "scale~ 0 127 -60 0"
				}

			}
, 			{
				"box" : 				{
					"id" : "obj-34",
					"maxclass" : "newobj",
					"numinlets" : 2,
					"numoutlets" : 1,
					"outlettype" : [ "multichannelsignal" ],
					"patching_rect" : [ 280.119051115853381, 774.833331227302551, 502.0, 22.0 ],
					"text" : "mc.*~"
				}

			}
, 			{
				"box" : 				{
					"id" : "obj-36",
					"maxclass" : "newobj",
					"numinlets" : 1,
					"numoutlets" : 1,
					"outlettype" : [ "signal" ],
					"patching_rect" : [ 278.66667016347219, 533.333336472511292, 39.0, 22.0 ],
					"text" : "mtof~"
				}

			}
, 			{
				"box" : 				{
					"id" : "obj-37",
					"maxclass" : "newobj",
					"numinlets" : 3,
					"numoutlets" : 2,
					"outlettype" : [ "signal", "bang" ],
					"patching_rect" : [ 349.33333683013916, 476.333336472511292, 45.0, 22.0 ],
					"text" : "curve~"
				}

			}
, 			{
				"box" : 				{
					"id" : "obj-53",
					"maxclass" : "newobj",
					"numinlets" : 3,
					"numoutlets" : 2,
					"outlettype" : [ "signal", "bang" ],
					"patching_rect" : [ 278.66667016347219, 476.333336472511292, 45.0, 22.0 ],
					"text" : "curve~"
				}

			}
, 			{
				"box" : 				{
					"id" : "obj-57",
					"maxclass" : "newobj",
					"numinlets" : 6,
					"numoutlets" : 4,
					"outlettype" : [ "", "", "", "" ],
					"patching_rect" : [ 278.66667016347219, 441.333336472511292, 231.000000000000909, 22.0 ],
					"text" : "bach.dl2curve @out m"
				}

			}
, 			{
				"box" : 				{
					"id" : "obj-64",
					"maxclass" : "newobj",
					"numinlets" : 2,
					"numoutlets" : 2,
					"outlettype" : [ "signal", "bang" ],
					"patching_rect" : [ 1474.166670163472645, 560.333336472511292, 34.0, 22.0 ],
					"text" : "line~"
				}

			}
, 			{
				"box" : 				{
					"id" : "obj-65",
					"maxclass" : "newobj",
					"numinlets" : 2,
					"numoutlets" : 1,
					"outlettype" : [ "multichannelsignal" ],
					"patching_rect" : [ 282.33333683013916, 846.833331227302551, 1210.833333333333485, 22.0 ],
					"text" : "mc.*~"
				}

			}
, 			{
				"box" : 				{
					"id" : "obj-67",
					"maxclass" : "message",
					"numinlets" : 2,
					"numoutlets" : 1,
					"outlettype" : [ "" ],
					"patching_rect" : [ 1474.166670163472645, 503.333336472511292, 105.0, 22.0 ],
					"text" : "0.5 10 0.5 $1 0 10"
				}

			}
, 			{
				"box" : 				{
					"id" : "obj-68",
					"maxclass" : "newobj",
					"numinlets" : 2,
					"numoutlets" : 1,
					"outlettype" : [ "multichannelsignal" ],
					"patching_rect" : [ 280.00000349680522, 700.833331227302551, 120.0, 22.0 ],
					"text" : "mc.cycle~ @chans 8"
				}

			}
, 			{
				"box" : 				{
					"id" : "obj-71",
					"maxclass" : "newobj",
					"numinlets" : 1,
					"numoutlets" : 14,
					"outlettype" : [ "", "", "", "", "", "", "", "", "", "", "", "", "", "" ],
					"patching_rect" : [ 278.66667016347219, 394.333336472511292, 1208.0, 22.0 ],
					"saved_object_attributes" : 					{
						"versionnumber" : 80100
					}
,
					"text" : "bach.playkeys cents velocity duration breakpoints 1 2 3 4 5 6 7 8 9 duration @out nnnnnmmmmmmmmm"
				}

			}
, 			{
				"box" : 				{
					"bgslots" : [ 1, 2, 3, 4, 5, 6, 7, 8, 9, 10, 11 ],
					"breakpointshavevelocity" : 1,
					"bwcompatibility" : 80104,
					"clefs" : [ "FG" ],
					"defaultnoteslots" : [ "null" ],
					"durationlinewidth" : 4.0,
					"fontface" : 0,
					"fontname" : "Arial",
					"fontsize" : 12.0,
					"id" : "obj-74",
					"loop" : [ 0.0, 1000.0 ],
					"maxclass" : "bach.roll",
					"numinlets" : 6,
					"numoutlets" : 8,
					"numvoices" : 1,
					"out" : "nnnnnnn",
					"outlettype" : [ "", "", "", "", "", "", "", "bang" ],
					"patching_rect" : [ 163.845238254183414, 185.333335757255554, 1217.500000000000455, 190.666666666666657 ],
					"pitcheditrange" : [ "null" ],
					"presentation" : 1,
					"presentation_rect" : [ 13.0, 133.0, 1096.500000000000455, 190.666666666666657 ],
					"ruler" : 2,
					"showstems" : 0,
					"showvelocity" : 4,
					"stafflines" : [ 5 ],
					"textcolor" : [ 0.0, 0.0, 0.0, 1.0 ],
					"versionnumber" : 80100,
					"voicenames" : [ "[", "]" ],
					"voicespacing" : [ 0.0, 17.0 ],
					"whole_roll_data_0000000000" : [ "roll", "[", "slotinfo", "[", 1, "[", "name", "Harmonicity", "]", "[", "type", "function", "]", "[", "key", 0, "]", "[", "range", "_x_x_x_x_bach_float64_x_x_x_x_", 0, 0, "_x_x_x_x_bach_float64_x_x_x_x_", 0, 1074003968, "]", "[", "slope", "_x_x_x_x_bach_float64_x_x_x_x_", 0, 0, "]", "[", "representation", "]", "[", "grid", "]", "[", "ysnap", "]", "[", "domain", "_x_x_x_x_bach_float64_x_x_x_x_", 0, 0, "_x_x_x_x_bach_float64_x_x_x_x_", 0, 1072693248, "]", "[", "domainslope", "_x_x_x_x_bach_float64_x_x_x_x_", 0, 0, "]", "[", "color", "_x_x_x_x_bach_float64_x_x_x_x_", 3180062505, 1071406871, "_x_x_x_x_bach_float64_x_x_x_x_", 1344152965, 1071637814, "_x_x_x_x_bach_float64_x_x_x_x_", 2821896593, 1070151734, "_x_x_x_x_bach_float64_x_x_x_x_", 0, 1072693248, "]", "[", "temporalmode", "relative", "]", "[", "extend", 0, "]", "[", "width", "duration", "]", "[", "height", "auto", "]", "[", "copywhensplit", 0, "]", "[", "access", "readandwrite", "]", "[", "follownotehead", 0, "]", "]", "[", 2, "[", "name", "Envelope 1", "]", "[", "type", "function", "]", "[", "key", 0, "]", "[", "range", "_x_x_x_x_bach_float64_x_x_x_x_", 0, 0, "_x_x_x_x_bach_float64_x_x_x_x_", 0, 1072693248, "]", "[", "slope", "_x_x_x_x_bach_float64_x_x_x_x_", 0, 1071644672, "]", "[", "representation", "]", "[", "grid", "]", "[", "ysnap", "]", "[", "domain", "_x_x_x_x_bach_float64_x_x_x_x_", 0, 0, "_x_x_x_x_bach_float64_x_x_x_x_", 0, 1072693248, "]", "[", "domainslope", "_x_x_x_x_bach_float64_x_x_x_x_", 0, 0, "]", "[", "temporalmode", "relative", "]", "[", "extend", 0, "]", "[", "width", "duration", "]", "[", "height", "auto", "]", "[", "copywhensplit", 0, "]", "[", "access", "readandwrite", "]", "[", "follownotehead", 0, "]", "]", "[", 3, "[", "name", "Envelope 2", "]", "[", "type", "function", "]", "[", "key", 0, "]", "[", "range", "_x_x_x_x_bach_float64_x_x_x_x_", 0, 0, "_x_x_x_x_bach_float64_x_x_x_x_", 0, 1072693248, "]", "[", "slope", "_x_x_x_x_bach_float64_x_x_x_x_", 0, 1071644672, "]", "[", "representation", "]", "[", "grid", "]", "[", "ysnap", "]", "[", "domain", "_x_x_x_x_bach_float64_x_x_x_x_", 0, 0, "_x_x_x_x_bach_float64_x_x_x_x_", 0, 1072693248, "]", "[", "domainslope", "_x_x_x_x_bach_float64_x_x_x_x_", 0, 0, "]", "[", "temporalmode", "relative", "]", "[", "extend", 0, "]", "[", "width", "duration", "]", "[", "height", "auto", "]", "[", "copywhensplit", 1, "]", "[", "access", "readandwrite", "]", "[", "follownotehead", 0, "]", "]", "[", 4, "[", "name", "Envelope 3", "]", "[", "type", "function", "]", "[", "key", 0, "]", "[", "range", "_x_x_x_x_bach_float64_x_x_x_x_", 0, 0, "_x_x_x_x_bach_float64_x_x_x_x_", 0, 1072693248, "]", "[", "slope", "_x_x_x_x_bach_float64_x_x_x_x_", 0, 1071644672, "]", "[", "representation", "]", "[", "grid", "]", "[", "ysnap", "]", "[", "domain", "_x_x_x_x_bach_float64_x_x_x_x_", 0, 0, "_x_x_x_x_bach_float64_x_x_x_x_", 0, 1072693248, "]", "[", "domainslope", "_x_x_x_x_bach_float64_x_x_x_x_", 0, 0, "]", "[", "temporalmode", "relative", "]", "[", "extend", 0, "]", "[", "width", "duration", "]", "[", "height", "auto", "]", "[", "copywhensplit", 1, "]", "[", "access", "readandwrite", "]", "[", "follownotehead", 0, "]", "]", "[", 5, "[", "name", "Envelope 4", "]", "[", "type", "function", "]", "[", "key", 0, "]", "[", "range", "_x_x_x_x_bach_float64_x_x_x_x_", 0, 0, "_x_x_x_x_bach_float64_x_x_x_x_", 0, 1072693248, "]", "[", "slope", "_x_x_x_x_bach_float64_x_x_x_x_", 0, 1071644672, "]", "[", "representation", "]", "[", "grid", "]", "[", "ysnap", "]", "[", "domain", "_x_x_x_x_bach_float64_x_x_x_x_", 0, 0, "_x_x_x_x_bach_float64_x_x_x_x_", 0, 1072693248, "]", "[", "domainslope", "_x_x_x_x_bach_float64_x_x_x_x_", 0, 0, "]", "[", "temporalmode", "relative", "]", "[", "extend", 0, "]", "[", "width", "duration", "]", "[", "height", "auto", "]", "[", "copywhensplit", 1, "]", "[", "access", "readandwrite", "]", "[", "follownotehead", 0, "]", "]", "[", 6, "[", "name", "Envelope 5", "]", "[", "type", "function", "]", "[", "key", 0, "]", "[", "range", "_x_x_x_x_bach_float64_x_x_x_x_", 0, 0, "_x_x_x_x_bach_float64_x_x_x_x_", 0, 1072693248, "]", "[", "slope", "_x_x_x_x_bach_float64_x_x_x_x_", 0, 1071644672, "]", "[", "representation", "]", "[", "grid", "]", "[", "ysnap", "]", "[", "domain", "_x_x_x_x_bach_float64_x_x_x_x_", 0, 0, "_x_x_x_x_bach_float64_x_x_x_x_", 0, 1072693248, "]", "[", "domainslope", "_x_x_x_x_bach_float64_x_x_x_x_", 0, 0, "]", "[", "temporalmode", "relative", "]", "[", "extend", 0, "]", "[", "width", "duration", "]", "[", "height", "auto", "]", "[", "copywhensplit", 1, "]", "[", "access", "readandwrite", "]", "[", "follownotehead", 0, "]", "]", "[", 7, "[", "name", "Envelope 6", "]", "[", "type", "function", "]", "[", "key", 0, "]", "[", "range", "_x_x_x_x_bach_float64_x_x_x_x_", 0, 0, "_x_x_x_x_bach_float64_x_x_x_x_", 0, 1072693248, "]", "[", "slope", "_x_x_x_x_bach_float64_x_x_x_x_", 0, 1071644672, "]", "[", "representation", "]", "[", "grid", "]", "[", "ysnap", "]", "[", "domain", "_x_x_x_x_bach_float64_x_x_x_x_", 0, 0, "_x_x_x_x_bach_float64_x_x_x_x_", 0, 1072693248, "]", "[", "domainslope", "_x_x_x_x_bach_float64_x_x_x_x_", 0, 0, "]", "[", "temporalmode", "relative", "]", "[", "extend", 0, "]", "[", "width", "duration", "]", "[", "height", "auto", "]", "[", "copywhensplit", 0, "]", "[", "access", "readandwrite", "]", "[", "follownotehead", 0, "]", "]", "[", 8, "[", "name", "Envelope 7", "]", "[", "type", "function", "]", "[", "key", 0, "]", "[", "range", "_x_x_x_x_bach_float64_x_x_x_x_", 0, 0, "_x_x_x_x_bach_float64_x_x_x_x_", 0, 1072693248, "]", "[", "slope", "_x_x_x_x_bach_float64_x_x_x_x_", 0, 1071644672, "]", "[", "representation", "]", "[", "grid", "]", "[", "ysnap", "]", "[", "domain", "_x_x_x_x_bach_float64_x_x_x_x_", 0, 0, "_x_x_x_x_bach_float64_x_x_x_x_", 0, 1072693248, "]", "[", "domainslope", "_x_x_x_x_bach_float64_x_x_x_x_", 0, 0, "]", "[", "temporalmode", "relative", "]", "[", "extend", 0, "]", "[", "width", "duration", "]", "[", "height", "auto", "]", "[", "copywhensplit", 1, "]", "[", "access", "readandwrite", "]", "[", "follownotehead", 0, "]", "]", "[", 9, "[", "name", "Envelope 8", "]", "[", "type", "function", "]", "[", "key", 0, "]", "[", "range", "_x_x_x_x_bach_float64_x_x_x_x_", 0, 0, "_x_x_x_x_bach_float64_x_x_x_x_", 0, 1072693248, "]", "[", "slope", "_x_x_x_x_bach_float64_x_x_x_x_", 0, 1071644672, "]", "[", "representation", "]", "[", "grid", "]", "[", "ysnap", "]", "[", "domain", "_x_x_x_x_bach_float64_x_x_x_x_", 0, 0, "_x_x_x_x_bach_float64_x_x_x_x_", 0, 1072693248, "]", "[", "domainslope", "_x_x_x_x_bach_float64_x_x_x_x_", 0, 0, "]", "[", "temporalmode", "relative", "]", "[", "extend", 0, "]", "[", "width", "auto", "]", "[", "height", "auto", "]", "[", "copywhensplit", 0, "]", "[", "access", "readandwrite", "]", "[", "follownotehead", 0, "]", "]", "[", 10, "[", "name", "Envelope 9", "]", "[", "type", "function", "]", "[", "key", 0, "]", "[", "range", "_x_x_x_x_bach_float64_x_x_x_x_", 0, 0, "_x_x_x_x_bach_float64_x_x_x_x_", 0, 1072693248, "]", "[", "slope", "_x_x_x_x_bach_float64_x_x_x_x_", 0, 1071644672, "]", "[", "representation", "]", "[", "grid", "]", "[", "ysnap", "]", "[", "domain", "_x_x_x_x_bach_float64_x_x_x_x_", 0, 0, "_x_x_x_x_bach_float64_x_x_x_x_", 0, 1072693248, "]", "[", "domainslope", "_x_x_x_x_bach_float64_x_x_x_x_", 0, 0, "]", "[", "temporalmode", "relative", "]", "[", "extend", 0, "]", "[", "width", "duration", "]", "[", "height", "auto", "]", "[", "copywhensplit", 0, "]", "[", "access", "readandwrite", "]", "[", "follownotehead", 0, "]", "]", "[", 11, "[", "name", "Envelope 10", "]", "[", "type", "function", "]", "[", "key", 0, "]", "[", "range", "_x_x_x_x_bach_float64_x_x_x_x_", 0, 3226337280, "_x_x_x_x_bach_float64_x_x_x_x_", 0, 0, "]", "[", "slope", "_x_x_x_x_bach_float64_x_x_x_x_", 0, 0, "]", "[", "representation", "]", "[", "grid", "]", "[", "ysnap", "]", "[", "domain", "_x_x_x_x_bach_float64_x_x_x_x_", 0, 0, "_x_x_x_x_bach_float64_x_x_x_x_", 0, 1072693248, "]", "[", "domainslope", "_x_x_x_x_bach_float64_x_x_x_x_", 0, 0, "]", "[", "temporalmode", "relative", "]", "[", "extend", 0, "]", "[", "width", "duration", "]", "[", "height", "auto", "]", "[", "copywhensplit", 1, "]", "[", "access", "readandwrite", "]", "[", "follownotehead", 0, "]", "]", "[", 12, "[", "name", "slot 12", "]", "[", "type", "none", "]", "[", "key", 0, "]", "[", "temporalmode", "none", "]", "[", "extend", 0, "]", "[", "width", "_x_x_x_x_bach_float64_x_x_x_x_", 0, 1079574528, "]", "[", "height", "auto", "]", "[", "copywhensplit", 1, "]", "[", "access", "readandwrite", "]", "[", "follownotehead", 0, "]", "]", "[", 13, "[", "name", "slot 13", "]", "[", "type", "none", "]", "[", "key", 0, "]", "[", "temporalmode", "none", "]", "[", "extend", 0, "]", "[", "width", "_x_x_x_x_bach_float64_x_x_x_x_", 0, 1079574528, "]", "[", "height", "auto", "]", "[", "copywhensplit", 1, "]", "[", "access", "readandwrite", "]", "[", "follownotehead", 0, "]", "]", "[", 14, "[", "name", "slot 14", "]", "[", "type", "none", "]", "[", "key", 0, "]", "[", "temporalmode", "none", "]", "[", "extend", 0, "]", "[", "width", "_x_x_x_x_bach_float64_x_x_x_x_", 0, 1079574528, "]", "[", "height", "auto", "]", "[", "copywhensplit", 1, "]", "[", "access", "readandwrite", "]", "[", "follownotehead", 0, "]", "]", "[", 15, "[", "name", "slot 15", "]", "[", "type", "none", "]", "[", "key", 0, "]", "[", "temporalmode", "none", "]", "[", "extend", 0, "]", "[", "width", "_x_x_x_x_bach_float64_x_x_x_x_", 0, 1079574528, "]", "[", "height", "auto", "]", "[", "copywhensplit", 1, "]", "[", "access", "readandwrite", "]", "[", "follownotehead", 0, "]", "]", "[", 16, "[", "name", "slot 16", "]", "[", "type", "none", "]", "[", "key", 0, "]", "[", "temporalmode", "none", "]", "[", "extend", 0, "]", "[", "width", "_x_x_x_x_bach_float64_x_x_x_x_", 0, 1079574528, "]", "[", "height", "auto", "]", "[", "copywhensplit", 1, "]", "[", "access", "readandwrite", "]", "[", "follownotehead", 0, "]", "]", "[", 17, "[", "name", "slot 17", "]", "[", "type", "none", "]", "[", "key", 0, "]", "[", "temporalmode", "none", "]", "[", "extend", 0, "]", "[", "width", "_x_x_x_x_bach_float64_x_x_x_x_", 0, 1079574528, "]", "[", "height", "auto", "]", "[", "copywhensplit", 1, "]", "[", "access", "readandwrite", "]", "[", "follownotehead", 0, "]", "]", "[", 18, "[", "name", "slot 18", "]", "[", "type", "none", "]", "[", "key", 0, "]", "[", "temporalmode", "none", "]", "[", "extend", 0, "]", "[", "width", "_x_x_x_x_bach_float64_x_x_x_x_", 0, 1079574528, "]", "[", "height", "auto", "]", "[", "copywhensplit", 1, "]", "[", "access", "readandwrite", "]", "[", "follownotehead", 0, "]", "]", "[", 19, "[", "name", "slot 19", "]", "[", "type", "none", "]", "[", "key", 0, "]", "[", "temporalmode", "none", "]", "[", "extend", 0, "]", "[", "width", "_x_x_x_x_bach_float64_x_x_x_x_", 0, 1079574528, "]", "[", "height", "auto", "]", "[", "copywhensplit", 1, "]", "[", "access", "readandwrite", "]", "[", "follownotehead", 0, "]", "]", "[", 20, "[", "name", "dynamics", "]", "[", "type", "dynamics", "]", "[", "key", "d", "]", "[", "temporalmode", "none", "]", "[", "extend", 0, "]", "[", "width", "_x_x_x_x_bach_float64_x_x_x_x_", 0, 1079738368, "]", "[", "height", "auto", "]", "[", "copywhensplit", 0, "]", "[", "access", "readandwrite", "]", "[", "follownotehead", 0, "]", "]", "[", 21, "[", "name", "lyrics", "]", "[", "type", "text", "]", "[", "key", "l", "]", "[", "temporalmode", "none", "]", "[", "extend", 0, "]", "[", "width", "_x_x_x_x_bach_float64_x_x_x_x_", 0, 1079574528, "]", "[", "height", "auto", "]", "[", "copywhensplit", 0, "]", "[", "access", "readandwrite", "]", "[", "follownotehead", 0, "]", "]", "[", 22, "[", "name", "articulations", "]", "[", "type", "articulations", "]", "[", "key", "a", "]", "[", "temporalmode", "none", "]", "[", "extend", 0, "]", "[", "width", "_x_x_x_x_bach_float64_x_x_x_x_", 0, 1079738368, "]", "[", "height", "auto", "]", "[", "copywhensplit", 1, "]", "[", "access", "readandwrite", "]", "[", "follownotehead", 0, "]", "]", "[", 23, "[", "name", "notehead", "]", "[", "type", "notehead", "]", "[", "key", "h", "]", "[", "temporalmode", "none", "]", "[", "extend", 0, "]", "[", "width", "_x_x_x_x_bach_float64_x_x_x_x_", 0, 1079738368, "]", "[", "height", "auto", "]", "[", "copywhensplit", 1, "]", "[", "access", "readandwrite", "]", "[", "follownotehead", 0, "]", "]", "[", 24, "[", "name", "annotation", "]", "[", "type", "text", "]", "[", "key", "t", "]", "[", "temporalmode", "none", "]", "[", "extend", 0, "]", "[", "width", "_x_x_x_x_bach_float64_x_x_x_x_", 0, 1079574528, "]", "[", "height", "auto", "]", "[", "copywhensplit", 1, "]", "[", "access", "readandwrite", "]", "[", "follownotehead", 0, "]", "]", "[", 25, "[", "name", "slot 25", "]", "[", "type", "none", "]", "[", "key", 0, "]", "[", "temporalmode", "none", "]", "[", "extend", 0, "]", "[", "width", "_x_x_x_x_bach_float64_x_x_x_x_", 0, 1079574528, "]", "[", "height", "auto", "]", "[", "copywhensplit", 1, "]", "[", "access", "readandwrite", "]", "[", "follownotehead", 0, "]", "]", "[", 26, "[", "name", "slot 26", "]", "[", "type", "none", "]", "[", "key", 0, "]", "[", "temporalmode", "none", "]", "[", "extend", 0, "]", "[", "width", "_x_x_x_x_bach_float64_x_x_x_x_", 0, 1079574528, "]", "[", "height", "auto", "]", "[", "copywhensplit", 1, "]", "[", "access", "readandwrite", "]", "[", "follownotehead", 0, "]", "]", "[", 27, "[", "name", "slot 27", "]", "[", "type", "none", "]", "[", "key", 0, "]", "[", "temporalmode", "none", "]", "[", "extend", 0, "]", "[", "width", "_x_x_x_x_bach_float64_x_x_x_x_", 0, 1079574528, "]", "[", "height", "auto", "]", "[", "copywhensplit", 1, "]", "[", "access", "readandwrite", "]", "[", "follownotehead", 0, "]", "]", "[", 28, "[", "name", "slot 28", "]", "[", "type", "none", "]", "[", "key", 0, "]", "[", "temporalmode", "none", "]", "[", "extend", 0, "]", "[", "width", "_x_x_x_x_bach_float64_x_x_x_x_", 0, 1079574528, "]", "[", "height", "auto", "]", "[", "copywhensplit", 1, "]", "[", "access", "readandwrite", "]", "[", "follownotehead", 0, "]", "]", "[", 29, "[", "name", "slot 29", "]", "[", "type", "none", "]", "[", "key", 0, "]", "[", "temporalmode", "none", "]", "[", "extend", 0, "]", "[", "width", "_x_x_x_x_bach_float64_x_x_x_x_", 0, 1079574528, "]", "[", "height", "auto", "]", "[", "copywhensplit", 1, "]", "[", "access", "readandwrite", "]", "[", "follownotehead", 0, "]", "]", "[", 30, "[", "name", "slot 30", "]", "[", "type", "none", "]", "[", "key", 0, "]", "[", "temporalmode", "none", "]", "[", "extend", 0, "]", "[", "width", "_x_x_x_x_bach_float64_x_x_x_x_", 0, 1079574528, "]", "[", "height", "auto", "]", "[", "copywhensplit", 1, "]", "[", "access", "readandwrite", "]", "[", "follownotehead", 0, "]", "]", "]", "[", "commands", "[", 1, "[", "note", "note", "]", "[", "chord", "chord", "]", "[", "rest", "rest", "]", "[", "key", 0, "]", "]", "[", 2, "[", "note", "note", "]", "[", "chord", "chord", "]", "[", "rest", "rest", "]", "[", "key", 0, "]", "]", "[", 3, "[", "note", "note", "]", "[", "chord", "chord", "]", "[", "rest", "rest", "]", "[", "key", 0, "]", "]", "[", 4, "[", "note", "note", "]", "[", "chord", "chord", "]", "[", "rest", "rest", "]", "[", "key", 0, "]", "]", "[", 5, "[", "note", "note", "]", "[", "chord", "chord", "]", "[", "rest", "rest", "]", "[", "key", 0, "]", "]", "]", "[", "groups", "]", "[", "markers", "]", "[", "midichannels", 1, "]", "[", "articulationinfo", "]", "[", "noteheadinfo", "]", "[", "[", "_x_x_x_x_bach_float64_x_x_x_x_", 984062907, 1080378596, "[", "_x_x_x_x_bach_float64_x_x_x_x_", 0, 1085609984, "_x_x_x_x_bach_float64_x_x_x_x_", 3282866843, 1087659582, 126, "[", "breakpoints", "[", "_x_x_x_x_bach_float64_x_x_x_x_", 0, 0, "_x_x_x_x_bach_float64_x_x_x_x_", 0, 0, "_x_x_x_x_bach_float64_x_x_x_x_", 0, 0, 126, "]", "[", "_x_x_x_x_bach_float64_x_x_x_x_", 3510190872, 1069695662, "_x_x_x_x_bach_float64_x_x_x_x_", 0, 3231457280, "_x_x_x_x_bach_float64_x_x_x_x_", 2321069046, 1071524836, 85, "]", "[", "_x_x_x_x_bach_float64_x_x_x_x_", 945854878, 1070805207, "_x_x_x_x_bach_float64_x_x_x_x_", 0, 1083359232, "_x_x_x_x_bach_float64_x_x_x_x_", 0, 0, 127, "]", "[", "_x_x_x_x_bach_float64_x_x_x_x_", 2443664593, 1071630998, "_x_x_x_x_bach_float64_x_x_x_x_", 2822171471, 3229284989, "_x_x_x_x_bach_float64_x_x_x_x_", 1717986918, 3217450598, 127, "]", "[", "_x_x_x_x_bach_float64_x_x_x_x_", 4213878313, 1071646894, "_x_x_x_x_bach_float64_x_x_x_x_", 1437061698, 3229286580, "_x_x_x_x_bach_float64_x_x_x_x_", 1717986918, 3217450598, 1, "]", "[", "_x_x_x_x_bach_float64_x_x_x_x_", 1677030766, 1071658671, "_x_x_x_x_bach_float64_x_x_x_x_", 0, 3228745728, "_x_x_x_x_bach_float64_x_x_x_x_", 1717986918, 3216402022, 127, "]", "[", "_x_x_x_x_bach_float64_x_x_x_x_", 951352436, 1071683683, "_x_x_x_x_bach_float64_x_x_x_x_", 0, 3229155328, "_x_x_x_x_bach_float64_x_x_x_x_", 1717986918, 3216402022, 1, "]", "[", "_x_x_x_x_bach_float64_x_x_x_x_", 4039330843, 1071690001, "_x_x_x_x_bach_float64_x_x_x_x_", 0, 0, "_x_x_x_x_bach_float64_x_x_x_x_", 858993460, 1071067955, 127, "]", "[", "_x_x_x_x_bach_float64_x_x_x_x_", 3863958738, 1071709471, "_x_x_x_x_bach_float64_x_x_x_x_", 2733935662, 3229354998, "_x_x_x_x_bach_float64_x_x_x_x_", 3435973841, 3218263244, 1, "]", "[", "_x_x_x_x_bach_float64_x_x_x_x_", 2578629645, 1071731267, "_x_x_x_x_bach_float64_x_x_x_x_", 0, 3229564928, "_x_x_x_x_bach_float64_x_x_x_x_", 1717986918, 3214304870, 127, "]", "[", "_x_x_x_x_bach_float64_x_x_x_x_", 2676211302, 1071743032, "_x_x_x_x_bach_float64_x_x_x_x_", 3256478564, 3229570609, "_x_x_x_x_bach_float64_x_x_x_x_", 1250419599, 3213256227, 3, "]", "[", "_x_x_x_x_bach_float64_x_x_x_x_", 2281968362, 1071746958, "_x_x_x_x_bach_float64_x_x_x_x_", 0, 3230203904, "_x_x_x_x_bach_float64_x_x_x_x_", 2185554238, 3212207785, 127, "]", "[", "_x_x_x_x_bach_float64_x_x_x_x_", 3868081907, 1071762120, "_x_x_x_x_bach_float64_x_x_x_x_", 4189963936, 3229579533, "_x_x_x_x_bach_float64_x_x_x_x_", 0, 0, 1, "]", "[", "_x_x_x_x_bach_float64_x_x_x_x_", 3781495366, 1071770603, "_x_x_x_x_bach_float64_x_x_x_x_", 3358733145, 3229583453, "_x_x_x_x_bach_float64_x_x_x_x_", 0, 0, 127, "]", "[", "_x_x_x_x_bach_float64_x_x_x_x_", 1801608962, 1071779644, "_x_x_x_x_bach_float64_x_x_x_x_", 3966157935, 3229440514, "_x_x_x_x_bach_float64_x_x_x_x_", 0, 0, 32, "]", "[", "_x_x_x_x_bach_float64_x_x_x_x_", 332009174, 1071787321, "_x_x_x_x_bach_float64_x_x_x_x_", 961308457, 3229319140, "_x_x_x_x_bach_float64_x_x_x_x_", 0, 0, 125, "]", "[", "_x_x_x_x_bach_float64_x_x_x_x_", 1987294057, 1071793191, "_x_x_x_x_bach_float64_x_x_x_x_", 1189933737, 3229226324, "_x_x_x_x_bach_float64_x_x_x_x_", 0, 0, 3, "]", "[", "_x_x_x_x_bach_float64_x_x_x_x_", 1351044647, 1071801813, "_x_x_x_x_bach_float64_x_x_x_x_", 0, 1082925056, "_x_x_x_x_bach_float64_x_x_x_x_", 3435973839, 1072090316, 123, "]", "[", "_x_x_x_x_bach_float64_x_x_x_x_", 2658181411, 1071810802, "_x_x_x_x_bach_float64_x_x_x_x_", 1875809561, 3228947876, "_x_x_x_x_bach_float64_x_x_x_x_", 4294967295, 3219390463, 1, "]", "[", "_x_x_x_x_bach_float64_x_x_x_x_", 2279966401, 1071817091, "_x_x_x_x_bach_float64_x_x_x_x_", 0, 1083768832, "_x_x_x_x_bach_float64_x_x_x_x_", 2576980379, 1070176665, 121, "]", "[", "_x_x_x_x_bach_float64_x_x_x_x_", 3159551899, 1071825090, "_x_x_x_x_bach_float64_x_x_x_x_", 3297319840, 3228721968, "_x_x_x_x_bach_float64_x_x_x_x_", 858993460, 3217240883, 11, "]", "[", "_x_x_x_x_bach_float64_x_x_x_x_", 3499712733, 1071830240, "_x_x_x_x_bach_float64_x_x_x_x_", 2123180551, 3228640541, "_x_x_x_x_bach_float64_x_x_x_x_", 0, 0, 119, "]", "[", "_x_x_x_x_bach_float64_x_x_x_x_", 2611065238, 1072497149, "_x_x_x_x_bach_float64_x_x_x_x_", 0, 1084356608, "_x_x_x_x_bach_float64_x_x_x_x_", 2185554238, 3212207785, 96, "]", "[", "_x_x_x_x_bach_float64_x_x_x_x_", 0, 1072693248, "_x_x_x_x_bach_float64_x_x_x_x_", 0, 3231737856, "_x_x_x_x_bach_float64_x_x_x_x_", 115723599, 1070865731, 127, "]", "]", "[", "slots", "[", 1, "[", "_x_x_x_x_bach_float64_x_x_x_x_", 633318698, 1065680640, "_x_x_x_x_bach_float64_x_x_x_x_", 764710337, 1073149586, "_x_x_x_x_bach_float64_x_x_x_x_", 0, 0, "]", "[", "_x_x_x_x_bach_float64_x_x_x_x_", 2615188407, 1070780326, "_x_x_x_x_bach_float64_x_x_x_x_", 0, 1074003968, "_x_x_x_x_bach_float64_x_x_x_x_", 0, 0, "]", "[", "_x_x_x_x_bach_float64_x_x_x_x_", 2118758907, 1070903236, "_x_x_x_x_bach_float64_x_x_x_x_", 201210628, 1073496324, "_x_x_x_x_bach_float64_x_x_x_x_", 0, 0, "]", "[", "_x_x_x_x_bach_float64_x_x_x_x_", 2500839197, 1070976070, "_x_x_x_x_bach_float64_x_x_x_x_", 2282861017, 1073968599, "_x_x_x_x_bach_float64_x_x_x_x_", 0, 0, "]", "[", "_x_x_x_x_bach_float64_x_x_x_x_", 14018773, 1071030693, "_x_x_x_x_bach_float64_x_x_x_x_", 4163300779, 1071802790, "_x_x_x_x_bach_float64_x_x_x_x_", 0, 0, "]", "[", "_x_x_x_x_bach_float64_x_x_x_x_", 4143509569, 1071071662, "_x_x_x_x_bach_float64_x_x_x_x_", 2816948790, 1073843768, "_x_x_x_x_bach_float64_x_x_x_x_", 0, 0, "]", "[", "_x_x_x_x_bach_float64_x_x_x_x_", 3586332052, 1071190017, "_x_x_x_x_bach_float64_x_x_x_x_", 1083018953, 1071361724, "_x_x_x_x_bach_float64_x_x_x_x_", 0, 0, "]", "[", "_x_x_x_x_bach_float64_x_x_x_x_", 3029154535, 1071308372, "_x_x_x_x_bach_float64_x_x_x_x_", 2584676959, 1073993565, "_x_x_x_x_bach_float64_x_x_x_x_", 0, 0, "]", "[", "_x_x_x_x_bach_float64_x_x_x_x_", 1162733546, 1071811626, "_x_x_x_x_bach_float64_x_x_x_x_", 1393630988, 1072040226, "_x_x_x_x_bach_float64_x_x_x_x_", 0, 0, "]", "[", "_x_x_x_x_bach_float64_x_x_x_x_", 581641651, 1072424156, "_x_x_x_x_bach_float64_x_x_x_x_", 0, 1074003968, "_x_x_x_x_bach_float64_x_x_x_x_", 0, 0, "]", "[", "_x_x_x_x_bach_float64_x_x_x_x_", 411492227, 1072658863, "_x_x_x_x_bach_float64_x_x_x_x_", 0, 1074003968, "_x_x_x_x_bach_float64_x_x_x_x_", 0, 0, "]", "]", "[", 2, "[", "_x_x_x_x_bach_float64_x_x_x_x_", 0, 0, "_x_x_x_x_bach_float64_x_x_x_x_", 0, 0, "_x_x_x_x_bach_float64_x_x_x_x_", 0, 0, "]", "[", "_x_x_x_x_bach_float64_x_x_x_x_", 183427822, 1070376751, "_x_x_x_x_bach_float64_x_x_x_x_", 0, 0, "_x_x_x_x_bach_float64_x_x_x_x_", 0, 0, "]", "[", "_x_x_x_x_bach_float64_x_x_x_x_", 0, 1072693248, "_x_x_x_x_bach_float64_x_x_x_x_", 0, 1072693248, "_x_x_x_x_bach_float64_x_x_x_x_", 0, 0, "]", "]", "[", 3, "[", "_x_x_x_x_bach_float64_x_x_x_x_", 0, 0, "_x_x_x_x_bach_float64_x_x_x_x_", 0, 0, "_x_x_x_x_bach_float64_x_x_x_x_", 0, 0, "]", "[", "_x_x_x_x_bach_float64_x_x_x_x_", 1580822843, 1070065793, "_x_x_x_x_bach_float64_x_x_x_x_", 0, 1072693248, "_x_x_x_x_bach_float64_x_x_x_x_", 0, 0, "]", "[", "_x_x_x_x_bach_float64_x_x_x_x_", 4073965459, 1071011587, "_x_x_x_x_bach_float64_x_x_x_x_", 0, 0, "_x_x_x_x_bach_float64_x_x_x_x_", 0, 0, "]", "[", "_x_x_x_x_bach_float64_x_x_x_x_", 295493750, 1071889829, "_x_x_x_x_bach_float64_x_x_x_x_", 3885124337, 1072676602, "_x_x_x_x_bach_float64_x_x_x_x_", 0, 0, "]", "[", "_x_x_x_x_bach_float64_x_x_x_x_", 2449162151, 1072312866, "_x_x_x_x_bach_float64_x_x_x_x_", 3544275732, 1070672658, "_x_x_x_x_bach_float64_x_x_x_x_", 0, 0, "]", "[", "_x_x_x_x_bach_float64_x_x_x_x_", 443378064, 1072491483, "_x_x_x_x_bach_float64_x_x_x_x_", 0, 1072693248, "_x_x_x_x_bach_float64_x_x_x_x_", 0, 0, "]", "[", "_x_x_x_x_bach_float64_x_x_x_x_", 0, 1072693248, "_x_x_x_x_bach_float64_x_x_x_x_", 4033833284, 1069074821, "_x_x_x_x_bach_float64_x_x_x_x_", 0, 0, "]", "]", "[", 4, "[", "_x_x_x_x_bach_float64_x_x_x_x_", 0, 0, "_x_x_x_x_bach_float64_x_x_x_x_", 0, 0, "_x_x_x_x_bach_float64_x_x_x_x_", 0, 0, "]", "[", "_x_x_x_x_bach_float64_x_x_x_x_", 2468953360, 1069865498, "_x_x_x_x_bach_float64_x_x_x_x_", 0, 1072693248, "_x_x_x_x_bach_float64_x_x_x_x_", 0, 0, "]", "[", "_x_x_x_x_bach_float64_x_x_x_x_", 3507716971, 1070968239, "_x_x_x_x_bach_float64_x_x_x_x_", 0, 1072693248, "_x_x_x_x_bach_float64_x_x_x_x_", 0, 0, "]", "[", "_x_x_x_x_bach_float64_x_x_x_x_", 1755370314, 1071759390, "_x_x_x_x_bach_float64_x_x_x_x_", 711384023, 1071391684, "_x_x_x_x_bach_float64_x_x_x_x_", 0, 0, "]", "[", "_x_x_x_x_bach_float64_x_x_x_x_", 3207000540, 1072080709, "_x_x_x_x_bach_float64_x_x_x_x_", 0, 0, "_x_x_x_x_bach_float64_x_x_x_x_", 0, 0, "]", "[", "_x_x_x_x_bach_float64_x_x_x_x_", 0, 1072693248, "_x_x_x_x_bach_float64_x_x_x_x_", 0, 1072693248, "_x_x_x_x_bach_float64_x_x_x_x_", 0, 0, "]", "]", "[", 5, "[", "_x_x_x_x_bach_float64_x_x_x_x_", 0, 0, "_x_x_x_x_bach_float64_x_x_x_x_", 0, 0, "_x_x_x_x_bach_float64_x_x_x_x_", 0, 0, "]", "[", "_x_x_x_x_bach_float64_x_x_x_x_", 2021177250, 1068335567, "_x_x_x_x_bach_float64_x_x_x_x_", 1470596802, 1072476874, "_x_x_x_x_bach_float64_x_x_x_x_", 0, 0, "]", "[", "_x_x_x_x_bach_float64_x_x_x_x_", 407643936, 1069206221, "_x_x_x_x_bach_float64_x_x_x_x_", 0, 0, "_x_x_x_x_bach_float64_x_x_x_x_", 0, 0, "]", "[", "_x_x_x_x_bach_float64_x_x_x_x_", 3488475517, 1071268677, "_x_x_x_x_bach_float64_x_x_x_x_", 3815030470, 1072436929, "_x_x_x_x_bach_float64_x_x_x_x_", 0, 0, "]", "[", "_x_x_x_x_bach_float64_x_x_x_x_", 1136620145, 1071685713, "_x_x_x_x_bach_float64_x_x_x_x_", 0, 0, "_x_x_x_x_bach_float64_x_x_x_x_", 0, 0, "]", "[", "_x_x_x_x_bach_float64_x_x_x_x_", 1261689593, 1072157698, "_x_x_x_x_bach_float64_x_x_x_x_", 0, 1072693248, "_x_x_x_x_bach_float64_x_x_x_x_", 0, 0, "]", "[", "_x_x_x_x_bach_float64_x_x_x_x_", 0, 1072693248, "_x_x_x_x_bach_float64_x_x_x_x_", 711384023, 1071391684, "_x_x_x_x_bach_float64_x_x_x_x_", 0, 0, "]", "]", "[", 6, "[", "_x_x_x_x_bach_float64_x_x_x_x_", 0, 0, "_x_x_x_x_bach_float64_x_x_x_x_", 0, 0, "_x_x_x_x_bach_float64_x_x_x_x_", 0, 0, "]", "[", "_x_x_x_x_bach_float64_x_x_x_x_", 2755101261, 1067680081, "_x_x_x_x_bach_float64_x_x_x_x_", 2840313412, 1071957579, "_x_x_x_x_bach_float64_x_x_x_x_", 0, 0, "]", "[", "_x_x_x_x_bach_float64_x_x_x_x_", 3696008337, 1068599338, "_x_x_x_x_bach_float64_x_x_x_x_", 1501383128, 1069394394, "_x_x_x_x_bach_float64_x_x_x_x_", 0, 0, "]", "[", "_x_x_x_x_bach_float64_x_x_x_x_", 1467298267, 1069072758, "_x_x_x_x_bach_float64_x_x_x_x_", 3351036564, 1072277145, "_x_x_x_x_bach_float64_x_x_x_x_", 0, 0, "]", "[", "_x_x_x_x_bach_float64_x_x_x_x_", 2492592860, 1069560052, "_x_x_x_x_bach_float64_x_x_x_x_", 3946696988, 1071754522, "_x_x_x_x_bach_float64_x_x_x_x_", 0, 0, "]", "[", "_x_x_x_x_bach_float64_x_x_x_x_", 1811170529, 1070639083, "_x_x_x_x_bach_float64_x_x_x_x_", 3946696988, 1071754522, "_x_x_x_x_bach_float64_x_x_x_x_", 0, 0, "]", "[", "_x_x_x_x_bach_float64_x_x_x_x_", 3990402575, 1071663795, "_x_x_x_x_bach_float64_x_x_x_x_", 1470596802, 1072476874, "_x_x_x_x_bach_float64_x_x_x_x_", 0, 0, "]", "[", "_x_x_x_x_bach_float64_x_x_x_x_", 2675386668, 1072014307, "_x_x_x_x_bach_float64_x_x_x_x_", 2793584168, 1071797797, "_x_x_x_x_bach_float64_x_x_x_x_", 0, 0, "]", "[", "_x_x_x_x_bach_float64_x_x_x_x_", 2290007843, 1072469517, "_x_x_x_x_bach_float64_x_x_x_x_", 0, 1072693248, "_x_x_x_x_bach_float64_x_x_x_x_", 0, 0, "]", "[", "_x_x_x_x_bach_float64_x_x_x_x_", 3719647837, 1072553732, "_x_x_x_x_bach_float64_x_x_x_x_", 711384023, 1071391684, "_x_x_x_x_bach_float64_x_x_x_x_", 0, 0, "]", "[", "_x_x_x_x_bach_float64_x_x_x_x_", 0, 1072693248, "_x_x_x_x_bach_float64_x_x_x_x_", 1314466151, 1068755266, "_x_x_x_x_bach_float64_x_x_x_x_", 0, 0, "]", "]", "[", 7, "[", "_x_x_x_x_bach_float64_x_x_x_x_", 3812786867, 1061712576, "_x_x_x_x_bach_float64_x_x_x_x_", 0, 0, "_x_x_x_x_bach_float64_x_x_x_x_", 0, 0, "]", "[", "_x_x_x_x_bach_float64_x_x_x_x_", 3583308395, 1069628788, "_x_x_x_x_bach_float64_x_x_x_x_", 1912325599, 1070589435, "_x_x_x_x_bach_float64_x_x_x_x_", 0, 0, "]", "[", "_x_x_x_x_bach_float64_x_x_x_x_", 1587694791, 1070754288, "_x_x_x_x_bach_float64_x_x_x_x_", 936509029, 1072077417, "_x_x_x_x_bach_float64_x_x_x_x_", 0, 0, "]", "[", "_x_x_x_x_bach_float64_x_x_x_x_", 317483983, 1070881749, "_x_x_x_x_bach_float64_x_x_x_x_", 3544275732, 1070672658, "_x_x_x_x_bach_float64_x_x_x_x_", 0, 0, "]", "[", "_x_x_x_x_bach_float64_x_x_x_x_", 2125630854, 1070936371, "_x_x_x_x_bach_float64_x_x_x_x_", 3327671941, 1072197254, "_x_x_x_x_bach_float64_x_x_x_x_", 0, 0, "]", "[", "_x_x_x_x_bach_float64_x_x_x_x_", 1020896546, 1071022862, "_x_x_x_x_bach_float64_x_x_x_x_", 3984905017, 1070752551, "_x_x_x_x_bach_float64_x_x_x_x_", 0, 0, "]", "[", "_x_x_x_x_bach_float64_x_x_x_x_", 142386756, 1071072938, "_x_x_x_x_bach_float64_x_x_x_x_", 3885124337, 1072676602, "_x_x_x_x_bach_float64_x_x_x_x_", 0, 0, "]", "[", "_x_x_x_x_bach_float64_x_x_x_x_", 298242529, 1071182187, "_x_x_x_x_bach_float64_x_x_x_x_", 317483983, 1071471573, "_x_x_x_x_bach_float64_x_x_x_x_", 0, 0, "]", "[", "_x_x_x_x_bach_float64_x_x_x_x_", 1775436401, 1071318749, "_x_x_x_x_bach_float64_x_x_x_x_", 1911226087, 1072556767, "_x_x_x_x_bach_float64_x_x_x_x_", 0, 0, "]", "[", "_x_x_x_x_bach_float64_x_x_x_x_", 4252636098, 1071414345, "_x_x_x_x_bach_float64_x_x_x_x_", 317483983, 1071471573, "_x_x_x_x_bach_float64_x_x_x_x_", 0, 0, "]", "[", "_x_x_x_x_bach_float64_x_x_x_x_", 1383735384, 1071920422, "_x_x_x_x_bach_float64_x_x_x_x_", 0, 0, "_x_x_x_x_bach_float64_x_x_x_x_", 0, 0, "]", "[", "_x_x_x_x_bach_float64_x_x_x_x_", 265257180, 1072301091, "_x_x_x_x_bach_float64_x_x_x_x_", 959873651, 1072157308, "_x_x_x_x_bach_float64_x_x_x_x_", 0, 0, "]", "[", "_x_x_x_x_bach_float64_x_x_x_x_", 0, 1072693248, "_x_x_x_x_bach_float64_x_x_x_x_", 1725408622, 1069950307, "_x_x_x_x_bach_float64_x_x_x_x_", 0, 0, "]", "]", "[", 8, "[", "_x_x_x_x_bach_float64_x_x_x_x_", 397907623, 1064835304, "_x_x_x_x_bach_float64_x_x_x_x_", 0, 0, "_x_x_x_x_bach_float64_x_x_x_x_", 0, 0, "]", "[", "_x_x_x_x_bach_float64_x_x_x_x_", 859818093, 1067716488, "_x_x_x_x_bach_float64_x_x_x_x_", 2770219546, 1071717906, "_x_x_x_x_bach_float64_x_x_x_x_", 0, 0, "]", "[", "_x_x_x_x_bach_float64_x_x_x_x_", 1818317354, 1069926433, "_x_x_x_x_bach_float64_x_x_x_x_", 0, 0, "_x_x_x_x_bach_float64_x_x_x_x_", 0, 0, "]", "[", "_x_x_x_x_bach_float64_x_x_x_x_", 2332613918, 1071200394, "_x_x_x_x_bach_float64_x_x_x_x_", 0, 1072693248, "_x_x_x_x_bach_float64_x_x_x_x_", 0, 0, "]", "[", "_x_x_x_x_bach_float64_x_x_x_x_", 2102815988, 1071691438, "_x_x_x_x_bach_float64_x_x_x_x_", 0, 0, "_x_x_x_x_bach_float64_x_x_x_x_", 0, 0, "]", "[", "_x_x_x_x_bach_float64_x_x_x_x_", 3620966668, 1072346611, "_x_x_x_x_bach_float64_x_x_x_x_", 3815030470, 1072436929, "_x_x_x_x_bach_float64_x_x_x_x_", 0, 0, "]", "[", "_x_x_x_x_bach_float64_x_x_x_x_", 2114910616, 1072660706, "_x_x_x_x_bach_float64_x_x_x_x_", 3885124337, 1072676602, "_x_x_x_x_bach_float64_x_x_x_x_", 0, 0, "]", "]", "[", 9, "[", "_x_x_x_x_bach_float64_x_x_x_x_", 0, 0, "_x_x_x_x_bach_float64_x_x_x_x_", 0, 0, "_x_x_x_x_bach_float64_x_x_x_x_", 0, 0, "]", "[", "_x_x_x_x_bach_float64_x_x_x_x_", 3809532912, 1069592373, "_x_x_x_x_bach_float64_x_x_x_x_", 1400502936, 1072237201, "_x_x_x_x_bach_float64_x_x_x_x_", 0, 0, "]", "[", "_x_x_x_x_bach_float64_x_x_x_x_", 1021446302, 1070776476, "_x_x_x_x_bach_float64_x_x_x_x_", 0, 0, "_x_x_x_x_bach_float64_x_x_x_x_", 0, 0, "]", "[", "_x_x_x_x_bach_float64_x_x_x_x_", 77515570, 1071736630, "_x_x_x_x_bach_float64_x_x_x_x_", 0, 1072693248, "_x_x_x_x_bach_float64_x_x_x_x_", 0, 0, "]", "[", "_x_x_x_x_bach_float64_x_x_x_x_", 2939544337, 1072180458, "_x_x_x_x_bach_float64_x_x_x_x_", 1934590709, 1072636658, "_x_x_x_x_bach_float64_x_x_x_x_", 0, 0, "]", "[", "_x_x_x_x_bach_float64_x_x_x_x_", 3463736505, 1072492879, "_x_x_x_x_bach_float64_x_x_x_x_", 0, 0, "_x_x_x_x_bach_float64_x_x_x_x_", 0, 0, "]", "[", "_x_x_x_x_bach_float64_x_x_x_x_", 0, 1072693248, "_x_x_x_x_bach_float64_x_x_x_x_", 1470596802, 1072476874, "_x_x_x_x_bach_float64_x_x_x_x_", 0, 0, "]", "]", "[", 10, "[", "_x_x_x_x_bach_float64_x_x_x_x_", 0, 0, "_x_x_x_x_bach_float64_x_x_x_x_", 0, 0, "_x_x_x_x_bach_float64_x_x_x_x_", 0, 0, "]", "[", "_x_x_x_x_bach_float64_x_x_x_x_", 2355010508, 1069954444, "_x_x_x_x_bach_float64_x_x_x_x_", 2081866093, 1072588390, "_x_x_x_x_bach_float64_x_x_x_x_", 0, 0, "]", "[", "_x_x_x_x_bach_float64_x_x_x_x_", 74500313, 1070788071, "_x_x_x_x_bach_float64_x_x_x_x_", 155096043, 1071504862, "_x_x_x_x_bach_float64_x_x_x_x_", 0, 0, "]", "[", "_x_x_x_x_bach_float64_x_x_x_x_", 2324642459, 1071463423, "_x_x_x_x_bach_float64_x_x_x_x_", 0, 0, "_x_x_x_x_bach_float64_x_x_x_x_", 0, 0, "]", "[", "_x_x_x_x_bach_float64_x_x_x_x_", 546456356, 1071701162, "_x_x_x_x_bach_float64_x_x_x_x_", 0, 1072693248, "_x_x_x_x_bach_float64_x_x_x_x_", 0, 0, "]", "[", "_x_x_x_x_bach_float64_x_x_x_x_", 526783673, 1072045902, "_x_x_x_x_bach_float64_x_x_x_x_", 650210327, 1072238865, "_x_x_x_x_bach_float64_x_x_x_x_", 0, 0, "]", "[", "_x_x_x_x_bach_float64_x_x_x_x_", 4266805779, 1072362631, "_x_x_x_x_bach_float64_x_x_x_x_", 0, 1072693248, "_x_x_x_x_bach_float64_x_x_x_x_", 0, 0, "]", "[", "_x_x_x_x_bach_float64_x_x_x_x_", 0, 1072693248, "_x_x_x_x_bach_float64_x_x_x_x_", 1813430647, 1067520274, "_x_x_x_x_bach_float64_x_x_x_x_", 0, 0, "]", "]", "[", 11, "[", "_x_x_x_x_bach_float64_x_x_x_x_", 2720191767, 1066515608, "_x_x_x_x_bach_float64_x_x_x_x_", 1056355796, 3223147861, "_x_x_x_x_bach_float64_x_x_x_x_", 0, 0, "]", "[", "_x_x_x_x_bach_float64_x_x_x_x_", 943106099, 1069481233, "_x_x_x_x_bach_float64_x_x_x_x_", 0, 3225616384, "_x_x_x_x_bach_float64_x_x_x_x_", 0, 0, "]", "[", "_x_x_x_x_bach_float64_x_x_x_x_", 3806784133, 1070627695, "_x_x_x_x_bach_float64_x_x_x_x_", 0, 3225747456, "_x_x_x_x_bach_float64_x_x_x_x_", 0, 0, "]", "[", "_x_x_x_x_bach_float64_x_x_x_x_", 2420025093, 1070822332, "_x_x_x_x_bach_float64_x_x_x_x_", 2957136523, 3225201322, "_x_x_x_x_bach_float64_x_x_x_x_", 0, 0, "]", "[", "_x_x_x_x_bach_float64_x_x_x_x_", 869713698, 1071702916, "_x_x_x_x_bach_float64_x_x_x_x_", 0, 3225616384, "_x_x_x_x_bach_float64_x_x_x_x_", 0, 0, "]", "[", "_x_x_x_x_bach_float64_x_x_x_x_", 757288634, 1072052117, "_x_x_x_x_bach_float64_x_x_x_x_", 3238611500, 3222448810, "_x_x_x_x_bach_float64_x_x_x_x_", 0, 0, "]", "[", "_x_x_x_x_bach_float64_x_x_x_x_", 3623715447, 1072687545, "_x_x_x_x_bach_float64_x_x_x_x_", 2816399035, 3226053290, "_x_x_x_x_bach_float64_x_x_x_x_", 0, 0, "]", "]", "]", 0, "]", 0, "]", 0, "]" ],
					"whole_roll_data_count" : [ 1 ],
					"zoom" : 28.0
				}

			}
 ],
		"lines" : [ 			{
				"patchline" : 				{
					"destination" : [ "obj-106", 1 ],
					"source" : [ "obj-105", 0 ]
				}

			}
, 			{
				"patchline" : 				{
					"destination" : [ "obj-107", 0 ],
					"source" : [ "obj-106", 0 ]
				}

			}
, 			{
				"patchline" : 				{
					"destination" : [ "obj-68", 0 ],
					"source" : [ "obj-107", 0 ]
				}

			}
, 			{
				"patchline" : 				{
					"destination" : [ "obj-35", 1 ],
					"source" : [ "obj-11", 1 ]
				}

			}
, 			{
				"patchline" : 				{
					"destination" : [ "obj-35", 0 ],
					"source" : [ "obj-11", 0 ]
				}

			}
, 			{
				"patchline" : 				{
					"destination" : [ "obj-24", 0 ],
					"source" : [ "obj-16", 0 ]
				}

			}
, 			{
				"patchline" : 				{
					"destination" : [ "obj-47", 0 ],
					"source" : [ "obj-169", 0 ]
				}

			}
, 			{
				"patchline" : 				{
					"destination" : [ "obj-19", 0 ],
					"source" : [ "obj-17", 0 ]
				}

			}
, 			{
				"patchline" : 				{
					"destination" : [ "obj-51", 0 ],
					"midpoints" : [ 427.500005722045898, 173.333335757255554, 1526.833335161209106, 173.333335757255554 ],
					"order" : 0,
					"source" : [ "obj-183", 0 ]
				}

			}
, 			{
				"patchline" : 				{
					"destination" : [ "obj-74", 0 ],
					"order" : 1,
					"source" : [ "obj-183", 0 ]
				}

			}
, 			{
				"patchline" : 				{
					"destination" : [ "obj-20", 0 ],
					"source" : [ "obj-19", 0 ]
				}

			}
, 			{
				"patchline" : 				{
					"destination" : [ "obj-3", 0 ],
					"source" : [ "obj-22", 0 ]
				}

			}
, 			{
				"patchline" : 				{
					"destination" : [ "obj-25", 0 ],
					"source" : [ "obj-23", 0 ]
				}

			}
, 			{
				"patchline" : 				{
					"destination" : [ "obj-3", 0 ],
					"source" : [ "obj-24", 0 ]
				}

			}
, 			{
				"patchline" : 				{
					"destination" : [ "obj-32", 0 ],
					"source" : [ "obj-25", 0 ]
				}

			}
, 			{
				"patchline" : 				{
					"color" : [ 1.0, 0.0, 0.956862745098039, 1.0 ],
					"destination" : [ "obj-34", 1 ],
					"midpoints" : [ 358.83333683013916, 630.0, 741.0, 630.0, 741.0, 726.0, 772.619051115853381, 726.0 ],
					"source" : [ "obj-26", 0 ]
				}

			}
, 			{
				"patchline" : 				{
					"color" : [ 1.0, 0.0, 0.956862745098039, 1.0 ],
					"destination" : [ "obj-26", 0 ],
					"source" : [ "obj-27", 0 ]
				}

			}
, 			{
				"patchline" : 				{
					"destination" : [ "obj-30", 0 ],
					"source" : [ "obj-28", 0 ]
				}

			}
, 			{
				"patchline" : 				{
					"destination" : [ "obj-17", 0 ],
					"source" : [ "obj-3", 0 ]
				}

			}
, 			{
				"patchline" : 				{
					"destination" : [ "obj-22", 0 ],
					"source" : [ "obj-30", 0 ]
				}

			}
, 			{
				"patchline" : 				{
					"destination" : [ "obj-74", 0 ],
					"source" : [ "obj-31", 0 ]
				}

			}
, 			{
				"patchline" : 				{
					"destination" : [ "obj-106", 0 ],
					"source" : [ "obj-32", 0 ]
				}

			}
, 			{
				"patchline" : 				{
					"destination" : [ "obj-11", 1 ],
					"order" : 0,
					"source" : [ "obj-33", 1 ]
				}

			}
, 			{
				"patchline" : 				{
					"destination" : [ "obj-11", 0 ],
					"order" : 2,
					"source" : [ "obj-33", 0 ]
				}

			}
, 			{
				"patchline" : 				{
					"destination" : [ "obj-13", 0 ],
					"order" : 1,
					"source" : [ "obj-33", 1 ]
				}

			}
, 			{
				"patchline" : 				{
					"destination" : [ "obj-13", 0 ],
					"order" : 0,
					"source" : [ "obj-33", 0 ]
				}

			}
, 			{
				"patchline" : 				{
					"destination" : [ "obj-52", 0 ],
					"order" : 2,
					"source" : [ "obj-33", 1 ]
				}

			}
, 			{
				"patchline" : 				{
					"destination" : [ "obj-52", 0 ],
					"order" : 1,
					"source" : [ "obj-33", 0 ]
				}

			}
, 			{
				"patchline" : 				{
					"destination" : [ "obj-39", 0 ],
					"order" : 1,
					"source" : [ "obj-34", 0 ]
				}

			}
, 			{
				"patchline" : 				{
					"destination" : [ "obj-41", 0 ],
					"midpoints" : [ 289.619051115853381, 804.0, 796.0, 804.0, 796.0, 756.0, 819.595241592043749, 756.0 ],
					"order" : 0,
					"source" : [ "obj-34", 0 ]
				}

			}
, 			{
				"patchline" : 				{
					"destination" : [ "obj-3", 1 ],
					"order" : 0,
					"source" : [ "obj-35", 1 ]
				}

			}
, 			{
				"patchline" : 				{
					"destination" : [ "obj-3", 0 ],
					"order" : 0,
					"source" : [ "obj-35", 0 ]
				}

			}
, 			{
				"patchline" : 				{
					"destination" : [ "obj-38", 1 ],
					"order" : 1,
					"source" : [ "obj-35", 1 ]
				}

			}
, 			{
				"patchline" : 				{
					"destination" : [ "obj-38", 0 ],
					"order" : 1,
					"source" : [ "obj-35", 0 ]
				}

			}
, 			{
				"patchline" : 				{
					"color" : [ 0.0, 0.968627450980392, 1.0, 1.0 ],
					"destination" : [ "obj-105", 0 ],
					"source" : [ "obj-36", 0 ]
				}

			}
, 			{
				"patchline" : 				{
					"color" : [ 1.0, 0.0, 0.956862745098039, 1.0 ],
					"destination" : [ "obj-27", 0 ],
					"source" : [ "obj-37", 0 ]
				}

			}
, 			{
				"patchline" : 				{
					"destination" : [ "obj-65", 0 ],
					"source" : [ "obj-39", 0 ]
				}

			}
, 			{
				"patchline" : 				{
					"destination" : [ "obj-33", 0 ],
					"source" : [ "obj-40", 0 ]
				}

			}
, 			{
				"patchline" : 				{
					"destination" : [ "obj-72", 0 ],
					"midpoints" : [ 605.261897490137926, 153.0, 546.0, 153.0, 546.0, 147.0, 459.0, 147.0, 459.0, 171.0, 150.0, 171.0, 150.0, 369.0, 188.845238254183414, 369.0 ],
					"source" : [ "obj-43", 0 ]
				}

			}
, 			{
				"patchline" : 				{
					"destination" : [ "obj-74", 0 ],
					"source" : [ "obj-44", 0 ]
				}

			}
, 			{
				"patchline" : 				{
					"destination" : [ "obj-74", 0 ],
					"source" : [ "obj-45", 0 ]
				}

			}
, 			{
				"patchline" : 				{
					"destination" : [ "obj-74", 0 ],
					"source" : [ "obj-47", 0 ]
				}

			}
, 			{
				"patchline" : 				{
					"destination" : [ "obj-5", 1 ],
					"order" : 0,
					"source" : [ "obj-49", 0 ]
				}

			}
, 			{
				"patchline" : 				{
					"destination" : [ "obj-90", 1 ],
					"order" : 1,
					"source" : [ "obj-49", 0 ]
				}

			}
, 			{
				"patchline" : 				{
					"destination" : [ "obj-31", 0 ],
					"source" : [ "obj-50", 0 ]
				}

			}
, 			{
				"patchline" : 				{
					"destination" : [ "obj-67", 0 ],
					"source" : [ "obj-51", 0 ]
				}

			}
, 			{
				"patchline" : 				{
					"color" : [ 0.0, 0.968627450980392, 1.0, 1.0 ],
					"destination" : [ "obj-9", 0 ],
					"source" : [ "obj-53", 0 ]
				}

			}
, 			{
				"patchline" : 				{
					"destination" : [ "obj-74", 0 ],
					"midpoints" : [ 173.345238254183414, 504.000015020370483, 120.000003576278687, 504.000015020370483, 120.000003576278687, 173.333338499069214, 173.345238254183414, 173.333338499069214 ],
					"source" : [ "obj-56", 0 ]
				}

			}
, 			{
				"patchline" : 				{
					"color" : [ 1.0, 0.0, 0.956862745098039, 1.0 ],
					"destination" : [ "obj-37", 0 ],
					"source" : [ "obj-57", 1 ]
				}

			}
, 			{
				"patchline" : 				{
					"color" : [ 0.0, 0.968627450980392, 1.0, 1.0 ],
					"destination" : [ "obj-53", 0 ],
					"source" : [ "obj-57", 0 ]
				}

			}
, 			{
				"patchline" : 				{
					"color" : [ 1.0, 0.772549019607843, 0.0, 1.0 ],
					"destination" : [ "obj-67", 0 ],
					"source" : [ "obj-6", 0 ]
				}

			}
, 			{
				"patchline" : 				{
					"color" : [ 1.0, 0.772549019607843, 0.0, 1.0 ],
					"destination" : [ "obj-65", 1 ],
					"source" : [ "obj-64", 0 ]
				}

			}
, 			{
				"patchline" : 				{
					"destination" : [ "obj-40", 0 ],
					"source" : [ "obj-65", 0 ]
				}

			}
, 			{
				"patchline" : 				{
					"color" : [ 1.0, 0.772549019607843, 0.0, 1.0 ],
					"destination" : [ "obj-64", 0 ],
					"source" : [ "obj-67", 0 ]
				}

			}
, 			{
				"patchline" : 				{
					"destination" : [ "obj-90", 0 ],
					"source" : [ "obj-68", 0 ]
				}

			}
, 			{
				"patchline" : 				{
					"destination" : [ "obj-23", 1 ],
					"source" : [ "obj-71", 4 ]
				}

			}
, 			{
				"patchline" : 				{
					"destination" : [ "obj-23", 0 ],
					"order" : 1,
					"source" : [ "obj-71", 2 ]
				}

			}
, 			{
				"patchline" : 				{
					"destination" : [ "obj-49", 8 ],
					"source" : [ "obj-71", 12 ]
				}

			}
, 			{
				"patchline" : 				{
					"destination" : [ "obj-49", 7 ],
					"source" : [ "obj-71", 11 ]
				}

			}
, 			{
				"patchline" : 				{
					"destination" : [ "obj-49", 6 ],
					"source" : [ "obj-71", 10 ]
				}

			}
, 			{
				"patchline" : 				{
					"destination" : [ "obj-49", 5 ],
					"source" : [ "obj-71", 9 ]
				}

			}
, 			{
				"patchline" : 				{
					"destination" : [ "obj-49", 4 ],
					"source" : [ "obj-71", 8 ]
				}

			}
, 			{
				"patchline" : 				{
					"destination" : [ "obj-49", 3 ],
					"source" : [ "obj-71", 7 ]
				}

			}
, 			{
				"patchline" : 				{
					"destination" : [ "obj-49", 2 ],
					"source" : [ "obj-71", 6 ]
				}

			}
, 			{
				"patchline" : 				{
					"destination" : [ "obj-49", 1 ],
					"source" : [ "obj-71", 5 ]
				}

			}
, 			{
				"patchline" : 				{
					"color" : [ 0.131344810128212, 0.999677240848541, 0.023624084889889, 1.0 ],
					"destination" : [ "obj-49", 0 ],
					"order" : 0,
					"source" : [ "obj-71", 2 ]
				}

			}
, 			{
				"patchline" : 				{
					"color" : [ 0.36078431372549, 0.0, 1.0, 1.0 ],
					"destination" : [ "obj-57", 3 ],
					"source" : [ "obj-71", 3 ]
				}

			}
, 			{
				"patchline" : 				{
					"color" : [ 1.0, 0.772549019607843, 0.0, 1.0 ],
					"destination" : [ "obj-57", 2 ],
					"order" : 2,
					"source" : [ "obj-71", 2 ]
				}

			}
, 			{
				"patchline" : 				{
					"color" : [ 1.0, 0.0, 0.956862745098039, 1.0 ],
					"destination" : [ "obj-57", 1 ],
					"source" : [ "obj-71", 1 ]
				}

			}
, 			{
				"patchline" : 				{
					"color" : [ 0.0, 0.968627450980392, 1.0, 1.0 ],
					"destination" : [ "obj-57", 0 ],
					"source" : [ "obj-71", 0 ]
				}

			}
, 			{
				"patchline" : 				{
					"destination" : [ "obj-6", 0 ],
					"source" : [ "obj-71", 13 ]
				}

			}
, 			{
				"patchline" : 				{
					"destination" : [ "obj-56", 0 ],
					"source" : [ "obj-72", 0 ]
				}

			}
, 			{
				"patchline" : 				{
					"destination" : [ "obj-56", 0 ],
					"source" : [ "obj-74", 0 ]
				}

			}
, 			{
				"patchline" : 				{
					"destination" : [ "obj-71", 0 ],
					"source" : [ "obj-74", 6 ]
				}

			}
, 			{
				"patchline" : 				{
					"color" : [ 0.0, 0.968627450980392, 1.0, 1.0 ],
					"destination" : [ "obj-36", 0 ],
					"source" : [ "obj-9", 0 ]
				}

			}
, 			{
				"patchline" : 				{
					"destination" : [ "obj-34", 0 ],
					"order" : 1,
					"source" : [ "obj-90", 0 ]
				}

			}
, 			{
				"patchline" : 				{
					"destination" : [ "obj-4", 0 ],
					"order" : 0,
					"source" : [ "obj-90", 0 ]
				}

			}
 ],
		"parameters" : 		{
			"obj-11::obj-23" : [ "bypass[1]", "bypass", 0 ],
			"obj-11::obj-28" : [ "Size[1]", "Size", 0 ],
			"obj-11::obj-3" : [ "Regen[1]", "Regen", 0 ],
			"obj-11::obj-60" : [ "Damp[1]", "Damp", 0 ],
			"obj-11::obj-62" : [ "Dry[1]", "Dry", 0 ],
			"obj-11::obj-63" : [ "Early[1]", "Early", 0 ],
			"obj-11::obj-64" : [ "Tail[1]", "Tail", 0 ],
			"obj-11::obj-65" : [ "Spread[1]", "Spread", 0 ],
			"obj-11::obj-66" : [ "Time[1]", "Time", 0 ],
			"obj-35" : [ "Main Output Gain", "Main Output Gain", 0 ],
			"obj-4" : [ "mc.live.gain~[1]", "mc.live.gain~", 0 ],
			"obj-41" : [ "mc.live.gain~", "mc.live.gain~", 0 ],
			"parameterbanks" : 			{

			}
,
			"parameter_overrides" : 			{
				"obj-11::obj-23" : 				{
					"parameter_longname" : "bypass[1]"
				}
,
				"obj-11::obj-28" : 				{
					"parameter_longname" : "Size[1]"
				}
,
				"obj-11::obj-3" : 				{
					"parameter_longname" : "Regen[1]"
				}
,
				"obj-11::obj-60" : 				{
					"parameter_longname" : "Damp[1]"
				}
,
				"obj-11::obj-62" : 				{
					"parameter_longname" : "Dry[1]"
				}
,
				"obj-11::obj-63" : 				{
					"parameter_longname" : "Early[1]"
				}
,
				"obj-11::obj-64" : 				{
					"parameter_longname" : "Tail[1]"
				}
,
				"obj-11::obj-65" : 				{
					"parameter_longname" : "Spread[1]"
				}
,
				"obj-11::obj-66" : 				{
					"parameter_longname" : "Time[1]"
				}

			}
,
			"inherited_shortname" : 1
		}
,
		"dependency_cache" : [ 			{
				"name" : "bach.+.maxpat",
				"bootpath" : "~/Documents/Max 8/Packages/bach/patchers",
				"patcherrelativepath" : "../../Documents/Max 8/Packages/bach/patchers",
				"type" : "JSON",
				"implicit" : 1
			}
, 			{
				"name" : "bach.args.mxo",
				"type" : "iLaX"
			}
, 			{
				"name" : "bach.collect.mxo",
				"type" : "iLaX"
			}
, 			{
				"name" : "bach.dl2curve.maxpat",
				"bootpath" : "~/Documents/Max 8/Packages/bach/patchers",
				"patcherrelativepath" : "../../Documents/Max 8/Packages/bach/patchers",
				"type" : "JSON",
				"implicit" : 1
			}
, 			{
				"name" : "bach.eq.mxo",
				"type" : "iLaX"
			}
, 			{
				"name" : "bach.expr.mxo",
				"type" : "iLaX"
			}
, 			{
				"name" : "bach.filternull.maxpat",
				"bootpath" : "~/Documents/Max 8/Packages/bach/patchers",
				"patcherrelativepath" : "../../Documents/Max 8/Packages/bach/patchers",
				"type" : "JSON",
				"implicit" : 1
			}
, 			{
				"name" : "bach.flat.mxo",
				"type" : "iLaX"
			}
, 			{
				"name" : "bach.gt.mxo",
				"type" : "iLaX"
			}
, 			{
				"name" : "bach.iter.mxo",
				"type" : "iLaX"
			}
, 			{
				"name" : "bach.join.mxo",
				"type" : "iLaX"
			}
, 			{
				"name" : "bach.keys.mxo",
				"type" : "iLaX"
			}
, 			{
				"name" : "bach.lace.mxo",
				"type" : "iLaX"
			}
, 			{
				"name" : "bach.length.mxo",
				"type" : "iLaX"
			}
, 			{
				"name" : "bach.pick.mxo",
				"type" : "iLaX"
			}
, 			{
				"name" : "bach.playkeys.mxo",
				"type" : "iLaX"
			}
, 			{
				"name" : "bach.portal.mxo",
				"type" : "iLaX"
			}
, 			{
				"name" : "bach.reg.mxo",
				"type" : "iLaX"
			}
, 			{
				"name" : "bach.roll.mxo",
				"type" : "iLaX"
			}
, 			{
				"name" : "bach.slice.mxo",
				"type" : "iLaX"
			}
, 			{
				"name" : "bach.slot2curve.maxpat",
				"bootpath" : "~/Documents/Max 8/Packages/bach/patchers",
				"patcherrelativepath" : "../../Documents/Max 8/Packages/bach/patchers",
				"type" : "JSON",
				"implicit" : 1
			}
, 			{
				"name" : "bach.slot2line.maxpat",
				"bootpath" : "~/Documents/Max 8/Packages/bach/patchers",
				"patcherrelativepath" : "../../Documents/Max 8/Packages/bach/patchers",
				"type" : "JSON",
				"implicit" : 1
			}
, 			{
				"name" : "bach.times.maxpat",
				"bootpath" : "~/Documents/Max 8/Packages/bach/patchers",
				"patcherrelativepath" : "../../Documents/Max 8/Packages/bach/patchers",
				"type" : "JSON",
				"implicit" : 1
			}
, 			{
				"name" : "bach.trans.mxo",
				"type" : "iLaX"
			}
, 			{
				"name" : "bach.x2dx.maxpat",
				"bootpath" : "~/Documents/Max 8/Packages/bach/patchers",
				"patcherrelativepath" : "../../Documents/Max 8/Packages/bach/patchers",
				"type" : "JSON",
				"implicit" : 1
			}
, 			{
				"name" : "bp.Gigaverb.maxpat",
				"bootpath" : "C74:/packages/BEAP/clippings/BEAP/Effects",
				"type" : "JSON",
				"implicit" : 1
			}
 ],
		"autosave" : 0
	}

}
